%TF.GenerationSoftware,Altium Limited,Altium Designer,24.10.1 (45)*%
G04 Layer_Color=65535*
%FSLAX45Y45*%
%MOMM*%
%TF.SameCoordinates,A2E8F698-1A25-487F-A8AF-53517084677A*%
%TF.FilePolarity,Positive*%
%TF.FileFunction,Legend,Top*%
%TF.Part,Single*%
G01*
G75*
%TA.AperFunction,NonConductor*%
%ADD46C,0.10000*%
%ADD47C,0.25000*%
%ADD48C,0.20000*%
%ADD49C,0.25400*%
G36*
X1554609Y3518545D02*
X1568847D01*
Y3516511D01*
X1576983D01*
Y3514477D01*
X1585119D01*
Y3512443D01*
X1591221D01*
Y3510409D01*
X1597323D01*
Y3508375D01*
X1601391D01*
Y3506341D01*
X1607493D01*
Y3504307D01*
X1611561D01*
Y3502273D01*
X1615628D01*
Y3500239D01*
X1619697D01*
Y3498205D01*
X1621731D01*
Y3496171D01*
X1625798D01*
Y3494137D01*
X1629866D01*
Y3492103D01*
X1631900D01*
Y3490069D01*
X1635968D01*
Y3488035D01*
X1638002D01*
Y3486001D01*
X1640036D01*
Y3483967D01*
X1644104D01*
Y3481933D01*
X1646138D01*
Y3479899D01*
X1648172D01*
Y3477865D01*
X1650206D01*
Y3475831D01*
X1652240D01*
Y3473797D01*
X1654274D01*
Y3471763D01*
X1656308D01*
Y3469729D01*
X1658342D01*
Y3467695D01*
X1660376D01*
Y3465661D01*
X1662410D01*
Y3463627D01*
X1664444D01*
Y3461593D01*
X1666478D01*
Y3459560D01*
X1668512D01*
Y3457525D01*
X1670546D01*
Y3453457D01*
X1672580D01*
Y3451423D01*
X1674614D01*
Y3449390D01*
X1676648D01*
Y3447356D01*
X1678682D01*
Y3443288D01*
X1680716D01*
Y3441253D01*
X1682750D01*
Y3439220D01*
X1684784D01*
Y3435152D01*
X1686818D01*
Y3431084D01*
X1688852D01*
Y3429050D01*
X1690886D01*
Y3424982D01*
X1692920D01*
Y3420914D01*
X1694954D01*
Y3416846D01*
X1696988D01*
Y3412778D01*
X1699022D01*
Y3408710D01*
X1701056D01*
Y3404642D01*
X1703090D01*
Y3398540D01*
X1705124D01*
Y3392438D01*
X1707158D01*
Y3386336D01*
X1709192D01*
Y3380234D01*
X1711226D01*
Y3370064D01*
X1713260D01*
Y3357860D01*
X1715294D01*
Y3311078D01*
X1713260D01*
Y3294807D01*
X1711226D01*
Y3282603D01*
X1709192D01*
Y3276501D01*
X1784449D01*
Y3280569D01*
X1786483D01*
Y3284637D01*
X1788517D01*
Y3288705D01*
X1790551D01*
Y3290739D01*
X1792585D01*
Y3292773D01*
X1794619D01*
Y3294807D01*
X1796653D01*
Y3296841D01*
X1798687D01*
Y3298875D01*
X1800721D01*
Y3300909D01*
X1804789D01*
Y3302943D01*
X1806823D01*
Y3304977D01*
X1812925D01*
Y3307011D01*
X1819027D01*
Y3309045D01*
X1839367D01*
Y3307011D01*
X1845469D01*
Y3304977D01*
X1851571D01*
Y3302943D01*
X1855639D01*
Y3300909D01*
X1857673D01*
Y3298875D01*
X1859707D01*
Y3296841D01*
X1861741D01*
Y3294807D01*
X1865809D01*
Y3290739D01*
X1867843D01*
Y3288705D01*
X1869877D01*
Y3286671D01*
X1871911D01*
Y3282603D01*
X1873944D01*
Y3278535D01*
X1875978D01*
Y3270399D01*
X1878013D01*
Y3250059D01*
X1875978D01*
Y3241923D01*
X1873944D01*
Y3237855D01*
X1871911D01*
Y3233787D01*
X1869877D01*
Y3231753D01*
X1867843D01*
Y3229719D01*
X1865809D01*
Y3227685D01*
X1863775D01*
Y3225651D01*
X1861741D01*
Y3223617D01*
X1859707D01*
Y3221583D01*
X1857673D01*
Y3219549D01*
X1855639D01*
Y3217515D01*
X1851571D01*
Y3215481D01*
X1845469D01*
Y3213447D01*
X1839367D01*
Y3211413D01*
X1819027D01*
Y3213447D01*
X1812925D01*
Y3215481D01*
X1806823D01*
Y3217515D01*
X1804789D01*
Y3219549D01*
X1800721D01*
Y3221583D01*
X1798687D01*
Y3223617D01*
X1796653D01*
Y3225651D01*
X1794619D01*
Y3227685D01*
X1792585D01*
Y3229719D01*
X1790551D01*
Y3231753D01*
X1788517D01*
Y3235821D01*
X1786483D01*
Y3239889D01*
X1784449D01*
Y3243957D01*
X1699022D01*
Y3239889D01*
X1696988D01*
Y3233787D01*
X1694954D01*
Y3227685D01*
X1692920D01*
Y3223617D01*
X1690886D01*
Y3219549D01*
X1688852D01*
Y3213447D01*
X1686818D01*
Y3209379D01*
X1684784D01*
Y3205311D01*
X1682750D01*
Y3201243D01*
X1680716D01*
Y3197175D01*
X1678682D01*
Y3193107D01*
X1676648D01*
Y3189040D01*
X1674614D01*
Y3184972D01*
X1672580D01*
Y3182937D01*
X1670546D01*
Y3178870D01*
X1668512D01*
Y3174802D01*
X1666478D01*
Y3170734D01*
X1664444D01*
Y3168700D01*
X1662410D01*
Y3164632D01*
X1660376D01*
Y3162598D01*
X1658342D01*
Y3158530D01*
X1656308D01*
Y3154462D01*
X1654274D01*
Y3152428D01*
X1652240D01*
Y3148360D01*
X1650206D01*
Y3146326D01*
X1648172D01*
Y3142258D01*
X1646138D01*
Y3140224D01*
X1644104D01*
Y3138190D01*
X1642070D01*
Y3134122D01*
X1640036D01*
Y3132088D01*
X1638002D01*
Y3128020D01*
X1635968D01*
Y3125986D01*
X1633935D01*
Y3123952D01*
X1631900D01*
Y3119884D01*
X1629866D01*
Y3117850D01*
X1627832D01*
Y3115816D01*
X1625798D01*
Y3113782D01*
X1623764D01*
Y3109714D01*
X1621731D01*
Y3107680D01*
X1619697D01*
Y3105646D01*
X1617663D01*
Y3103612D01*
X1615628D01*
Y3099544D01*
X1613594D01*
Y3097510D01*
X1611561D01*
Y3095476D01*
X1609527D01*
Y3093442D01*
X1607493D01*
Y3091408D01*
X1605459D01*
Y3087340D01*
X1603425D01*
Y3085306D01*
X1601391D01*
Y3083272D01*
X1599357D01*
Y3081238D01*
X1597323D01*
Y3079204D01*
X1595289D01*
Y3077170D01*
X1593255D01*
Y3075136D01*
X1591221D01*
Y3073102D01*
X1589187D01*
Y3069035D01*
X1587153D01*
Y3067000D01*
X1585119D01*
Y3064966D01*
X1583085D01*
Y3062932D01*
X1581051D01*
Y3060898D01*
X1579017D01*
Y3058865D01*
X1576983D01*
Y3056831D01*
X1574949D01*
Y3054797D01*
X1572915D01*
Y3052763D01*
X1570881D01*
Y3050728D01*
X1568847D01*
Y3048695D01*
X1566813D01*
Y3046661D01*
X1564779D01*
Y3044627D01*
X1562745D01*
Y3042593D01*
X1560711D01*
Y3040559D01*
X1558677D01*
Y3038525D01*
X1556643D01*
Y3036491D01*
X1554609D01*
Y3034457D01*
X1552575D01*
Y3032423D01*
X1550541D01*
Y3030389D01*
X1548507D01*
Y3028355D01*
X1546473D01*
Y3026321D01*
X1544439D01*
Y3024287D01*
X1542405D01*
Y3022253D01*
X1540371D01*
Y3020219D01*
X1538337D01*
Y3018185D01*
X1536303D01*
Y3016151D01*
X1534269D01*
Y3014117D01*
X1532235D01*
Y3012083D01*
X1530201D01*
Y3010049D01*
X1528167D01*
Y3008015D01*
X1524099D01*
Y3005981D01*
X1522065D01*
Y3003947D01*
X1520031D01*
Y3001913D01*
X1517997D01*
Y2999879D01*
X1515963D01*
Y2997845D01*
X1513929D01*
Y2995811D01*
X1511895D01*
Y2993777D01*
X1509861D01*
Y2991743D01*
X1507827D01*
Y2989709D01*
X1503760D01*
Y2987675D01*
X1501725D01*
Y2985641D01*
X1499691D01*
Y2983607D01*
X1497657D01*
Y2981573D01*
X1495623D01*
Y2979539D01*
X1493589D01*
Y2977505D01*
X1489522D01*
Y2975471D01*
X1487487D01*
Y2973437D01*
X1485453D01*
Y2971403D01*
X1483419D01*
Y2969369D01*
X1481386D01*
Y2967335D01*
X1477318D01*
Y2965301D01*
X1475284D01*
Y2963267D01*
X1473250D01*
Y2961233D01*
X1471216D01*
Y2959199D01*
X1467148D01*
Y2957165D01*
X1465114D01*
Y2955131D01*
X1463080D01*
Y2953097D01*
X1461046D01*
Y2951063D01*
X1459012D01*
Y2949029D01*
X1454944D01*
Y2946995D01*
X1452910D01*
Y2944961D01*
X1450876D01*
Y2942927D01*
X1446808D01*
Y2940893D01*
X1444774D01*
Y2938860D01*
X1442740D01*
Y2936825D01*
X1440706D01*
Y2934791D01*
X1436638D01*
Y2932757D01*
X1434604D01*
Y2930723D01*
X1432570D01*
Y2928690D01*
X1428502D01*
Y2926656D01*
X1426468D01*
Y2924622D01*
X1424434D01*
Y2922587D01*
X1420366D01*
Y2920553D01*
X1418332D01*
Y2918520D01*
X1416298D01*
Y2916486D01*
X1412230D01*
Y2914452D01*
X1410196D01*
Y2912418D01*
X1408162D01*
Y2910384D01*
X1404094D01*
Y2908350D01*
X1402060D01*
Y2906316D01*
X1400026D01*
Y2904282D01*
X1395958D01*
Y2902248D01*
X1383754D01*
Y2904282D01*
X1379686D01*
Y2906316D01*
X1377652D01*
Y2908350D01*
X1375618D01*
Y2910384D01*
X1371550D01*
Y2912418D01*
X1369516D01*
Y2914452D01*
X1367482D01*
Y2916486D01*
X1363414D01*
Y2918520D01*
X1361381D01*
Y2920553D01*
X1359347D01*
Y2922587D01*
X1355278D01*
Y2924622D01*
X1353244D01*
Y2926656D01*
X1351211D01*
Y2928690D01*
X1347143D01*
Y2930723D01*
X1345109D01*
Y2932757D01*
X1343075D01*
Y2934791D01*
X1339007D01*
Y2936825D01*
X1336973D01*
Y2938860D01*
X1334939D01*
Y2940893D01*
X1332905D01*
Y2942927D01*
X1328837D01*
Y2944961D01*
X1326803D01*
Y2946995D01*
X1324769D01*
Y2949029D01*
X1322735D01*
Y2951063D01*
X1318667D01*
Y2953097D01*
X1316633D01*
Y2955131D01*
X1314599D01*
Y2957165D01*
X1312565D01*
Y2959199D01*
X1308497D01*
Y2961233D01*
X1306463D01*
Y2963267D01*
X1304429D01*
Y2965301D01*
X1302395D01*
Y2967335D01*
X1298327D01*
Y2969369D01*
X1296293D01*
Y2971403D01*
X1294259D01*
Y2973437D01*
X1292225D01*
Y2975471D01*
X1290191D01*
Y2977505D01*
X1286123D01*
Y2979539D01*
X1284089D01*
Y2981573D01*
X1282055D01*
Y2983607D01*
X1280021D01*
Y2985641D01*
X1277987D01*
Y2987675D01*
X1275953D01*
Y2989709D01*
X1273919D01*
Y2991743D01*
X1269851D01*
Y2993777D01*
X1267817D01*
Y2995811D01*
X1265783D01*
Y2997845D01*
X1263749D01*
Y2999879D01*
X1261715D01*
Y3001913D01*
X1259681D01*
Y3003947D01*
X1257647D01*
Y3005981D01*
X1255613D01*
Y3008015D01*
X1251545D01*
Y3010049D01*
X1249511D01*
Y3012083D01*
X1247477D01*
Y3014117D01*
X1245443D01*
Y3016151D01*
X1243410D01*
Y3018185D01*
X1241375D01*
Y3020219D01*
X1239341D01*
Y3022253D01*
X1237307D01*
Y3024287D01*
X1235273D01*
Y3026321D01*
X1233239D01*
Y3028355D01*
X1231206D01*
Y3030389D01*
X1229172D01*
Y3032423D01*
X1227138D01*
Y3034457D01*
X1225103D01*
Y3036491D01*
X1223069D01*
Y3038525D01*
X1221036D01*
Y3040559D01*
X1219002D01*
Y3042593D01*
X1216968D01*
Y3044627D01*
X1214934D01*
Y3046661D01*
X1212900D01*
Y3048695D01*
X1210866D01*
Y3050728D01*
X1208832D01*
Y3052763D01*
X1206798D01*
Y3054797D01*
X1204764D01*
Y3056831D01*
X1202730D01*
Y3058865D01*
X1200696D01*
Y3060898D01*
X1198662D01*
Y3062932D01*
X1196628D01*
Y3064966D01*
X1194594D01*
Y3067000D01*
X1192560D01*
Y3069035D01*
X1190526D01*
Y3071068D01*
X1188492D01*
Y3075136D01*
X1186458D01*
Y3077170D01*
X1184424D01*
Y3079204D01*
X1182390D01*
Y3081238D01*
X1180356D01*
Y3083272D01*
X1178322D01*
Y3085306D01*
X1176288D01*
Y3087340D01*
X1174254D01*
Y3089374D01*
X1172220D01*
Y3093442D01*
X1170186D01*
Y3095476D01*
X1168152D01*
Y3097510D01*
X1166118D01*
Y3099544D01*
X1164084D01*
Y3101578D01*
X1162050D01*
Y3105646D01*
X1160016D01*
Y3107680D01*
X1157982D01*
Y3109714D01*
X1155948D01*
Y3111748D01*
X1153914D01*
Y3115816D01*
X1151880D01*
Y3117850D01*
X1149846D01*
Y3119884D01*
X1147812D01*
Y3123952D01*
X1145778D01*
Y3125986D01*
X1143744D01*
Y3128020D01*
X1141710D01*
Y3132088D01*
X1139676D01*
Y3134122D01*
X1137642D01*
Y3136156D01*
X1135608D01*
Y3140224D01*
X1133574D01*
Y3142258D01*
X1131540D01*
Y3146326D01*
X1129506D01*
Y3148360D01*
X1127472D01*
Y3152428D01*
X1125438D01*
Y3154462D01*
X1123404D01*
Y3158530D01*
X1121370D01*
Y3160564D01*
X1119336D01*
Y3164632D01*
X1117302D01*
Y3168700D01*
X1115268D01*
Y3170734D01*
X1113235D01*
Y3174802D01*
X1111200D01*
Y3178870D01*
X1109166D01*
Y3180903D01*
X1107132D01*
Y3184972D01*
X1105098D01*
Y3189040D01*
X1103064D01*
Y3193107D01*
X1101031D01*
Y3197175D01*
X1098997D01*
Y3201243D01*
X1096963D01*
Y3205311D01*
X1094928D01*
Y3209379D01*
X1092894D01*
Y3213447D01*
X1090861D01*
Y3217515D01*
X1088827D01*
Y3223617D01*
X1086793D01*
Y3227685D01*
X1084759D01*
Y3233787D01*
X1082725D01*
Y3237855D01*
X1080691D01*
Y3243957D01*
X1078657D01*
Y3250059D01*
X1076623D01*
Y3258195D01*
X1074589D01*
Y3264297D01*
X1072555D01*
Y3272433D01*
X1070521D01*
Y3282603D01*
X1068487D01*
Y3292773D01*
X1066453D01*
Y3309045D01*
X1064419D01*
Y3357860D01*
X1066453D01*
Y3370064D01*
X1068487D01*
Y3380234D01*
X1070521D01*
Y3386336D01*
X1072555D01*
Y3392438D01*
X1074589D01*
Y3398540D01*
X1076623D01*
Y3404642D01*
X1078657D01*
Y3408710D01*
X1080691D01*
Y3412778D01*
X1082725D01*
Y3416846D01*
X1084759D01*
Y3420914D01*
X1086793D01*
Y3424982D01*
X1088827D01*
Y3429050D01*
X1090861D01*
Y3431084D01*
X1092894D01*
Y3435152D01*
X1094928D01*
Y3439220D01*
X1096963D01*
Y3441253D01*
X1098997D01*
Y3443288D01*
X1101031D01*
Y3447356D01*
X1103064D01*
Y3449390D01*
X1105098D01*
Y3451423D01*
X1107132D01*
Y3455491D01*
X1109166D01*
Y3457525D01*
X1111200D01*
Y3459560D01*
X1113235D01*
Y3461593D01*
X1115268D01*
Y3463627D01*
X1117302D01*
Y3465661D01*
X1119336D01*
Y3467695D01*
X1121370D01*
Y3469729D01*
X1123404D01*
Y3471763D01*
X1125438D01*
Y3473797D01*
X1127472D01*
Y3475831D01*
X1129506D01*
Y3477865D01*
X1131540D01*
Y3479899D01*
X1133574D01*
Y3481933D01*
X1135608D01*
Y3483967D01*
X1139676D01*
Y3486001D01*
X1141710D01*
Y3488035D01*
X1143744D01*
Y3490069D01*
X1147812D01*
Y3492103D01*
X1149846D01*
Y3494137D01*
X1153914D01*
Y3496171D01*
X1157982D01*
Y3498205D01*
X1160016D01*
Y3500239D01*
X1164084D01*
Y3502273D01*
X1168152D01*
Y3504307D01*
X1172220D01*
Y3506341D01*
X1178322D01*
Y3508375D01*
X1182390D01*
Y3510409D01*
X1188492D01*
Y3512443D01*
X1194594D01*
Y3514477D01*
X1202730D01*
Y3516511D01*
X1210866D01*
Y3518545D01*
X1225103D01*
Y3520579D01*
X1257647D01*
Y3518545D01*
X1273919D01*
Y3516511D01*
X1284089D01*
Y3514477D01*
X1292225D01*
Y3512443D01*
X1300361D01*
Y3510409D01*
X1306463D01*
Y3508375D01*
X1312565D01*
Y3506341D01*
X1318667D01*
Y3504307D01*
X1324769D01*
Y3502273D01*
X1328837D01*
Y3500239D01*
X1332905D01*
Y3498205D01*
X1336973D01*
Y3496171D01*
X1343075D01*
Y3494137D01*
X1345109D01*
Y3492103D01*
X1349177D01*
Y3490069D01*
X1353244D01*
Y3488035D01*
X1357312D01*
Y3486001D01*
X1359347D01*
Y3483967D01*
X1363414D01*
Y3481933D01*
X1367482D01*
Y3479899D01*
X1369516D01*
Y3477865D01*
X1371550D01*
Y3475831D01*
X1375618D01*
Y3473797D01*
X1377652D01*
Y3471763D01*
X1381720D01*
Y3469729D01*
X1383754D01*
Y3467695D01*
X1385788D01*
Y3465661D01*
X1387822D01*
Y3463627D01*
X1391890D01*
Y3465661D01*
X1393924D01*
Y3467695D01*
X1395958D01*
Y3469729D01*
X1397992D01*
Y3471763D01*
X1402060D01*
Y3473797D01*
X1404094D01*
Y3475831D01*
X1408162D01*
Y3477865D01*
X1410196D01*
Y3479899D01*
X1412230D01*
Y3481933D01*
X1416298D01*
Y3483967D01*
X1420366D01*
Y3486001D01*
X1422400D01*
Y3488035D01*
X1426468D01*
Y3490069D01*
X1430536D01*
Y3492103D01*
X1434604D01*
Y3494137D01*
X1438672D01*
Y3496171D01*
X1442740D01*
Y3498205D01*
X1446808D01*
Y3500239D01*
X1450876D01*
Y3502273D01*
X1454944D01*
Y3504307D01*
X1461046D01*
Y3506341D01*
X1467148D01*
Y3508375D01*
X1473250D01*
Y3510409D01*
X1479352D01*
Y3512443D01*
X1487487D01*
Y3514477D01*
X1495623D01*
Y3516511D01*
X1505793D01*
Y3518545D01*
X1522065D01*
Y3520579D01*
X1554609D01*
Y3518545D01*
D02*
G37*
G36*
X1031875Y3243957D02*
X901700D01*
Y3276501D01*
X1031875D01*
Y3243957D01*
D02*
G37*
G36*
X1819027Y2957165D02*
X1827163D01*
Y2955131D01*
X1833265D01*
Y2953097D01*
X1839367D01*
Y2951063D01*
X1841401D01*
Y2949029D01*
X1845469D01*
Y2946995D01*
X1849537D01*
Y2944961D01*
X1851571D01*
Y2942927D01*
X1853605D01*
Y2940893D01*
X1857673D01*
Y2938860D01*
X1859707D01*
Y2936825D01*
X1861741D01*
Y2934791D01*
X1863775D01*
Y2930723D01*
X1865809D01*
Y2928690D01*
X1867843D01*
Y2926656D01*
X1869877D01*
Y2922587D01*
X1871911D01*
Y2918520D01*
X1873944D01*
Y2914452D01*
X1875978D01*
Y2908350D01*
X1878013D01*
Y2888010D01*
X1875978D01*
Y2879874D01*
X1873944D01*
Y2875806D01*
X1871911D01*
Y2871738D01*
X1869877D01*
Y2869704D01*
X1867843D01*
Y2865636D01*
X1865809D01*
Y2863602D01*
X1863775D01*
Y2861568D01*
X1861741D01*
Y2859534D01*
X1857673D01*
Y2857500D01*
X1855639D01*
Y2855466D01*
X1851571D01*
Y2853432D01*
X1849537D01*
Y2851398D01*
X1847503D01*
Y2849364D01*
X1843435D01*
Y2847330D01*
X1841401D01*
Y2845296D01*
X1837333D01*
Y2843262D01*
X1835299D01*
Y2841228D01*
X1831231D01*
Y2839194D01*
X1829197D01*
Y2837160D01*
X1825129D01*
Y2835126D01*
X1823095D01*
Y2833092D01*
X1819027D01*
Y2831058D01*
X1816993D01*
Y2829024D01*
X1812925D01*
Y2826990D01*
X1810891D01*
Y2824956D01*
X1806823D01*
Y2822922D01*
X1804789D01*
Y2820888D01*
X1800721D01*
Y2818854D01*
X1798687D01*
Y2816820D01*
X1794619D01*
Y2814786D01*
X1792585D01*
Y2812752D01*
X1788517D01*
Y2810718D01*
X1786483D01*
Y2808685D01*
X1782415D01*
Y2806650D01*
X1780381D01*
Y2804616D01*
X1776313D01*
Y2802582D01*
X1774279D01*
Y2800548D01*
X1770211D01*
Y2798515D01*
X1768177D01*
Y2796481D01*
X1764110D01*
Y2794447D01*
X1762075D01*
Y2792413D01*
X1758007D01*
Y2790378D01*
X1755973D01*
Y2788345D01*
X1751906D01*
Y2786311D01*
X1749872D01*
Y2784277D01*
X1745803D01*
Y2782243D01*
X1743769D01*
Y2780209D01*
X1739702D01*
Y2778175D01*
X1737668D01*
Y2776141D01*
X1733600D01*
Y2774107D01*
X1731566D01*
Y2772073D01*
X1727498D01*
Y2770039D01*
X1725464D01*
Y2768005D01*
X1721396D01*
Y2765971D01*
X1719362D01*
Y2763937D01*
X1715294D01*
Y2761903D01*
X1713260D01*
Y2759869D01*
X1709192D01*
Y2757835D01*
X1707158D01*
Y2755801D01*
X1705124D01*
Y2753767D01*
X1701056D01*
Y2751733D01*
X1699022D01*
Y2749699D01*
X1694954D01*
Y2747665D01*
X1692920D01*
Y2745631D01*
X1688852D01*
Y2743597D01*
X1686818D01*
Y2741563D01*
X1682750D01*
Y2739529D01*
X1680716D01*
Y2737495D01*
X1676648D01*
Y2735461D01*
X1674614D01*
Y2733427D01*
X1670546D01*
Y2731393D01*
X1668512D01*
Y2729359D01*
X1664444D01*
Y2727325D01*
X1662410D01*
Y2725291D01*
X1658342D01*
Y2723257D01*
X1656308D01*
Y2721223D01*
X1652240D01*
Y2719189D01*
X1650206D01*
Y2717155D01*
X1646138D01*
Y2715121D01*
X1644104D01*
Y2713087D01*
X1640036D01*
Y2711053D01*
X1638002D01*
Y2709019D01*
X1633935D01*
Y2706985D01*
X1631900D01*
Y2704951D01*
X1627832D01*
Y2702917D01*
X1625798D01*
Y2700883D01*
X1621731D01*
Y2698849D01*
X1619697D01*
Y2696815D01*
X1615628D01*
Y2694781D01*
X1613594D01*
Y2692747D01*
X1609527D01*
Y2690713D01*
X1607493D01*
Y2688679D01*
X1603425D01*
Y2686645D01*
X1601391D01*
Y2684611D01*
X1597323D01*
Y2682577D01*
X1595289D01*
Y2680543D01*
X1591221D01*
Y2678510D01*
X1589187D01*
Y2676475D01*
X1585119D01*
Y2674441D01*
X1583085D01*
Y2672407D01*
X1579017D01*
Y2670373D01*
X1576983D01*
Y2668340D01*
X1572915D01*
Y2666306D01*
X1570881D01*
Y2664272D01*
X1566813D01*
Y2662238D01*
X1564779D01*
Y2660203D01*
X1560711D01*
Y2658170D01*
X1558677D01*
Y2656136D01*
X1554609D01*
Y2654102D01*
X1552575D01*
Y2652068D01*
X1548507D01*
Y2650034D01*
X1546473D01*
Y2648000D01*
X1544439D01*
Y2645966D01*
X1540371D01*
Y2643932D01*
X1536303D01*
Y2641898D01*
X1534269D01*
Y2639864D01*
X1530201D01*
Y2637830D01*
X1528167D01*
Y2635796D01*
X1524099D01*
Y2633762D01*
X1522065D01*
Y2631728D01*
X1517997D01*
Y2629694D01*
X1513929D01*
Y2627660D01*
X1509861D01*
Y2625626D01*
X1505793D01*
Y2623592D01*
X1501725D01*
Y2621558D01*
X1495623D01*
Y2619524D01*
X1489522D01*
Y2617490D01*
X1483419D01*
Y2615456D01*
X1475284D01*
Y2613422D01*
X1467148D01*
Y2611388D01*
X1452910D01*
Y2609354D01*
X1416298D01*
Y2611388D01*
X1395958D01*
Y2613422D01*
X1377652D01*
Y2615456D01*
X1359347D01*
Y2617490D01*
X1341041D01*
Y2619524D01*
X1322735D01*
Y2621558D01*
X1304429D01*
Y2623592D01*
X1286123D01*
Y2625626D01*
X1267817D01*
Y2627660D01*
X1249511D01*
Y2629694D01*
X1229172D01*
Y2631728D01*
X1210866D01*
Y2633762D01*
X1176288D01*
Y2631728D01*
X1166118D01*
Y2629694D01*
X1157982D01*
Y2627660D01*
X1147812D01*
Y2625626D01*
X1137642D01*
Y2623592D01*
X1127472D01*
Y2615456D01*
X1129506D01*
Y2605286D01*
X1131540D01*
Y2595116D01*
X1133574D01*
Y2580878D01*
X1131540D01*
Y2576810D01*
X1129506D01*
Y2574776D01*
X1125438D01*
Y2572742D01*
X1121370D01*
Y2570708D01*
X1113235D01*
Y2568674D01*
X1103064D01*
Y2566640D01*
X1092894D01*
Y2564606D01*
X1084759D01*
Y2562572D01*
X1074589D01*
Y2560538D01*
X1064419D01*
Y2558504D01*
X1054249D01*
Y2556470D01*
X1046113D01*
Y2554436D01*
X1035943D01*
Y2552402D01*
X1025773D01*
Y2550368D01*
X1017637D01*
Y2548335D01*
X1007467D01*
Y2546300D01*
X997297D01*
Y2544266D01*
X985093D01*
Y2546300D01*
X981025D01*
Y2548335D01*
X978991D01*
Y2552402D01*
X976957D01*
Y2556470D01*
X974923D01*
Y2564606D01*
X972889D01*
Y2574776D01*
X970856D01*
Y2584946D01*
X968822D01*
Y2593082D01*
X966788D01*
Y2603252D01*
X964753D01*
Y2613422D01*
X962719D01*
Y2623592D01*
X960686D01*
Y2631728D01*
X958652D01*
Y2641898D01*
X956618D01*
Y2652068D01*
X954584D01*
Y2662238D01*
X952550D01*
Y2672407D01*
X950516D01*
Y2680543D01*
X948482D01*
Y2690713D01*
X946448D01*
Y2700883D01*
X944414D01*
Y2711053D01*
X942380D01*
Y2719189D01*
X940346D01*
Y2729359D01*
X938312D01*
Y2739529D01*
X936278D01*
Y2749699D01*
X934244D01*
Y2757835D01*
X932210D01*
Y2768005D01*
X930176D01*
Y2778175D01*
X928142D01*
Y2788345D01*
X926108D01*
Y2796481D01*
X924074D01*
Y2806650D01*
X922040D01*
Y2816820D01*
X920006D01*
Y2826990D01*
X917972D01*
Y2837160D01*
X915938D01*
Y2845296D01*
X913904D01*
Y2855466D01*
X911870D01*
Y2865636D01*
X909836D01*
Y2875806D01*
X907802D01*
Y2883942D01*
X905768D01*
Y2894112D01*
X903734D01*
Y2904282D01*
X901700D01*
Y2916486D01*
X903734D01*
Y2920553D01*
X905768D01*
Y2922587D01*
X907802D01*
Y2924622D01*
X911870D01*
Y2926656D01*
X920006D01*
Y2928690D01*
X930176D01*
Y2930723D01*
X938312D01*
Y2932757D01*
X948482D01*
Y2934791D01*
X958652D01*
Y2936825D01*
X966788D01*
Y2938860D01*
X976957D01*
Y2940893D01*
X985093D01*
Y2942927D01*
X995263D01*
Y2944961D01*
X1005433D01*
Y2946995D01*
X1013569D01*
Y2949029D01*
X1023739D01*
Y2951063D01*
X1033909D01*
Y2953097D01*
X1052215D01*
Y2951063D01*
X1054249D01*
Y2949029D01*
X1056283D01*
Y2946995D01*
X1058317D01*
Y2942927D01*
X1060351D01*
Y2934791D01*
X1062385D01*
Y2924622D01*
X1064419D01*
Y2916486D01*
X1066453D01*
Y2906316D01*
X1068487D01*
Y2896146D01*
X1070521D01*
Y2894112D01*
X1072555D01*
Y2896146D01*
X1076623D01*
Y2898180D01*
X1080691D01*
Y2900214D01*
X1082725D01*
Y2902248D01*
X1086793D01*
Y2904282D01*
X1090861D01*
Y2906316D01*
X1094928D01*
Y2908350D01*
X1098997D01*
Y2910384D01*
X1103064D01*
Y2912418D01*
X1107132D01*
Y2914452D01*
X1111200D01*
Y2916486D01*
X1117302D01*
Y2918520D01*
X1123404D01*
Y2920553D01*
X1129506D01*
Y2922587D01*
X1135608D01*
Y2924622D01*
X1143744D01*
Y2926656D01*
X1155948D01*
Y2928690D01*
X1172220D01*
Y2930723D01*
X1208832D01*
Y2928690D01*
X1223069D01*
Y2926656D01*
X1235273D01*
Y2924622D01*
X1243410D01*
Y2922587D01*
X1249511D01*
Y2920553D01*
X1255613D01*
Y2918520D01*
X1261715D01*
Y2916486D01*
X1267817D01*
Y2914452D01*
X1271885D01*
Y2912418D01*
X1275953D01*
Y2910384D01*
X1280021D01*
Y2908350D01*
X1284089D01*
Y2906316D01*
X1288157D01*
Y2904282D01*
X1292225D01*
Y2902248D01*
X1296293D01*
Y2900214D01*
X1300361D01*
Y2898180D01*
X1304429D01*
Y2896146D01*
X1308497D01*
Y2894112D01*
X1312565D01*
Y2892078D01*
X1314599D01*
Y2890044D01*
X1318667D01*
Y2888010D01*
X1322735D01*
Y2885976D01*
X1326803D01*
Y2883942D01*
X1330871D01*
Y2881908D01*
X1334939D01*
Y2879874D01*
X1339007D01*
Y2877840D01*
X1343075D01*
Y2875806D01*
X1347143D01*
Y2873772D01*
X1349177D01*
Y2871738D01*
X1353244D01*
Y2869704D01*
X1357312D01*
Y2867670D01*
X1361381D01*
Y2865636D01*
X1365448D01*
Y2863602D01*
X1369516D01*
Y2861568D01*
X1373585D01*
Y2859534D01*
X1377652D01*
Y2857500D01*
X1381720D01*
Y2855466D01*
X1387822D01*
Y2853432D01*
X1410196D01*
Y2855466D01*
X1416298D01*
Y2857500D01*
X1422400D01*
Y2859534D01*
X1424434D01*
Y2861568D01*
X1428502D01*
Y2863602D01*
X1432570D01*
Y2865636D01*
X1436638D01*
Y2867670D01*
X1440706D01*
Y2869704D01*
X1444774D01*
Y2871738D01*
X1448842D01*
Y2873772D01*
X1452910D01*
Y2875806D01*
X1456978D01*
Y2877840D01*
X1461046D01*
Y2879874D01*
X1465114D01*
Y2881908D01*
X1469182D01*
Y2883942D01*
X1473250D01*
Y2885976D01*
X1477318D01*
Y2888010D01*
X1481386D01*
Y2890044D01*
X1485453D01*
Y2892078D01*
X1489522D01*
Y2894112D01*
X1493589D01*
Y2896146D01*
X1497657D01*
Y2898180D01*
X1501725D01*
Y2900214D01*
X1503760D01*
Y2902248D01*
X1507827D01*
Y2904282D01*
X1511895D01*
Y2906316D01*
X1515963D01*
Y2908350D01*
X1520031D01*
Y2910384D01*
X1524099D01*
Y2912418D01*
X1528167D01*
Y2914452D01*
X1532235D01*
Y2916486D01*
X1536303D01*
Y2918520D01*
X1540371D01*
Y2920553D01*
X1544439D01*
Y2922587D01*
X1548507D01*
Y2924622D01*
X1552575D01*
Y2926656D01*
X1556643D01*
Y2928690D01*
X1562745D01*
Y2930723D01*
X1566813D01*
Y2932757D01*
X1576983D01*
Y2934791D01*
X1609527D01*
Y2932757D01*
X1617663D01*
Y2930723D01*
X1623764D01*
Y2928690D01*
X1629866D01*
Y2926656D01*
X1633935D01*
Y2924622D01*
X1638002D01*
Y2922587D01*
X1640036D01*
Y2920553D01*
X1644104D01*
Y2918520D01*
X1646138D01*
Y2916486D01*
X1650206D01*
Y2914452D01*
X1652240D01*
Y2912418D01*
X1654274D01*
Y2910384D01*
X1656308D01*
Y2908350D01*
X1658342D01*
Y2906316D01*
X1660376D01*
Y2904282D01*
X1662410D01*
Y2902248D01*
X1664444D01*
Y2898180D01*
X1668512D01*
Y2900214D01*
X1672580D01*
Y2902248D01*
X1676648D01*
Y2904282D01*
X1680716D01*
Y2906316D01*
X1684784D01*
Y2908350D01*
X1688852D01*
Y2910384D01*
X1692920D01*
Y2912418D01*
X1696988D01*
Y2914452D01*
X1701056D01*
Y2916486D01*
X1705124D01*
Y2918520D01*
X1709192D01*
Y2920553D01*
X1713260D01*
Y2922587D01*
X1717328D01*
Y2924622D01*
X1721396D01*
Y2926656D01*
X1725464D01*
Y2928690D01*
X1729532D01*
Y2930723D01*
X1733600D01*
Y2932757D01*
X1737668D01*
Y2934791D01*
X1739702D01*
Y2936825D01*
X1743769D01*
Y2938860D01*
X1747837D01*
Y2940893D01*
X1751906D01*
Y2942927D01*
X1755973D01*
Y2944961D01*
X1760041D01*
Y2946995D01*
X1764110D01*
Y2949029D01*
X1768177D01*
Y2951063D01*
X1772245D01*
Y2953097D01*
X1776313D01*
Y2955131D01*
X1782415D01*
Y2957165D01*
X1790551D01*
Y2959199D01*
X1819027D01*
Y2957165D01*
D02*
G37*
%LPC*%
G36*
X1550541Y3488035D02*
X1522065D01*
Y3486001D01*
X1507827D01*
Y3483967D01*
X1497657D01*
Y3481933D01*
X1489522D01*
Y3479899D01*
X1483419D01*
Y3477865D01*
X1477318D01*
Y3475831D01*
X1473250D01*
Y3473797D01*
X1467148D01*
Y3471763D01*
X1463080D01*
Y3469729D01*
X1459012D01*
Y3467695D01*
X1454944D01*
Y3465661D01*
X1450876D01*
Y3463627D01*
X1446808D01*
Y3461593D01*
X1442740D01*
Y3459560D01*
X1440706D01*
Y3457525D01*
X1436638D01*
Y3455491D01*
X1432570D01*
Y3453457D01*
X1430536D01*
Y3451423D01*
X1426468D01*
Y3449390D01*
X1424434D01*
Y3447356D01*
X1422400D01*
Y3445322D01*
X1418332D01*
Y3443288D01*
X1416298D01*
Y3441253D01*
X1414264D01*
Y3439219D01*
X1410196D01*
Y3437186D01*
X1408162D01*
Y3435152D01*
X1406128D01*
Y3433118D01*
X1404094D01*
Y3431084D01*
X1402060D01*
Y3429050D01*
X1400026D01*
Y3427016D01*
X1395958D01*
Y3424982D01*
X1383754D01*
Y3427016D01*
X1379686D01*
Y3429050D01*
X1377652D01*
Y3431084D01*
X1375618D01*
Y3433118D01*
X1373584D01*
Y3435152D01*
X1371550D01*
Y3437186D01*
X1369516D01*
Y3439219D01*
X1365448D01*
Y3441253D01*
X1363414D01*
Y3443288D01*
X1361381D01*
Y3445322D01*
X1357312D01*
Y3447356D01*
X1355278D01*
Y3449390D01*
X1353244D01*
Y3451423D01*
X1349177D01*
Y3453457D01*
X1347143D01*
Y3455491D01*
X1343075D01*
Y3457525D01*
X1339007D01*
Y3459560D01*
X1336973D01*
Y3461593D01*
X1332905D01*
Y3463627D01*
X1328837D01*
Y3465661D01*
X1324769D01*
Y3467695D01*
X1320701D01*
Y3469729D01*
X1316633D01*
Y3471763D01*
X1312565D01*
Y3473797D01*
X1306463D01*
Y3475831D01*
X1302395D01*
Y3477865D01*
X1296293D01*
Y3479899D01*
X1290191D01*
Y3481933D01*
X1282055D01*
Y3483967D01*
X1271885D01*
Y3486001D01*
X1257647D01*
Y3488035D01*
X1231206D01*
Y3486001D01*
X1216968D01*
Y3483967D01*
X1206798D01*
Y3481933D01*
X1200696D01*
Y3479899D01*
X1194594D01*
Y3477865D01*
X1190526D01*
Y3475831D01*
X1184424D01*
Y3473797D01*
X1180356D01*
Y3471763D01*
X1176288D01*
Y3469729D01*
X1174254D01*
Y3467695D01*
X1170186D01*
Y3465661D01*
X1166118D01*
Y3463627D01*
X1164084D01*
Y3461593D01*
X1160016D01*
Y3459560D01*
X1157982D01*
Y3457525D01*
X1155948D01*
Y3455491D01*
X1153914D01*
Y3453457D01*
X1151880D01*
Y3451423D01*
X1147812D01*
Y3449390D01*
X1145778D01*
Y3447356D01*
X1143744D01*
Y3445322D01*
X1141710D01*
Y3441253D01*
X1139676D01*
Y3439219D01*
X1137642D01*
Y3437186D01*
X1135608D01*
Y3435152D01*
X1133574D01*
Y3433118D01*
X1131540D01*
Y3429050D01*
X1129506D01*
Y3427016D01*
X1127472D01*
Y3424982D01*
X1125438D01*
Y3422948D01*
X1123404D01*
Y3418880D01*
X1121370D01*
Y3416846D01*
X1119336D01*
Y3412778D01*
X1117302D01*
Y3408710D01*
X1115268D01*
Y3404642D01*
X1113234D01*
Y3400574D01*
X1111200D01*
Y3396506D01*
X1109166D01*
Y3392438D01*
X1107132D01*
Y3386336D01*
X1105098D01*
Y3382268D01*
X1103064D01*
Y3374132D01*
X1101031D01*
Y3365996D01*
X1098997D01*
Y3353792D01*
X1096963D01*
Y3315147D01*
X1098997D01*
Y3298875D01*
X1101031D01*
Y3286671D01*
X1103064D01*
Y3278535D01*
X1105098D01*
Y3270399D01*
X1107132D01*
Y3264297D01*
X1109166D01*
Y3258195D01*
X1111200D01*
Y3252093D01*
X1113234D01*
Y3245991D01*
X1115268D01*
Y3241923D01*
X1117302D01*
Y3235821D01*
X1119336D01*
Y3231753D01*
X1121370D01*
Y3227685D01*
X1123404D01*
Y3223617D01*
X1125438D01*
Y3217515D01*
X1127472D01*
Y3213447D01*
X1129506D01*
Y3211413D01*
X1131540D01*
Y3207345D01*
X1133574D01*
Y3203277D01*
X1135608D01*
Y3199210D01*
X1137642D01*
Y3195141D01*
X1139676D01*
Y3191073D01*
X1141710D01*
Y3189040D01*
X1143744D01*
Y3184972D01*
X1145778D01*
Y3180903D01*
X1147812D01*
Y3178869D01*
X1149846D01*
Y3174802D01*
X1151880D01*
Y3172768D01*
X1153914D01*
Y3168700D01*
X1155948D01*
Y3166666D01*
X1157982D01*
Y3162598D01*
X1160016D01*
Y3160564D01*
X1162050D01*
Y3156496D01*
X1164084D01*
Y3154462D01*
X1166118D01*
Y3152428D01*
X1168152D01*
Y3148360D01*
X1170186D01*
Y3146326D01*
X1172220D01*
Y3144292D01*
X1174254D01*
Y3140224D01*
X1176288D01*
Y3138190D01*
X1178322D01*
Y3136156D01*
X1180356D01*
Y3132088D01*
X1182390D01*
Y3130054D01*
X1184424D01*
Y3128020D01*
X1186458D01*
Y3125986D01*
X1188492D01*
Y3121918D01*
X1190526D01*
Y3119884D01*
X1192560D01*
Y3117850D01*
X1194594D01*
Y3115816D01*
X1196628D01*
Y3113782D01*
X1198662D01*
Y3109714D01*
X1200696D01*
Y3107680D01*
X1202730D01*
Y3105646D01*
X1204764D01*
Y3103612D01*
X1206798D01*
Y3101578D01*
X1208832D01*
Y3099544D01*
X1210866D01*
Y3097510D01*
X1212900D01*
Y3093442D01*
X1214934D01*
Y3091408D01*
X1216968D01*
Y3089374D01*
X1219002D01*
Y3087340D01*
X1221036D01*
Y3085306D01*
X1223069D01*
Y3083272D01*
X1225103D01*
Y3081238D01*
X1227138D01*
Y3079204D01*
X1229172D01*
Y3077170D01*
X1231206D01*
Y3075136D01*
X1233239D01*
Y3073102D01*
X1235273D01*
Y3071068D01*
X1237307D01*
Y3069035D01*
X1239341D01*
Y3067000D01*
X1241375D01*
Y3064966D01*
X1243409D01*
Y3062932D01*
X1245443D01*
Y3060898D01*
X1247477D01*
Y3058865D01*
X1249511D01*
Y3056831D01*
X1251545D01*
Y3054797D01*
X1253579D01*
Y3052763D01*
X1255613D01*
Y3050728D01*
X1257647D01*
Y3048694D01*
X1259681D01*
Y3046661D01*
X1261715D01*
Y3044627D01*
X1263749D01*
Y3042593D01*
X1265783D01*
Y3040559D01*
X1267817D01*
Y3038525D01*
X1269851D01*
Y3036491D01*
X1271885D01*
Y3034457D01*
X1273919D01*
Y3032423D01*
X1275953D01*
Y3030389D01*
X1280021D01*
Y3028355D01*
X1282055D01*
Y3026321D01*
X1284089D01*
Y3024287D01*
X1286123D01*
Y3022253D01*
X1288157D01*
Y3020219D01*
X1290191D01*
Y3018185D01*
X1292225D01*
Y3016151D01*
X1294259D01*
Y3014117D01*
X1296293D01*
Y3012083D01*
X1300361D01*
Y3010049D01*
X1302395D01*
Y3008015D01*
X1304429D01*
Y3005981D01*
X1306463D01*
Y3003947D01*
X1308497D01*
Y3001913D01*
X1310531D01*
Y2999879D01*
X1314599D01*
Y2997845D01*
X1316633D01*
Y2995811D01*
X1318667D01*
Y2993777D01*
X1320701D01*
Y2991743D01*
X1324769D01*
Y2989709D01*
X1326803D01*
Y2987675D01*
X1328837D01*
Y2985641D01*
X1330871D01*
Y2983607D01*
X1332905D01*
Y2981573D01*
X1336973D01*
Y2979539D01*
X1339007D01*
Y2977505D01*
X1341041D01*
Y2975471D01*
X1343075D01*
Y2973437D01*
X1347143D01*
Y2971403D01*
X1349177D01*
Y2969369D01*
X1351211D01*
Y2967335D01*
X1353244D01*
Y2965301D01*
X1357312D01*
Y2963267D01*
X1359347D01*
Y2961233D01*
X1361381D01*
Y2959199D01*
X1365448D01*
Y2957165D01*
X1367482D01*
Y2955131D01*
X1369516D01*
Y2953097D01*
X1371550D01*
Y2951063D01*
X1375618D01*
Y2949029D01*
X1377652D01*
Y2946995D01*
X1379686D01*
Y2944961D01*
X1383754D01*
Y2942927D01*
X1385788D01*
Y2940893D01*
X1387822D01*
Y2938860D01*
X1391890D01*
Y2940893D01*
X1393924D01*
Y2942927D01*
X1395958D01*
Y2944961D01*
X1400026D01*
Y2946995D01*
X1402060D01*
Y2949029D01*
X1404094D01*
Y2951063D01*
X1406128D01*
Y2953097D01*
X1410196D01*
Y2955131D01*
X1412230D01*
Y2957165D01*
X1414264D01*
Y2959199D01*
X1418332D01*
Y2961233D01*
X1420366D01*
Y2963267D01*
X1422400D01*
Y2965301D01*
X1426468D01*
Y2967335D01*
X1428502D01*
Y2969369D01*
X1430536D01*
Y2971403D01*
X1432570D01*
Y2973437D01*
X1436638D01*
Y2975471D01*
X1438672D01*
Y2977505D01*
X1440706D01*
Y2979539D01*
X1442740D01*
Y2981573D01*
X1446808D01*
Y2983607D01*
X1448842D01*
Y2985641D01*
X1450876D01*
Y2987675D01*
X1452910D01*
Y2989709D01*
X1456978D01*
Y2991743D01*
X1459012D01*
Y2993777D01*
X1461046D01*
Y2995811D01*
X1463080D01*
Y2997845D01*
X1465114D01*
Y2999879D01*
X1467148D01*
Y3001913D01*
X1471216D01*
Y3003947D01*
X1473250D01*
Y3005981D01*
X1475284D01*
Y3008015D01*
X1477318D01*
Y3010049D01*
X1479352D01*
Y3012083D01*
X1481386D01*
Y3014117D01*
X1485453D01*
Y3016151D01*
X1487487D01*
Y3018185D01*
X1489522D01*
Y3020219D01*
X1491556D01*
Y3022253D01*
X1493589D01*
Y3024287D01*
X1495623D01*
Y3026321D01*
X1497657D01*
Y3028355D01*
X1499691D01*
Y3030389D01*
X1503759D01*
Y3032423D01*
X1505793D01*
Y3034457D01*
X1507827D01*
Y3036491D01*
X1509861D01*
Y3038525D01*
X1511895D01*
Y3040559D01*
X1513929D01*
Y3042593D01*
X1515963D01*
Y3044627D01*
X1517997D01*
Y3046661D01*
X1520031D01*
Y3048694D01*
X1522065D01*
Y3050728D01*
X1524099D01*
Y3052763D01*
X1526133D01*
Y3054797D01*
X1528167D01*
Y3056831D01*
X1530201D01*
Y3058865D01*
X1532235D01*
Y3060898D01*
X1534269D01*
Y3062932D01*
X1536303D01*
Y3064966D01*
X1538337D01*
Y3067000D01*
X1540371D01*
Y3069035D01*
X1542405D01*
Y3071068D01*
X1544439D01*
Y3073102D01*
X1546473D01*
Y3075136D01*
X1548507D01*
Y3077170D01*
X1550541D01*
Y3079204D01*
X1552575D01*
Y3081238D01*
X1554609D01*
Y3083272D01*
X1556643D01*
Y3085306D01*
X1558677D01*
Y3087340D01*
X1560711D01*
Y3089374D01*
X1562745D01*
Y3091408D01*
X1564779D01*
Y3093442D01*
X1566813D01*
Y3097510D01*
X1568847D01*
Y3099544D01*
X1570881D01*
Y3101578D01*
X1572915D01*
Y3103612D01*
X1574949D01*
Y3105646D01*
X1576983D01*
Y3107680D01*
X1579017D01*
Y3109714D01*
X1581051D01*
Y3113782D01*
X1583085D01*
Y3115816D01*
X1585119D01*
Y3117850D01*
X1587153D01*
Y3119884D01*
X1589187D01*
Y3121918D01*
X1591221D01*
Y3125986D01*
X1593255D01*
Y3128020D01*
X1595289D01*
Y3130054D01*
X1597323D01*
Y3132088D01*
X1599357D01*
Y3136156D01*
X1601391D01*
Y3138190D01*
X1603425D01*
Y3140224D01*
X1605459D01*
Y3144292D01*
X1607493D01*
Y3146326D01*
X1609527D01*
Y3148360D01*
X1611561D01*
Y3152428D01*
X1613594D01*
Y3154462D01*
X1615628D01*
Y3156496D01*
X1617663D01*
Y3160564D01*
X1619697D01*
Y3162598D01*
X1621731D01*
Y3166666D01*
X1623764D01*
Y3168700D01*
X1625798D01*
Y3172768D01*
X1627832D01*
Y3174802D01*
X1629866D01*
Y3178869D01*
X1631900D01*
Y3180903D01*
X1633934D01*
Y3184972D01*
X1635968D01*
Y3189040D01*
X1638002D01*
Y3193107D01*
X1640036D01*
Y3195141D01*
X1642070D01*
Y3199210D01*
X1644104D01*
Y3203277D01*
X1646138D01*
Y3207345D01*
X1648172D01*
Y3211413D01*
X1650206D01*
Y3213447D01*
X1652240D01*
Y3219549D01*
X1654274D01*
Y3223617D01*
X1656308D01*
Y3227685D01*
X1658342D01*
Y3231753D01*
X1660376D01*
Y3235821D01*
X1662410D01*
Y3241923D01*
X1664444D01*
Y3243957D01*
X1530201D01*
Y3245991D01*
X1526133D01*
Y3248025D01*
X1524099D01*
Y3250059D01*
X1522065D01*
Y3254127D01*
X1520031D01*
Y3258195D01*
X1517997D01*
Y3260229D01*
X1515963D01*
Y3264297D01*
X1513929D01*
Y3268365D01*
X1511895D01*
Y3272433D01*
X1509861D01*
Y3274467D01*
X1507827D01*
Y3278535D01*
X1505793D01*
Y3282603D01*
X1503759D01*
Y3286671D01*
X1501725D01*
Y3288705D01*
X1499691D01*
Y3292773D01*
X1497657D01*
Y3296841D01*
X1495623D01*
Y3300909D01*
X1493589D01*
Y3302943D01*
X1491556D01*
Y3307011D01*
X1489522D01*
Y3311078D01*
X1487487D01*
Y3315147D01*
X1485453D01*
Y3317181D01*
X1483419D01*
Y3321248D01*
X1481386D01*
Y3325316D01*
X1479352D01*
Y3329385D01*
X1477318D01*
Y3331418D01*
X1475284D01*
Y3335486D01*
X1473250D01*
Y3331418D01*
X1471216D01*
Y3327350D01*
X1469182D01*
Y3321248D01*
X1467148D01*
Y3317181D01*
X1465114D01*
Y3311078D01*
X1463080D01*
Y3307011D01*
X1461046D01*
Y3300909D01*
X1459012D01*
Y3296841D01*
X1456978D01*
Y3290739D01*
X1454944D01*
Y3286671D01*
X1452910D01*
Y3280569D01*
X1450876D01*
Y3276501D01*
X1448842D01*
Y3270399D01*
X1446808D01*
Y3266331D01*
X1444774D01*
Y3260229D01*
X1442740D01*
Y3256161D01*
X1440706D01*
Y3250059D01*
X1438672D01*
Y3245991D01*
X1436638D01*
Y3239889D01*
X1434604D01*
Y3235821D01*
X1432570D01*
Y3229719D01*
X1430536D01*
Y3225651D01*
X1428502D01*
Y3219549D01*
X1426468D01*
Y3215481D01*
X1424434D01*
Y3209379D01*
X1422400D01*
Y3205311D01*
X1420366D01*
Y3199210D01*
X1418332D01*
Y3195141D01*
X1416298D01*
Y3189040D01*
X1414264D01*
Y3184972D01*
X1412230D01*
Y3178869D01*
X1410196D01*
Y3174802D01*
X1408162D01*
Y3168700D01*
X1406128D01*
Y3164632D01*
X1404094D01*
Y3158530D01*
X1402060D01*
Y3154462D01*
X1400026D01*
Y3148360D01*
X1397992D01*
Y3144292D01*
X1395958D01*
Y3138190D01*
X1393924D01*
Y3134122D01*
X1391890D01*
Y3128020D01*
X1389856D01*
Y3123952D01*
X1387822D01*
Y3119884D01*
X1385788D01*
Y3117850D01*
X1383754D01*
Y3115816D01*
X1379686D01*
Y3113782D01*
X1367482D01*
Y3115816D01*
X1363414D01*
Y3117850D01*
X1361381D01*
Y3119884D01*
X1359347D01*
Y3123952D01*
X1357312D01*
Y3130054D01*
X1355278D01*
Y3136156D01*
X1353244D01*
Y3142258D01*
X1351211D01*
Y3150394D01*
X1349177D01*
Y3156496D01*
X1347143D01*
Y3162598D01*
X1345109D01*
Y3168700D01*
X1343075D01*
Y3176836D01*
X1341041D01*
Y3182937D01*
X1339007D01*
Y3189040D01*
X1336973D01*
Y3195141D01*
X1334939D01*
Y3203277D01*
X1332905D01*
Y3209379D01*
X1330871D01*
Y3215481D01*
X1328837D01*
Y3221583D01*
X1326803D01*
Y3229719D01*
X1324769D01*
Y3235821D01*
X1322735D01*
Y3241923D01*
X1320701D01*
Y3248025D01*
X1318667D01*
Y3256161D01*
X1316633D01*
Y3262263D01*
X1314599D01*
Y3268365D01*
X1312565D01*
Y3274467D01*
X1310531D01*
Y3282603D01*
X1308497D01*
Y3288705D01*
X1306463D01*
Y3294807D01*
X1304429D01*
Y3300909D01*
X1302395D01*
Y3296841D01*
X1300361D01*
Y3294807D01*
X1298327D01*
Y3290739D01*
X1296293D01*
Y3286671D01*
X1294259D01*
Y3284637D01*
X1292225D01*
Y3280569D01*
X1290191D01*
Y3276501D01*
X1288157D01*
Y3274467D01*
X1286123D01*
Y3270399D01*
X1284089D01*
Y3266331D01*
X1282055D01*
Y3264297D01*
X1280021D01*
Y3260229D01*
X1277987D01*
Y3256161D01*
X1275953D01*
Y3254127D01*
X1273919D01*
Y3250059D01*
X1271885D01*
Y3248025D01*
X1269851D01*
Y3245991D01*
X1265783D01*
Y3243957D01*
X1145778D01*
Y3276501D01*
X1251545D01*
Y3280569D01*
X1253579D01*
Y3284637D01*
X1255613D01*
Y3286671D01*
X1257647D01*
Y3290739D01*
X1259681D01*
Y3294807D01*
X1261715D01*
Y3296841D01*
X1263749D01*
Y3300909D01*
X1265783D01*
Y3304977D01*
X1267817D01*
Y3307011D01*
X1269851D01*
Y3311078D01*
X1271885D01*
Y3315147D01*
X1273919D01*
Y3317181D01*
X1275953D01*
Y3321248D01*
X1277987D01*
Y3325316D01*
X1280021D01*
Y3327350D01*
X1282055D01*
Y3331418D01*
X1284089D01*
Y3335486D01*
X1286123D01*
Y3337520D01*
X1288157D01*
Y3341588D01*
X1290191D01*
Y3345656D01*
X1292225D01*
Y3347690D01*
X1294259D01*
Y3349724D01*
Y3351758D01*
X1296293D01*
Y3353792D01*
X1298327D01*
Y3355826D01*
X1302395D01*
Y3357860D01*
X1314599D01*
Y3355826D01*
X1318667D01*
Y3353792D01*
X1320701D01*
Y3351758D01*
X1322735D01*
Y3347690D01*
X1324769D01*
Y3341588D01*
X1326803D01*
Y3335486D01*
X1328837D01*
Y3329385D01*
X1330871D01*
Y3321248D01*
X1332905D01*
Y3315147D01*
X1334939D01*
Y3309044D01*
X1336973D01*
Y3302943D01*
X1339007D01*
Y3294807D01*
X1341041D01*
Y3288705D01*
X1343075D01*
Y3282603D01*
X1345109D01*
Y3276501D01*
X1347143D01*
Y3268365D01*
X1349177D01*
Y3262263D01*
X1351211D01*
Y3256161D01*
X1353244D01*
Y3250059D01*
X1355278D01*
Y3241923D01*
X1357312D01*
Y3235821D01*
X1359347D01*
Y3229719D01*
X1361381D01*
Y3223617D01*
X1363414D01*
Y3215481D01*
X1365448D01*
Y3209379D01*
X1367482D01*
Y3203277D01*
X1369516D01*
Y3197175D01*
X1371550D01*
Y3189040D01*
X1373584D01*
Y3182937D01*
X1377652D01*
Y3187006D01*
X1379686D01*
Y3193107D01*
X1381720D01*
Y3197175D01*
X1383754D01*
Y3203277D01*
X1385788D01*
Y3207345D01*
X1387822D01*
Y3213447D01*
X1389856D01*
Y3217515D01*
X1391890D01*
Y3223617D01*
X1393924D01*
Y3227685D01*
X1395958D01*
Y3233787D01*
X1397992D01*
Y3237855D01*
X1400026D01*
Y3243957D01*
X1402060D01*
Y3248025D01*
X1404094D01*
Y3254127D01*
X1406128D01*
Y3258195D01*
X1408162D01*
Y3264297D01*
X1410196D01*
Y3268365D01*
X1412230D01*
Y3274467D01*
X1414264D01*
Y3278535D01*
X1416298D01*
Y3284637D01*
X1418332D01*
Y3288705D01*
X1420366D01*
Y3294807D01*
X1422400D01*
Y3298875D01*
X1424434D01*
Y3304977D01*
X1426468D01*
Y3309044D01*
X1428502D01*
Y3315147D01*
X1430536D01*
Y3319215D01*
X1432570D01*
Y3325316D01*
X1434604D01*
Y3329385D01*
X1436638D01*
Y3335486D01*
X1438672D01*
Y3339554D01*
X1440706D01*
Y3345656D01*
X1442740D01*
Y3349724D01*
X1444774D01*
Y3355826D01*
X1446808D01*
Y3359894D01*
X1448842D01*
Y3365996D01*
X1450876D01*
Y3370064D01*
X1452910D01*
Y3376166D01*
X1454944D01*
Y3380234D01*
X1456978D01*
Y3384302D01*
X1459012D01*
Y3386336D01*
X1461046D01*
Y3388370D01*
X1465114D01*
Y3390404D01*
X1477318D01*
Y3388370D01*
X1481386D01*
Y3386336D01*
X1483419D01*
Y3384302D01*
X1485453D01*
Y3380234D01*
X1487487D01*
Y3378200D01*
X1489522D01*
Y3374132D01*
X1491556D01*
Y3370064D01*
X1493589D01*
Y3365996D01*
X1495623D01*
Y3363962D01*
X1497657D01*
Y3359894D01*
X1499691D01*
Y3355826D01*
X1501725D01*
Y3351758D01*
X1503759D01*
Y3349724D01*
X1505793D01*
Y3345656D01*
X1507827D01*
Y3341588D01*
X1509861D01*
Y3337520D01*
X1511895D01*
Y3335486D01*
X1513929D01*
Y3331418D01*
X1515963D01*
Y3327350D01*
X1517997D01*
Y3323282D01*
X1520031D01*
Y3321248D01*
X1522065D01*
Y3317181D01*
X1524099D01*
Y3313112D01*
X1526133D01*
Y3309044D01*
X1528167D01*
Y3307011D01*
X1530201D01*
Y3302943D01*
X1532235D01*
Y3298875D01*
X1534269D01*
Y3294807D01*
X1536303D01*
Y3292773D01*
X1538337D01*
Y3288705D01*
X1540371D01*
Y3284637D01*
X1542405D01*
Y3280569D01*
X1544439D01*
Y3278535D01*
X1546473D01*
Y3276501D01*
X1674614D01*
Y3278535D01*
X1676648D01*
Y3286671D01*
X1678682D01*
Y3298875D01*
X1680716D01*
Y3315147D01*
X1682750D01*
Y3353792D01*
X1680716D01*
Y3365996D01*
X1678682D01*
Y3374132D01*
X1676648D01*
Y3382268D01*
X1674614D01*
Y3386336D01*
X1672580D01*
Y3392438D01*
X1670546D01*
Y3396506D01*
X1668512D01*
Y3400574D01*
X1666478D01*
Y3404642D01*
X1664444D01*
Y3408710D01*
X1662410D01*
Y3412778D01*
X1660376D01*
Y3414812D01*
X1658342D01*
Y3418880D01*
X1656308D01*
Y3420914D01*
X1654274D01*
Y3424982D01*
X1652240D01*
Y3427016D01*
X1650206D01*
Y3429050D01*
X1648172D01*
Y3433118D01*
X1646138D01*
Y3435152D01*
X1644104D01*
Y3437186D01*
X1642070D01*
Y3439219D01*
X1640036D01*
Y3443288D01*
X1638002D01*
Y3445322D01*
X1635968D01*
Y3447356D01*
X1633934D01*
Y3449390D01*
X1631900D01*
Y3451423D01*
X1627832D01*
Y3453457D01*
X1625798D01*
Y3455491D01*
X1623764D01*
Y3457525D01*
X1621731D01*
Y3459560D01*
X1619697D01*
Y3461593D01*
X1615628D01*
Y3463627D01*
X1613594D01*
Y3465661D01*
X1609527D01*
Y3467695D01*
X1605459D01*
Y3469729D01*
X1603425D01*
Y3471763D01*
X1599357D01*
Y3473797D01*
X1595289D01*
Y3475831D01*
X1591221D01*
Y3477865D01*
X1585119D01*
Y3479899D01*
X1579017D01*
Y3481933D01*
X1572915D01*
Y3483967D01*
X1562745D01*
Y3486001D01*
X1550541D01*
Y3488035D01*
D02*
G37*
G36*
X1835299Y3276501D02*
X1823095D01*
Y3274467D01*
X1819027D01*
Y3272433D01*
X1816993D01*
Y3270399D01*
X1814959D01*
Y3266331D01*
X1812925D01*
Y3254127D01*
X1814959D01*
Y3250059D01*
X1816993D01*
Y3248025D01*
X1819027D01*
Y3245991D01*
X1823095D01*
Y3243957D01*
X1835299D01*
Y3245991D01*
X1839367D01*
Y3248025D01*
X1841401D01*
Y3250059D01*
X1843435D01*
Y3254127D01*
X1845469D01*
Y3266331D01*
X1843435D01*
Y3270399D01*
X1841401D01*
Y3272433D01*
X1839367D01*
Y3274467D01*
X1835299D01*
Y3276501D01*
D02*
G37*
G36*
X1202730Y2898180D02*
X1176288D01*
Y2896146D01*
X1160016D01*
Y2894112D01*
X1149846D01*
Y2892078D01*
X1141710D01*
Y2890044D01*
X1135608D01*
Y2888010D01*
X1129506D01*
Y2885976D01*
X1123404D01*
Y2883942D01*
X1119336D01*
Y2881908D01*
X1115268D01*
Y2879874D01*
X1111200D01*
Y2877840D01*
X1107132D01*
Y2875806D01*
X1103064D01*
Y2873772D01*
X1098997D01*
Y2871738D01*
X1096963D01*
Y2869704D01*
X1092894D01*
Y2867670D01*
X1090861D01*
Y2865636D01*
X1086793D01*
Y2863602D01*
X1084759D01*
Y2861568D01*
X1080691D01*
Y2859534D01*
X1078657D01*
Y2849364D01*
X1080691D01*
Y2839194D01*
X1086793D01*
Y2841228D01*
X1088827D01*
Y2843262D01*
X1092894D01*
Y2845296D01*
X1094928D01*
Y2847330D01*
X1098997D01*
Y2849364D01*
X1101031D01*
Y2851398D01*
X1105098D01*
Y2853432D01*
X1107132D01*
Y2855466D01*
X1111200D01*
Y2857500D01*
X1115268D01*
Y2859534D01*
X1119336D01*
Y2861568D01*
X1123404D01*
Y2863602D01*
X1127472D01*
Y2865636D01*
X1131540D01*
Y2867670D01*
X1135608D01*
Y2869704D01*
X1141710D01*
Y2871738D01*
X1145778D01*
Y2873772D01*
X1151880D01*
Y2875806D01*
X1157982D01*
Y2877840D01*
X1166118D01*
Y2879874D01*
X1174254D01*
Y2881908D01*
X1186458D01*
Y2883942D01*
X1208832D01*
Y2885976D01*
X1225103D01*
Y2883942D01*
X1247477D01*
Y2881908D01*
X1259681D01*
Y2879874D01*
X1263749D01*
Y2881908D01*
X1259681D01*
Y2883942D01*
X1255613D01*
Y2885976D01*
X1249511D01*
Y2888010D01*
X1243409D01*
Y2890044D01*
X1237307D01*
Y2892078D01*
X1229172D01*
Y2894112D01*
X1219002D01*
Y2896146D01*
X1202730D01*
Y2898180D01*
D02*
G37*
%LPD*%
D46*
X7526100Y5257800D02*
G03*
X7516100Y5257800I-5000J0D01*
G01*
D02*
G03*
X7526100Y5257800I5000J0D01*
G01*
X2845402Y6220599D02*
G03*
X2855402Y6220599I5000J0D01*
G01*
D02*
G03*
X2845402Y6220599I-5000J0D01*
G01*
X5812500Y3211400D02*
G03*
X5802500Y3211400I-5000J0D01*
G01*
D02*
G03*
X5812500Y3211400I5000J0D01*
G01*
X5825698Y4131102D02*
Y4581098D01*
X5375702D02*
X5825698D01*
X5375702Y4131102D02*
Y4581098D01*
Y4131102D02*
X5825698D01*
X2022902Y5007402D02*
Y5457398D01*
X2472898D01*
Y5007402D02*
Y5457398D01*
X2022902Y5007402D02*
X2472898D01*
X4761200Y3048599D02*
X5351201D01*
Y2598598D02*
Y3048599D01*
X4761200Y2598598D02*
X5351201D01*
X4761200D02*
Y3048599D01*
X2484501Y1225199D02*
X2934498D01*
X2484501D02*
Y1675201D01*
X2934498D01*
Y1225199D02*
Y1675201D01*
X4664502Y1210102D02*
X5114498D01*
X4664502D02*
Y1660098D01*
X5114498D01*
Y1210102D02*
Y1660098D01*
X3572302Y1222797D02*
X4022303D01*
X3572302D02*
Y1672798D01*
X4022303D01*
Y1222797D02*
Y1672798D01*
X6502502Y1571401D02*
Y2103399D01*
X5602498Y1571401D02*
X6502502D01*
X5602498D02*
Y3011399D01*
D47*
X6015995Y5992300D02*
G03*
X6015995Y5992300I-12500J0D01*
G01*
X6895600Y4062000D02*
G03*
X6895600Y4062000I-12500J0D01*
G01*
D48*
X6580200Y4292600D02*
G03*
X6570200Y4292600I-5000J0D01*
G01*
D02*
G03*
X6580200Y4292600I5000J0D01*
G01*
D02*
G03*
X6570200Y4292600I-5000J0D01*
G01*
X6431900Y3505200D02*
G03*
X6431900Y3505200I-5000J0D01*
G01*
X6927200D02*
G03*
X6927200Y3505200I-5000J0D01*
G01*
X6567500Y4508500D02*
G03*
X6557500Y4508500I-5000J0D01*
G01*
D02*
G03*
X6567500Y4508500I5000J0D01*
G01*
D02*
G03*
X6557500Y4508500I-5000J0D01*
G01*
X6580200Y4064000D02*
G03*
X6570200Y4064000I-5000J0D01*
G01*
D02*
G03*
X6580200Y4064000I5000J0D01*
G01*
D02*
G03*
X6570200Y4064000I-5000J0D01*
G01*
X6587300Y3797300D02*
G03*
X6577300Y3797300I-5000J0D01*
G01*
D02*
G03*
X6587300Y3797300I5000J0D01*
G01*
D02*
G03*
X6577300Y3797300I-5000J0D01*
G01*
X6100700Y4516100D02*
G03*
X6080700Y4516100I-10000J0D01*
G01*
D02*
G03*
X6100700Y4516100I10000J0D01*
G01*
X3017400Y3911600D02*
G03*
X3017400Y3911600I-5000J0D01*
G01*
X2036300Y4368800D02*
G03*
X2036300Y4368800I-5000J0D01*
G01*
X2407900Y4752400D02*
G03*
X2407900Y4732400I0J-10000D01*
G01*
D02*
G03*
X2407900Y4752400I0J10000D01*
G01*
X5416200Y2768600D02*
G03*
X5416200Y2788600I0J10000D01*
G01*
D02*
G03*
X5416200Y2768600I0J-10000D01*
G01*
X3189499Y1610203D02*
G03*
X3209499Y1610203I10000J0D01*
G01*
D02*
G03*
X3189499Y1610203I-10000J0D01*
G01*
X5369500Y1595100D02*
G03*
X5389500Y1595100I10000J0D01*
G01*
D02*
G03*
X5369500Y1595100I-10000J0D01*
G01*
X4277300Y1607800D02*
G03*
X4297300Y1607800I10000J0D01*
G01*
D02*
G03*
X4277300Y1607800I-10000J0D01*
G01*
X2164700Y4368800D02*
G03*
X2164700Y4368800I-5000J0D01*
G01*
X7306102Y5377800D02*
Y5497800D01*
X6166099D02*
X7306102D01*
X6166099Y5377800D02*
Y5497800D01*
Y5017800D02*
Y5137800D01*
Y5017800D02*
X7306102D01*
Y5137800D01*
X7603099Y4838502D02*
X7675601D01*
X7183100D02*
X7308098D01*
X7675601Y3924498D02*
Y4838502D01*
X7603099Y3924498D02*
X7675601D01*
X7183100D02*
X7308098D01*
X1196203Y6156498D02*
X2096201D01*
X1196203D02*
Y6506500D01*
X2246203D01*
Y6286500D02*
Y6506500D01*
X2518197Y2602403D02*
Y2782402D01*
X2505700Y2827401D02*
X3155696D01*
Y3177403D01*
X2505700D02*
X3155696D01*
X2505700Y2827401D02*
Y3177403D01*
X2945399Y4419600D02*
Y4494601D01*
Y4419600D02*
X3065399D01*
X4625401D02*
X4745401D01*
Y4494601D01*
Y6294598D02*
Y6969597D01*
X2945399D02*
X4745401D01*
X2945399Y6294598D02*
Y6969597D01*
X1069299Y3483803D02*
Y5483804D01*
X429301Y3483803D02*
X1069299D01*
X429301D02*
Y5733801D01*
X749300D01*
X5315803Y6232698D02*
X6215802D01*
X5315803D02*
Y6582700D01*
X6365804D01*
Y6362700D02*
Y6582700D01*
X3726302Y2885699D02*
Y3235701D01*
X4376298D01*
Y2885699D02*
Y3235701D01*
X3726302Y2885699D02*
X4376298D01*
X3738799Y2660701D02*
Y2840700D01*
D49*
X1625608Y6045183D02*
X1600217Y6070575D01*
X1549433D01*
X1524041Y6045183D01*
Y6019792D01*
X1549433Y5994400D01*
X1600217D01*
X1625608Y5969008D01*
Y5943617D01*
X1600217Y5918225D01*
X1549433D01*
X1524041Y5943617D01*
X1676392Y6070575D02*
Y5918225D01*
X1752567D01*
X1777959Y5943617D01*
Y6045183D01*
X1752567Y6070575D01*
X1676392D01*
X4453403Y1793117D02*
Y1945467D01*
X4529578D01*
X4554970Y1920075D01*
Y1869292D01*
X4529578Y1843900D01*
X4453403D01*
X4504186D02*
X4554970Y1793117D01*
X4605754D02*
X4656537D01*
X4631145D01*
Y1894684D01*
X4605754D01*
X4783496Y1742333D02*
X4808888D01*
X4834280Y1767725D01*
Y1894684D01*
X4758104D01*
X4732712Y1869292D01*
Y1818508D01*
X4758104Y1793117D01*
X4834280D01*
X4885063Y1945467D02*
Y1793117D01*
Y1869292D01*
X4910455Y1894684D01*
X4961238D01*
X4986630Y1869292D01*
Y1793117D01*
X5062806Y1920075D02*
Y1894684D01*
X5037414D01*
X5088197D01*
X5062806D01*
Y1818508D01*
X5088197Y1793117D01*
X6972341Y3314692D02*
Y3213125D01*
Y3263908D01*
X6997733Y3289300D01*
X7023125Y3314692D01*
X7048517D01*
X7124692Y3238517D02*
X7150084Y3213125D01*
X7200867D01*
X7226259Y3238517D01*
Y3340083D01*
X7200867Y3365475D01*
X7150084D01*
X7124692Y3340083D01*
Y3314692D01*
X7150084Y3289300D01*
X7226259D01*
X6070641Y3517892D02*
Y3416325D01*
Y3467108D01*
X6096033Y3492500D01*
X6121425Y3517892D01*
X6146817D01*
X6222992Y3543283D02*
X6248384Y3568675D01*
X6299167D01*
X6324559Y3543283D01*
Y3517892D01*
X6299167Y3492500D01*
X6324559Y3467108D01*
Y3441717D01*
X6299167Y3416325D01*
X6248384D01*
X6222992Y3441717D01*
Y3467108D01*
X6248384Y3492500D01*
X6222992Y3517892D01*
Y3543283D01*
X6248384Y3492500D02*
X6299167D01*
X2552741Y4686292D02*
Y4584725D01*
Y4635508D01*
X2578133Y4660900D01*
X2603525Y4686292D01*
X2628917D01*
X2705092Y4737075D02*
X2806659D01*
Y4711683D01*
X2705092Y4610117D01*
Y4584725D01*
X1638341Y4737092D02*
Y4635525D01*
Y4686308D01*
X1663733Y4711700D01*
X1689125Y4737092D01*
X1714517D01*
X1892259Y4787875D02*
X1841475Y4762483D01*
X1790692Y4711700D01*
Y4660917D01*
X1816084Y4635525D01*
X1866867D01*
X1892259Y4660917D01*
Y4686308D01*
X1866867Y4711700D01*
X1790692D01*
X2682942Y4203692D02*
Y4102125D01*
Y4152908D01*
X2708333Y4178300D01*
X2733725Y4203692D01*
X2759117D01*
X2936860Y4254475D02*
X2835292D01*
Y4178300D01*
X2886076Y4203692D01*
X2911468D01*
X2936860Y4178300D01*
Y4127517D01*
X2911468Y4102125D01*
X2860684D01*
X2835292Y4127517D01*
X4749911Y2197125D02*
Y2349475D01*
X4826086D01*
X4851478Y2324083D01*
Y2273300D01*
X4826086Y2247908D01*
X4749911D01*
X4927654Y2197125D02*
X4978437D01*
X5003829Y2222517D01*
Y2273300D01*
X4978437Y2298692D01*
X4927654D01*
X4902262Y2273300D01*
Y2222517D01*
X4927654Y2197125D01*
X5054612Y2298692D02*
Y2222517D01*
X5080004Y2197125D01*
X5105396Y2222517D01*
X5130788Y2197125D01*
X5156180Y2222517D01*
Y2298692D01*
X5283139Y2197125D02*
X5232355D01*
X5206963Y2222517D01*
Y2273300D01*
X5232355Y2298692D01*
X5283139D01*
X5308530Y2273300D01*
Y2247908D01*
X5206963D01*
X5359314Y2298692D02*
Y2197125D01*
Y2247908D01*
X5384706Y2273300D01*
X5410097Y2298692D01*
X5435489D01*
X4737203Y3327375D02*
X4686419D01*
X4661028Y3301983D01*
Y3200417D01*
X4686419Y3175025D01*
X4737203D01*
X4762595Y3200417D01*
Y3301983D01*
X4737203Y3327375D01*
X4813378Y3175025D02*
Y3276592D01*
X4889554D01*
X4914945Y3251200D01*
Y3175025D01*
X4965729D02*
X5067296Y3276592D01*
X5194255Y3327375D02*
X5143472D01*
X5118080Y3301983D01*
Y3200417D01*
X5143472Y3175025D01*
X5194255D01*
X5219647Y3200417D01*
Y3301983D01*
X5194255Y3327375D01*
X5295822Y3175025D02*
Y3301983D01*
Y3251200D01*
X5270430D01*
X5321214D01*
X5295822D01*
Y3301983D01*
X5321214Y3327375D01*
X5422781Y3175025D02*
Y3301983D01*
Y3251200D01*
X5397389D01*
X5448173D01*
X5422781D01*
Y3301983D01*
X5448173Y3327375D01*
X2514678Y1917675D02*
Y1765325D01*
X2616245D01*
X2743204D02*
X2692421D01*
X2667029Y1790717D01*
Y1841500D01*
X2692421Y1866892D01*
X2743204D01*
X2768596Y1841500D01*
Y1816108D01*
X2667029D01*
X2844772Y1765325D02*
Y1892283D01*
Y1841500D01*
X2819380D01*
X2870163D01*
X2844772D01*
Y1892283D01*
X2870163Y1917675D01*
X2971730Y1892283D02*
Y1866892D01*
X2946339D01*
X2997122D01*
X2971730D01*
Y1790717D01*
X2997122Y1765325D01*
X6743700Y4902175D02*
X6692917D01*
X6718308D01*
Y4775217D01*
X6692917Y4749825D01*
X6667525D01*
X6642133Y4775217D01*
X6794484Y4749825D02*
X6845267D01*
X6819876D01*
Y4902175D01*
X6794484Y4876783D01*
X2489262Y6642075D02*
X2540045D01*
X2514654D01*
Y6489725D01*
X2489262D01*
X2540045D01*
X2717788Y6616683D02*
X2692396Y6642075D01*
X2641612D01*
X2616221Y6616683D01*
Y6515117D01*
X2641612Y6489725D01*
X2692396D01*
X2717788Y6515117D01*
X2870139Y6489725D02*
X2768571D01*
X2870139Y6591292D01*
Y6616683D01*
X2844747Y6642075D01*
X2793963D01*
X2768571Y6616683D01*
X3577074Y1945475D02*
X3475507D01*
Y1793125D01*
X3577074D01*
X3475507Y1869300D02*
X3526290D01*
X3627858Y1793125D02*
Y1894692D01*
X3704033D01*
X3729425Y1869300D01*
Y1793125D01*
X3805600Y1920084D02*
Y1894692D01*
X3780208D01*
X3830992D01*
X3805600D01*
Y1818517D01*
X3830992Y1793125D01*
X3983343D02*
X3932559D01*
X3907167Y1818517D01*
Y1869300D01*
X3932559Y1894692D01*
X3983343D01*
X4008734Y1869300D01*
Y1843908D01*
X3907167D01*
X4059518Y1894692D02*
Y1793125D01*
Y1843908D01*
X4084910Y1869300D01*
X4110301Y1894692D01*
X4135693D01*
X2286008Y5981675D02*
X2184441D01*
Y5829325D01*
X2286008D01*
X2184441Y5905500D02*
X2235225D01*
X2336792Y5829325D02*
Y5981675D01*
X2438359Y5829325D01*
Y5981675D01*
X5380038Y6781775D02*
X5278470D01*
Y6629425D01*
X5380038D01*
X5278470Y6705600D02*
X5329254D01*
X5532388Y6756383D02*
X5506996Y6781775D01*
X5456213D01*
X5430821Y6756383D01*
Y6654817D01*
X5456213Y6629425D01*
X5506996D01*
X5532388Y6654817D01*
X5684739Y6756383D02*
X5659347Y6781775D01*
X5608564D01*
X5583172Y6756383D01*
Y6654817D01*
X5608564Y6629425D01*
X5659347D01*
X5684739Y6654817D01*
Y6705600D01*
X5633955D01*
X1143066Y5181575D02*
X1244633D01*
X1193849D01*
Y5029225D01*
X1396984Y5181575D02*
X1295417D01*
Y5105400D01*
X1346200D01*
X1295417D01*
Y5029225D01*
X1447767Y5181575D02*
X1549334D01*
X1498551D01*
Y5029225D01*
X6268241Y3911575D02*
Y3759225D01*
X6344417D01*
X6369808Y3784617D01*
Y3886183D01*
X6344417Y3911575D01*
X6268241D01*
X6496767Y3759225D02*
Y3911575D01*
X6420592Y3835400D01*
X6522159D01*
X6273841Y4140175D02*
Y3987825D01*
X6350017D01*
X6375408Y4013217D01*
Y4114783D01*
X6350017Y4140175D01*
X6273841D01*
X6426192Y4114783D02*
X6451584Y4140175D01*
X6502367D01*
X6527759Y4114783D01*
Y4089392D01*
X6502367Y4064000D01*
X6476975D01*
X6502367D01*
X6527759Y4038608D01*
Y4013217D01*
X6502367Y3987825D01*
X6451584D01*
X6426192Y4013217D01*
X6280940Y4394175D02*
Y4241825D01*
X6357115D01*
X6382507Y4267217D01*
Y4368783D01*
X6357115Y4394175D01*
X6280940D01*
X6534858Y4241825D02*
X6433290D01*
X6534858Y4343392D01*
Y4368783D01*
X6509466Y4394175D01*
X6458682D01*
X6433290Y4368783D01*
X6273833Y4610075D02*
Y4457725D01*
X6350008D01*
X6375400Y4483117D01*
Y4584683D01*
X6350008Y4610075D01*
X6273833D01*
X6426184Y4457725D02*
X6476967D01*
X6451576D01*
Y4610075D01*
X6426184Y4584683D01*
X4678647Y4218907D02*
X4602472D01*
X4577080Y4193515D01*
Y4142732D01*
X4602472Y4117340D01*
X4678647D01*
X4830998D02*
X4729431D01*
X4830998Y4218907D01*
Y4244299D01*
X4805606Y4269691D01*
X4754823D01*
X4729431Y4244299D01*
X4881781D02*
X4907173Y4269691D01*
X4957957D01*
X4983349Y4244299D01*
Y4142732D01*
X4957957Y4117340D01*
X4907173D01*
X4881781Y4142732D01*
Y4244299D01*
X3083527Y1056607D02*
X3007352D01*
X2981960Y1031215D01*
Y980432D01*
X3007352Y955040D01*
X3083527D01*
X3134311D02*
X3185094D01*
X3159703D01*
Y1107391D01*
X3134311Y1081999D01*
X3261270Y980432D02*
X3286661Y955040D01*
X3337445D01*
X3362837Y980432D01*
Y1081999D01*
X3337445Y1107391D01*
X3286661D01*
X3261270Y1081999D01*
Y1056607D01*
X3286661Y1031215D01*
X3362837D01*
X4386547Y1056607D02*
X4310372D01*
X4284980Y1031215D01*
Y980432D01*
X4310372Y955040D01*
X4386547D01*
X4437331D02*
X4488114D01*
X4462723D01*
Y1107391D01*
X4437331Y1081999D01*
X4564290D02*
X4589681Y1107391D01*
X4640465D01*
X4665857Y1081999D01*
Y1056607D01*
X4640465Y1031215D01*
X4665857Y1005823D01*
Y980432D01*
X4640465Y955040D01*
X4589681D01*
X4564290Y980432D01*
Y1005823D01*
X4589681Y1031215D01*
X4564290Y1056607D01*
Y1081999D01*
X4589681Y1031215D02*
X4640465D01*
X3742729Y1041392D02*
X3666554D01*
X3641162Y1016000D01*
Y965217D01*
X3666554Y939825D01*
X3742729D01*
X3793513D02*
X3844296D01*
X3818904D01*
Y1092175D01*
X3793513Y1066783D01*
X3920471Y1092175D02*
X4022039D01*
Y1066783D01*
X3920471Y965217D01*
Y939825D01*
X1549429Y5702292D02*
X1473254D01*
X1447862Y5676900D01*
Y5626117D01*
X1473254Y5600725D01*
X1549429D01*
X1600212D02*
X1650996D01*
X1625604D01*
Y5753075D01*
X1600212Y5727683D01*
X1828739Y5753075D02*
X1777955Y5727683D01*
X1727171Y5676900D01*
Y5626117D01*
X1752563Y5600725D01*
X1803347D01*
X1828739Y5626117D01*
Y5651508D01*
X1803347Y5676900D01*
X1727171D01*
X3039129Y2400292D02*
X2962954D01*
X2937562Y2374900D01*
Y2324117D01*
X2962954Y2298725D01*
X3039129D01*
X3089913D02*
X3140696D01*
X3115304D01*
Y2451075D01*
X3089913Y2425683D01*
X3318439Y2451075D02*
X3216871D01*
Y2374900D01*
X3267655Y2400292D01*
X3293047D01*
X3318439Y2374900D01*
Y2324117D01*
X3293047Y2298725D01*
X3242263D01*
X3216871Y2324117D01*
X2489167Y2415507D02*
X2412992D01*
X2387600Y2390115D01*
Y2339332D01*
X2412992Y2313940D01*
X2489167D01*
X2539951D02*
X2590734D01*
X2565343D01*
Y2466291D01*
X2539951Y2440899D01*
X2743085Y2313940D02*
Y2466291D01*
X2666910Y2390115D01*
X2768477D01*
X4074127Y2479007D02*
X3997952D01*
X3972560Y2453615D01*
Y2402832D01*
X3997952Y2377440D01*
X4074127D01*
X4124911D02*
X4175694D01*
X4150303D01*
Y2529791D01*
X4124911Y2504399D01*
X4251870D02*
X4277261Y2529791D01*
X4328045D01*
X4353437Y2504399D01*
Y2479007D01*
X4328045Y2453615D01*
X4302653D01*
X4328045D01*
X4353437Y2428223D01*
Y2402832D01*
X4328045Y2377440D01*
X4277261D01*
X4251870Y2402832D01*
X3314729Y3327392D02*
X3238554D01*
X3213162Y3302000D01*
Y3251217D01*
X3238554Y3225825D01*
X3314729D01*
X3365512D02*
X3416296D01*
X3390904D01*
Y3378175D01*
X3365512Y3352783D01*
X3594039Y3225825D02*
X3492471D01*
X3594039Y3327392D01*
Y3352783D01*
X3568647Y3378175D01*
X3517863D01*
X3492471Y3352783D01*
X3644867Y2453607D02*
X3568692D01*
X3543300Y2428215D01*
Y2377432D01*
X3568692Y2352040D01*
X3644867D01*
X3695651D02*
X3746434D01*
X3721043D01*
Y2504391D01*
X3695651Y2478999D01*
X3822610Y2352040D02*
X3873393D01*
X3848001D01*
Y2504391D01*
X3822610Y2478999D01*
X4156729Y4203692D02*
X4080553D01*
X4055162Y4178300D01*
Y4127517D01*
X4080553Y4102125D01*
X4156729D01*
X4207512D02*
X4258296D01*
X4232904D01*
Y4254475D01*
X4207512Y4229083D01*
X4334471D02*
X4359863Y4254475D01*
X4410647D01*
X4436038Y4229083D01*
Y4127517D01*
X4410647Y4102125D01*
X4359863D01*
X4334471Y4127517D01*
Y4229083D01*
X3700747Y4180807D02*
X3624572D01*
X3599180Y4155415D01*
Y4104632D01*
X3624572Y4079240D01*
X3700747D01*
X3751531Y4104632D02*
X3776923Y4079240D01*
X3827706D01*
X3853098Y4104632D01*
Y4206199D01*
X3827706Y4231591D01*
X3776923D01*
X3751531Y4206199D01*
Y4180807D01*
X3776923Y4155415D01*
X3853098D01*
X3251208Y4178292D02*
X3175033D01*
X3149641Y4152900D01*
Y4102117D01*
X3175033Y4076725D01*
X3251208D01*
X3301992Y4203683D02*
X3327384Y4229075D01*
X3378167D01*
X3403559Y4203683D01*
Y4178292D01*
X3378167Y4152900D01*
X3403559Y4127508D01*
Y4102117D01*
X3378167Y4076725D01*
X3327384D01*
X3301992Y4102117D01*
Y4127508D01*
X3327384Y4152900D01*
X3301992Y4178292D01*
Y4203683D01*
X3327384Y4152900D02*
X3378167D01*
X5422982Y4025875D02*
Y3873525D01*
X5499158D01*
X5524550Y3898917D01*
Y3924308D01*
X5499158Y3949700D01*
X5422982D01*
X5499158D01*
X5524550Y3975092D01*
Y4000483D01*
X5499158Y4025875D01*
X5422982D01*
X5600725Y3873525D02*
X5651508D01*
X5676900Y3898917D01*
Y3949700D01*
X5651508Y3975092D01*
X5600725D01*
X5575333Y3949700D01*
Y3898917D01*
X5600725Y3873525D01*
X5753076D02*
X5803859D01*
X5829251Y3898917D01*
Y3949700D01*
X5803859Y3975092D01*
X5753076D01*
X5727684Y3949700D01*
Y3898917D01*
X5753076Y3873525D01*
X5905426Y4000483D02*
Y3975092D01*
X5880034D01*
X5930818D01*
X5905426D01*
Y3898917D01*
X5930818Y3873525D01*
X5143475Y5194460D02*
X5041908D01*
X4991125Y5245244D01*
X5041908Y5296028D01*
X5143475D01*
X5067300D01*
Y5194460D01*
X4991125Y5346811D02*
X5143475D01*
Y5422986D01*
X5118083Y5448378D01*
X5016517D01*
X4991125Y5422986D01*
Y5346811D01*
X5016517Y5600729D02*
X4991125Y5575337D01*
Y5524554D01*
X5016517Y5499162D01*
X5041908D01*
X5067300Y5524554D01*
Y5575337D01*
X5092692Y5600729D01*
X5118083D01*
X5143475Y5575337D01*
Y5524554D01*
X5118083Y5499162D01*
X5143475Y5651512D02*
Y5702296D01*
Y5676904D01*
X4991125D01*
X5016517Y5651512D01*
X5143475Y5880039D02*
Y5778471D01*
X5041908Y5880039D01*
X5016517D01*
X4991125Y5854647D01*
Y5803863D01*
X5016517Y5778471D01*
X5118083Y5930822D02*
X5143475Y5956214D01*
Y6006997D01*
X5118083Y6032389D01*
X5016517D01*
X4991125Y6006997D01*
Y5956214D01*
X5016517Y5930822D01*
X5041908D01*
X5067300Y5956214D01*
Y6032389D01*
X5016517Y6083173D02*
X4991125Y6108565D01*
Y6159348D01*
X5016517Y6184740D01*
X5041908D01*
X5067300Y6159348D01*
Y6133956D01*
Y6159348D01*
X5092692Y6184740D01*
X5118083D01*
X5143475Y6159348D01*
Y6108565D01*
X5118083Y6083173D01*
X3746607Y3670267D02*
X3645040D01*
Y3594092D01*
X3695823Y3619484D01*
X3721215D01*
X3746607Y3594092D01*
Y3543308D01*
X3721215Y3517917D01*
X3670432D01*
X3645040Y3543308D01*
X3797390Y3619484D02*
X3848174Y3517917D01*
X3898958Y3619484D01*
X4102092Y3517917D02*
Y3670267D01*
X4178267D01*
X4203659Y3644875D01*
Y3594092D01*
X4178267Y3568700D01*
X4102092D01*
X4152875D02*
X4203659Y3517917D01*
X4330618D02*
X4279834D01*
X4254443Y3543308D01*
Y3594092D01*
X4279834Y3619484D01*
X4330618D01*
X4356010Y3594092D01*
Y3568700D01*
X4254443D01*
X4457577Y3467133D02*
X4482969D01*
X4508361Y3492525D01*
Y3619484D01*
X4432185D01*
X4406793Y3594092D01*
Y3543308D01*
X4432185Y3517917D01*
X4508361D01*
X6215561Y5676925D02*
Y5829275D01*
X6139385Y5753100D01*
X6240952D01*
X6291736Y5676925D02*
Y5702317D01*
X6317128D01*
Y5676925D01*
X6291736D01*
X6418695Y5803883D02*
X6444087Y5829275D01*
X6494870D01*
X6520262Y5803883D01*
Y5702317D01*
X6494870Y5676925D01*
X6444087D01*
X6418695Y5702317D01*
Y5803883D01*
X6571046Y5702317D02*
X6596437Y5676925D01*
X6647221D01*
X6672613Y5702317D01*
Y5803883D01*
X6647221Y5829275D01*
X6596437D01*
X6571046Y5803883D01*
Y5778492D01*
X6596437Y5753100D01*
X6672613D01*
X6824963Y5829275D02*
X6774180Y5803883D01*
X6723396Y5753100D01*
Y5702317D01*
X6748788Y5676925D01*
X6799572D01*
X6824963Y5702317D01*
Y5727708D01*
X6799572Y5753100D01*
X6723396D01*
X6875747Y5676925D02*
Y5829275D01*
X6926530Y5778492D01*
X6977314Y5829275D01*
Y5676925D01*
X7028098Y5829275D02*
Y5676925D01*
Y5753100D01*
X7129665D01*
Y5829275D01*
Y5676925D01*
X7180448Y5778492D02*
X7282016D01*
X7180448Y5676925D01*
X7282016D01*
X2259383Y3688177D02*
X2284775Y3713569D01*
X2335558D01*
X2360950Y3688177D01*
Y3662786D01*
X2335558Y3637394D01*
X2310166D01*
X2335558D01*
X2360950Y3612002D01*
Y3586610D01*
X2335558Y3561218D01*
X2284775D01*
X2259383Y3586610D01*
X2411734Y3561218D02*
Y3586610D01*
X2437125D01*
Y3561218D01*
X2411734D01*
X2538692Y3688177D02*
X2564084Y3713569D01*
X2614868D01*
X2640260Y3688177D01*
Y3662786D01*
X2614868Y3637394D01*
X2589476D01*
X2614868D01*
X2640260Y3612002D01*
Y3586610D01*
X2614868Y3561218D01*
X2564084D01*
X2538692Y3586610D01*
X2691043Y3662786D02*
X2741827Y3561218D01*
X2792610Y3662786D01*
X2995745Y3561218D02*
Y3713569D01*
X3071920D01*
X3097312Y3688177D01*
Y3637394D01*
X3071920Y3612002D01*
X2995745D01*
X3046528D02*
X3097312Y3561218D01*
X3224271D02*
X3173487D01*
X3148095Y3586610D01*
Y3637394D01*
X3173487Y3662786D01*
X3224271D01*
X3249663Y3637394D01*
Y3612002D01*
X3148095D01*
X3351230Y3510435D02*
X3376621D01*
X3402013Y3535827D01*
Y3662786D01*
X3325838D01*
X3300446Y3637394D01*
Y3586610D01*
X3325838Y3561218D01*
X3402013D01*
%TF.MD5,e781fb5b8b759b536e307fd1ff518c47*%
M02*
