%TF.GenerationSoftware,Altium Limited,Altium Designer,24.10.1 (45)*%
G04 Layer_Physical_Order=1*
G04 Layer_Color=255*
%FSLAX45Y45*%
%MOMM*%
%TF.SameCoordinates,5161A517-D4F4-47BB-AA9F-3B40E8EE5112*%
%TF.FilePolarity,Positive*%
%TF.FileFunction,Copper,L1,Top,Signal*%
%TF.Part,Single*%
G01*
G75*
%TA.AperFunction,SMDPad,CuDef*%
%ADD10R,0.30000X0.80000*%
%ADD11R,0.80000X0.30000*%
%ADD12R,3.75000X3.75000*%
%ADD13R,5.50000X2.00000*%
%ADD14R,1.15000X0.60000*%
%ADD15R,1.15000X0.30000*%
%ADD16R,0.35000X0.60000*%
%ADD17R,1.47000X1.02000*%
%ADD18R,1.02000X1.47000*%
%ADD19R,3.20000X1.80000*%
%ADD20R,0.95000X1.80000*%
%ADD21R,1.15000X1.25000*%
%ADD22R,1.60000X1.40000*%
%TA.AperFunction,ConnectorPad*%
%ADD23R,1.50000X0.90000*%
%ADD24R,0.90000X1.50000*%
%TA.AperFunction,BGAPad,CuDef*%
%ADD25R,0.90000X0.90000*%
%TA.AperFunction,SMDPad,CuDef*%
%ADD26R,1.40000X1.60000*%
%TA.AperFunction,Conductor*%
%ADD27C,0.25400*%
%ADD28C,0.38100*%
%ADD29C,0.30480*%
%ADD30C,1.01600*%
%ADD31C,0.63500*%
%ADD32C,0.50800*%
%ADD33C,0.66040*%
%TA.AperFunction,ViaPad*%
%ADD34C,2.54000*%
%TA.AperFunction,ComponentPad*%
G04:AMPARAMS|DCode=35|XSize=1mm|YSize=2.2mm|CornerRadius=0.5mm|HoleSize=0mm|Usage=FLASHONLY|Rotation=90.000|XOffset=0mm|YOffset=0mm|HoleType=Round|Shape=RoundedRectangle|*
%AMROUNDEDRECTD35*
21,1,1.00000,1.20000,0,0,90.0*
21,1,0.00000,2.20000,0,0,90.0*
1,1,1.00000,0.60000,0.00000*
1,1,1.00000,0.60000,0.00000*
1,1,1.00000,-0.60000,0.00000*
1,1,1.00000,-0.60000,0.00000*
%
%ADD35ROUNDEDRECTD35*%
G04:AMPARAMS|DCode=36|XSize=1mm|YSize=1.8mm|CornerRadius=0.5mm|HoleSize=0mm|Usage=FLASHONLY|Rotation=90.000|XOffset=0mm|YOffset=0mm|HoleType=Round|Shape=RoundedRectangle|*
%AMROUNDEDRECTD36*
21,1,1.00000,0.80000,0,0,90.0*
21,1,0.00000,1.80000,0,0,90.0*
1,1,1.00000,0.40000,0.00000*
1,1,1.00000,0.40000,0.00000*
1,1,1.00000,-0.40000,0.00000*
1,1,1.00000,-0.40000,0.00000*
%
%ADD36ROUNDEDRECTD36*%
%ADD37R,1.10000X1.10000*%
%ADD38C,1.10000*%
%ADD39R,1.20000X1.20000*%
%ADD40C,1.20000*%
%ADD41C,1.30000*%
%ADD42C,5.46000*%
%ADD43C,4.74000*%
%TA.AperFunction,ViaPad*%
%ADD44C,0.60960*%
%ADD45C,1.27000*%
D10*
X5928497Y5952297D02*
D03*
X5878500D02*
D03*
X5828497D02*
D03*
X5778500D02*
D03*
X5728498D02*
D03*
X5678495D02*
D03*
X5628498D02*
D03*
Y5452298D02*
D03*
X5678495D02*
D03*
X5728498D02*
D03*
X5778500D02*
D03*
X5828497D02*
D03*
X5878500D02*
D03*
X5928497D02*
D03*
D11*
X5528498Y5852297D02*
D03*
Y5802300D02*
D03*
Y5752297D02*
D03*
Y5702300D02*
D03*
Y5652298D02*
D03*
Y5602300D02*
D03*
Y5552298D02*
D03*
X6028497D02*
D03*
Y5602300D02*
D03*
Y5652298D02*
D03*
Y5702300D02*
D03*
Y5752297D02*
D03*
Y5802300D02*
D03*
Y5852297D02*
D03*
D12*
X5778500Y5702300D02*
D03*
D13*
X6261100Y5257800D02*
D03*
X7211101D02*
D03*
D14*
X6998101Y4701499D02*
D03*
Y4061501D02*
D03*
Y4141500D02*
D03*
Y4621500D02*
D03*
D15*
Y4556501D02*
D03*
Y4506498D02*
D03*
Y4456501D02*
D03*
Y4406499D02*
D03*
Y4356501D02*
D03*
Y4306499D02*
D03*
Y4256502D02*
D03*
Y4206499D02*
D03*
D16*
X6647700Y4292600D02*
D03*
X6712699D02*
D03*
X6700002Y4508500D02*
D03*
X6634998D02*
D03*
X6712702Y4064000D02*
D03*
X6647698D02*
D03*
X6719799Y3797300D02*
D03*
X6654800D02*
D03*
D17*
X3390900Y2888000D02*
D03*
Y3048000D02*
D03*
D18*
X1558300Y5422900D02*
D03*
X1718300D02*
D03*
X4149100Y2209800D02*
D03*
X4309100D02*
D03*
X3670300Y2184400D02*
D03*
X3830300D02*
D03*
X3208000Y2171700D02*
D03*
X3048000D02*
D03*
X2725400Y2146300D02*
D03*
X2565400D02*
D03*
X4127500Y3949700D02*
D03*
X4287500D02*
D03*
X3158500Y787400D02*
D03*
X3318500D02*
D03*
X3209300Y3911600D02*
D03*
X3369300D02*
D03*
X3915400Y800100D02*
D03*
X3755400D02*
D03*
X4779000Y3949700D02*
D03*
X4619000D02*
D03*
X4486900Y787400D02*
D03*
X4326900D02*
D03*
X3641100Y3911600D02*
D03*
X3801100D02*
D03*
D19*
X2830698Y3312404D02*
D03*
X4051300Y3370702D02*
D03*
D20*
X3060700Y2692400D02*
D03*
X2830698D02*
D03*
X2600696D02*
D03*
X3821298Y2750698D02*
D03*
X4051300D02*
D03*
X4281302D02*
D03*
D21*
X6746900Y3505200D02*
D03*
X6511900D02*
D03*
X7242200D02*
D03*
X7007200D02*
D03*
X2692400Y3911600D02*
D03*
X2927401D02*
D03*
X1946300Y4368800D02*
D03*
X1711300D02*
D03*
X2244700D02*
D03*
X2479700D02*
D03*
D22*
X5240701Y4206098D02*
D03*
X5960699D02*
D03*
X5240701Y4506102D02*
D03*
X5960699D02*
D03*
X3069499Y1600200D02*
D03*
X2349500D02*
D03*
X3069499Y1300201D02*
D03*
X2349500D02*
D03*
X5249499Y1585102D02*
D03*
X4529501D02*
D03*
X5249499Y1285098D02*
D03*
X4529501D02*
D03*
X4157299Y1597797D02*
D03*
X3437301D02*
D03*
X4157299Y1297798D02*
D03*
X3437301D02*
D03*
D23*
X2970398Y6220597D02*
D03*
Y6093597D02*
D03*
Y5966597D02*
D03*
Y5839597D02*
D03*
Y5712597D02*
D03*
Y5585597D02*
D03*
Y5458597D02*
D03*
Y5331597D02*
D03*
Y5204597D02*
D03*
Y5077597D02*
D03*
Y4950597D02*
D03*
Y4823597D02*
D03*
Y4696597D02*
D03*
Y4569597D02*
D03*
X4720402D02*
D03*
Y4696597D02*
D03*
Y4823597D02*
D03*
Y4950597D02*
D03*
Y5077597D02*
D03*
Y5204597D02*
D03*
Y5331597D02*
D03*
Y5458597D02*
D03*
Y5585597D02*
D03*
Y5712597D02*
D03*
Y5839597D02*
D03*
Y5966597D02*
D03*
Y6093597D02*
D03*
Y6220597D02*
D03*
D24*
X3146903Y4444599D02*
D03*
X3273903D02*
D03*
X3400903D02*
D03*
X3527903D02*
D03*
X3654903D02*
D03*
X3781903D02*
D03*
X3908903D02*
D03*
X4035903D02*
D03*
X4162903D02*
D03*
X4289903D02*
D03*
X4416903D02*
D03*
X4543903D02*
D03*
D25*
X3695400Y5448600D02*
D03*
Y5588599D02*
D03*
X3555401D02*
D03*
Y5448600D02*
D03*
Y5308600D02*
D03*
X3695400D02*
D03*
X3835400D02*
D03*
Y5448600D02*
D03*
Y5588599D02*
D03*
D26*
X2397902Y4872401D02*
D03*
Y5592399D02*
D03*
X2097898Y4872401D02*
D03*
Y5592399D02*
D03*
D27*
X5448161Y5652298D02*
X5528498D01*
X5367823D02*
X5448161D01*
X5448300Y5652437D01*
Y5687421D01*
X5463179Y5702300D01*
X5528498D01*
X4486900Y809900D02*
X4525200Y848200D01*
X4984598Y1285098D02*
X5249499D01*
X4525200Y848200D02*
X4547700D01*
X4984598Y1285098D01*
X6998101Y4406499D02*
X6998302Y4406699D01*
X7175299D02*
X7175500Y4406900D01*
X6998302Y4406699D02*
X7175299D01*
X7137216Y4318000D02*
X7236821D01*
X7251700Y4332879D01*
X7096415Y4358801D02*
X7137216Y4318000D01*
X7251700Y4332879D02*
Y4480921D01*
X7137216Y4495800D02*
X7236821D01*
X7095617Y4454201D02*
X7137216Y4495800D01*
X7236821D02*
X7251700Y4480921D01*
X5356323Y5727700D02*
X5381321Y5752699D01*
X5346700Y5727700D02*
X5356323D01*
X5381321Y5752699D02*
X5528097D01*
X5270500Y5943784D02*
X5411984Y5802300D01*
X5270500Y5943784D02*
Y6032500D01*
X2944005Y3592576D02*
X3113208D01*
X2463800Y3721100D02*
X2815481D01*
X2944005Y3592576D01*
X2463800Y4584700D02*
X2819400D01*
X2374900Y4495800D02*
X2463800Y4584700D01*
X3781903Y4340703D02*
Y4444599D01*
X3748093Y4306893D02*
X3781903Y4340703D01*
X2681109Y4306893D02*
X3748093D01*
X2575712Y4201496D02*
X2681109Y4306893D01*
X2705100Y4232177D02*
Y4241800D01*
X6104907Y5804600D02*
X6111458Y5811151D01*
X6030797Y5804600D02*
X6104907D01*
X6081964Y5749812D02*
X6083616Y5748159D01*
X6034715Y5749997D02*
X6067836D01*
X6068022Y5749812D02*
X6081964D01*
X6067836Y5749997D02*
X6068022Y5749812D01*
X6083616Y5748159D02*
X6253341D01*
X6031953Y5752759D02*
X6034715Y5749997D01*
X6253341Y5748159D02*
X6311900Y5689600D01*
X6028605Y5652406D02*
X6030905Y5650106D01*
X6160894D01*
X6375400Y5435600D01*
X6028499Y5602298D02*
X6083067D01*
X6028497Y5602300D02*
X6028499Y5602298D01*
X5234000Y5602300D02*
X5528498D01*
X5161376Y5529676D02*
X5234000Y5602300D01*
X5161376Y5476908D02*
Y5529676D01*
X4954445Y5652298D02*
X5160408D01*
X5161134Y5653024D01*
X5367097D01*
X4874397Y4823597D02*
X4914900Y4864100D01*
X4720402Y4823597D02*
X4874397D01*
X4914900Y4864100D02*
X4991100D01*
X5031603Y4823597D01*
X5150773D01*
X3654903Y4444599D02*
X3657600Y4447296D01*
Y4622800D01*
X2972801Y5588000D02*
X3314700D01*
X2781300Y5969000D02*
X2967995D01*
X2970398Y5966597D01*
X2933700Y3733800D02*
X3029712Y3637788D01*
X2933700Y3733800D02*
Y3905301D01*
X3029712Y3637788D02*
X3762609D01*
X2927401Y3911600D02*
X2933700Y3905301D01*
X2600696Y2692400D02*
X2602421Y2694125D01*
X6743700Y5283200D02*
X7185701D01*
X7211101Y5257800D01*
X6324600Y5562600D02*
X6578600D01*
X6028497Y5477703D02*
Y5552298D01*
Y5477703D02*
X6032500Y5473700D01*
Y5448300D02*
Y5473700D01*
X6187200Y5700000D02*
X6324600Y5562600D01*
X6028497Y5702300D02*
X6030797Y5700000D01*
X6187200D01*
X6028497Y5802300D02*
X6030797Y5804600D01*
X4229100Y5181600D02*
Y5308600D01*
X5367097Y5653024D02*
X5367823Y5652298D01*
X4445000Y5397500D02*
Y6273800D01*
Y5397500D02*
X4457700Y5384800D01*
X4445000Y6273800D02*
X4586971Y6415771D01*
X5027113D01*
X5528498Y5914386D01*
Y5852297D02*
Y5914386D01*
X4936485Y5670258D02*
X4954445Y5652298D01*
X4936485Y5670258D02*
Y5671093D01*
X4902200Y5705377D02*
X4936485Y5671093D01*
X4902200Y5705377D02*
Y5715000D01*
X4720402Y5204597D02*
X5517836D01*
X5678495Y5365256D01*
X5150773Y4823597D02*
X5486561Y5159385D01*
X5087713Y4696597D02*
X5505289Y5114173D01*
X5810574Y5284613D02*
Y5302574D01*
X5728498Y5351319D02*
Y5452298D01*
X5536564Y5159385D02*
X5728498Y5351319D01*
X5810574Y5302574D02*
X5828497Y5320497D01*
X5678495Y5365256D02*
Y5452298D01*
X5764201Y5233999D02*
Y5238240D01*
X5810574Y5284613D01*
X5555291Y5114173D02*
X5778500Y5337382D01*
X5505289Y5114173D02*
X5555291D01*
X5778500Y5337382D02*
Y5452298D01*
X5486561Y5159385D02*
X5536564D01*
X5628498Y5379198D02*
Y5452298D01*
X5557900Y5308600D02*
X5628498Y5379198D01*
X5461000Y5308600D02*
X5557900D01*
X5828497Y5320497D02*
Y5452298D01*
X4720402Y4696597D02*
X5087713D01*
X3002698Y4728897D02*
X3094516D01*
X3344019Y4978400D01*
X4089400D01*
X2970398Y4696597D02*
X3002698Y4728897D01*
X6792871Y4191000D02*
X6895380Y4293509D01*
X6705600Y4191000D02*
X6792871D01*
X2940398Y4569597D02*
X2970398D01*
X2908098Y4444798D02*
Y4537297D01*
X2940398Y4569597D01*
X2857500Y4394200D02*
X2908098Y4444798D01*
X6715499Y4300320D02*
Y4365999D01*
Y4295401D02*
Y4300320D01*
X6717499Y4302320D01*
X6172200Y4483100D02*
X6235700D01*
X6604000Y4851400D01*
X6715499Y4365999D02*
X6718300Y4368800D01*
X6712699Y4292600D02*
X6715499Y4295401D01*
X4140200Y5092700D02*
X4229100Y5181600D01*
X3635321Y5092700D02*
X4140200D01*
X2970398Y5331597D02*
X3396424D01*
X3635321Y5092700D01*
X6719799Y3797300D02*
X6781800D01*
X7175500Y4076700D02*
X7200900D01*
X7110700Y4141500D02*
X7175500Y4076700D01*
X6998101Y4141500D02*
X7110700D01*
X4710105Y4940300D02*
X4720402Y4950597D01*
X4546600Y4940300D02*
X4710105D01*
X5879300Y5245900D02*
Y5451498D01*
X5878500Y5452298D02*
X5879300Y5451498D01*
Y5245900D02*
X5880100Y5245100D01*
X4486900Y809900D02*
Y1131720D01*
Y787400D02*
Y809900D01*
X2970398Y5585597D02*
X2972801Y5588000D01*
X3987800Y1963275D02*
Y2044700D01*
X4269811Y1348808D02*
Y1681264D01*
Y1348808D02*
X4486900Y1131720D01*
X3987800Y1963275D02*
X4269811Y1681264D01*
X7225438Y4556501D02*
X7228237Y4559300D01*
X6998101Y4556501D02*
X7225438D01*
X7228237Y4559300D02*
X7429500D01*
X6740723Y4498777D02*
X6833001Y4406499D01*
X6992402Y4615800D02*
X6998101Y4621500D01*
X6889100Y4615800D02*
X6992402D01*
X6883400Y4610100D02*
X6889100Y4615800D01*
X7280177Y4229100D02*
X7289800D01*
X7112000Y3615000D02*
Y3657600D01*
X7124700Y3670300D01*
X7007200Y3505200D02*
Y3510200D01*
X7112000Y3615000D01*
X3086100Y2717800D02*
Y2933700D01*
X3060700Y2692400D02*
X3086100Y2717800D01*
X2921000Y2159000D02*
X2930623D01*
X2943323Y2171700D01*
X3048000D01*
X3060700Y2527300D02*
Y2692400D01*
X2960101Y5702300D02*
X2970398Y5712597D01*
X2616200Y5702300D02*
X2960101D01*
X2120900Y4622800D02*
X2244700Y4499000D01*
Y4373800D02*
Y4499000D01*
X3113208Y3592576D02*
X3631692Y3074092D01*
Y2551393D02*
Y3074092D01*
X3574288Y2493989D02*
X3631692Y2551393D01*
X4089999Y1355098D02*
Y1455578D01*
X3574288Y1971289D02*
X4089999Y1455578D01*
Y1355098D02*
X4147299Y1297798D01*
X3574288Y1971289D02*
Y2493989D01*
X4147299Y1297798D02*
X4157299D01*
X2821601Y5422900D02*
X2857298Y5458597D01*
X2970398D01*
X2819400Y5422900D02*
X2821601D01*
X2374900Y1982940D02*
Y4495800D01*
Y1982940D02*
X2693969Y1663870D01*
X2695829D02*
X3059499Y1300201D01*
X3069499D01*
X2693969Y1663870D02*
X2695829D01*
X3762609Y3637788D02*
X3797300Y3672479D01*
Y3907800D01*
X2692400Y3916600D02*
Y4219477D01*
X3933479Y3949700D02*
X4127500D01*
X3865567Y4017612D02*
X3933479Y3949700D01*
X2867434Y4017612D02*
X3865567D01*
X2737200Y3961400D02*
X2811222D01*
X2867434Y4017612D01*
X2692400Y3916600D02*
X2737200Y3961400D01*
X2692400Y3911600D02*
Y3916600D01*
X3069499Y1300201D02*
X3079499D01*
X6998101Y4256502D02*
X7252776D01*
X7280177Y4229100D01*
X6915692Y4304199D02*
X6995801D01*
X6905003Y4293509D02*
X6915692Y4304199D01*
X6895380Y4293509D02*
X6905003D01*
X6995801Y4304199D02*
X6998101Y4306499D01*
X6753420Y4302320D02*
X6807601Y4356501D01*
X6717499Y4302320D02*
X6753420D01*
X6807601Y4356501D02*
X6998101D01*
X7000401Y4358801D01*
Y4454201D02*
X7095617D01*
X7000401Y4358801D02*
X7096415D01*
X6998101Y4456501D02*
X7000401Y4454201D01*
X6717502Y4081300D02*
X6776402Y4140200D01*
X6712702Y4064000D02*
X6717502Y4068800D01*
X6776402Y4140200D02*
X6883400D01*
X6717502Y4068800D02*
Y4081300D01*
X6884050Y4140850D02*
X6997451D01*
X6883400Y4140200D02*
X6884050Y4140850D01*
X6997451D02*
X6998101Y4141500D01*
X5956300Y4201698D02*
X5960699Y4206098D01*
X5956300Y3964579D02*
Y4201698D01*
X4779000Y3949700D02*
X5941421D01*
X5956300Y3964579D01*
X3797300Y3907800D02*
X3801100Y3911600D01*
X3830300Y2184400D02*
X3843000Y2197100D01*
X2199900Y4418600D02*
X2244700Y4373800D01*
X2117700Y4495800D02*
X2194900Y4418600D01*
X2244700Y4368800D02*
Y4373800D01*
X2194900Y4418600D02*
X2199900D01*
X1838300Y4495800D02*
X2117700D01*
X1761100Y4418600D02*
X1838300Y4495800D01*
X1711300Y4368800D02*
Y4373800D01*
X1756100Y4418600D01*
X1761100D01*
X3390900Y4454601D02*
Y4635500D01*
Y4454601D02*
X3400903Y4444599D01*
X749300Y4483801D02*
X1207201D01*
X1231900Y4508500D01*
X4279900Y2752100D02*
X4281302Y2750698D01*
X4279900Y2752100D02*
Y3035300D01*
X4281302Y2750698D02*
X4314200Y2717800D01*
X4495800D01*
X4158796Y2406196D02*
X4196896D01*
X4149100Y2396500D02*
X4158796Y2406196D01*
X4196896D02*
X4203700Y2413000D01*
X4149100Y2209800D02*
Y2396500D01*
X3035300Y2159000D02*
X3048000Y2171700D01*
X3020421Y1841500D02*
X3035300Y1856379D01*
X2580279Y1841500D02*
X3020421D01*
X3035300Y1856379D02*
Y2159000D01*
X2565400Y1856379D02*
X2580279Y1841500D01*
X2565400Y1856379D02*
Y2146300D01*
X3318500Y787400D02*
Y1061199D01*
X3079499Y1300201D02*
X3318500Y1061199D01*
X6146800Y3797300D02*
X6654800D01*
X4428198Y2827998D02*
X4533900Y2933700D01*
X4281302Y2750698D02*
Y2793198D01*
X4316102Y2827998D01*
X4428198D01*
X3821298Y2193402D02*
X3830300Y2184400D01*
X5528097Y5752699D02*
X5528498Y5752297D01*
X5411984Y5802300D02*
X5528498D01*
X2692400Y4219477D02*
X2705100Y4232177D01*
X1125596Y4233804D02*
X1130300Y4229100D01*
X2438400Y3911600D02*
X2575712Y4048912D01*
Y4201496D01*
X2960101Y5829300D02*
X2970398Y5839597D01*
X2730500Y5829300D02*
X2960101D01*
X2146300Y5118100D02*
X2400909D01*
X749300Y3983802D02*
X1598021D01*
X1612900Y3898900D02*
Y3968923D01*
X1598021Y3983802D02*
X1612900Y3968923D01*
X749300Y4233804D02*
X1125596D01*
X4165600Y4229100D02*
Y4441901D01*
X4162903Y4444599D02*
X4165600Y4441901D01*
X749300Y4733803D02*
X750948Y4735452D01*
X1230252D01*
X1231900Y4737100D01*
X2400909Y5118100D02*
X2663111Y4855897D01*
X2938098D01*
X2970398Y4823597D01*
X749300Y4983800D02*
X767400Y4965700D01*
X1333500D01*
X2097898Y5582399D02*
Y5592399D01*
Y5582399D02*
X2247900Y5432397D01*
Y5283200D02*
Y5432397D01*
X4720402Y4569597D02*
X4746700D01*
X4779000Y3949700D02*
Y4537297D01*
X4746700Y4569597D02*
X4779000Y4537297D01*
X508000Y3975100D02*
Y5242504D01*
Y3975100D02*
X749300Y3733800D01*
X508000Y5242504D02*
X749300Y5483804D01*
X1892300Y5613400D02*
X2076897D01*
X2095500Y5594797D01*
X1558300Y5609600D02*
X1562100Y5613400D01*
X1558300Y5422900D02*
Y5609600D01*
X6182900Y5981700D02*
X6388100D01*
X6053497Y5852297D02*
X6182900Y5981700D01*
X6028497Y5852297D02*
X6053497D01*
X5465801Y6187079D02*
Y6362700D01*
Y6187079D02*
X5480680Y6172200D01*
X5626100D02*
X5676195Y6122105D01*
X5480680Y6172200D02*
X5626100D01*
X5676195Y5954597D02*
Y6122105D01*
X5928497Y5952297D02*
Y6075396D01*
X6215802Y6362700D01*
X5878500Y5952297D02*
Y6175395D01*
X6065804Y6362700D01*
X5828497Y6275395D02*
X5915802Y6362700D01*
X5828497Y5952297D02*
Y6275395D01*
X5615803Y6362700D02*
X5728498Y6250005D01*
Y5957098D02*
Y6250005D01*
X5727700Y5956300D02*
X5728498Y5957098D01*
X5727700Y5956300D02*
X5728498Y5955502D01*
Y5952297D02*
Y5955502D01*
X5778500Y5952297D02*
Y6350000D01*
X5676195Y5954597D02*
X5678495Y5952297D01*
X6700002Y4503577D02*
Y4508500D01*
Y4503577D02*
X6704802Y4498777D01*
X6740723D01*
X6833001Y4406499D02*
X6998101D01*
X749300Y3733800D02*
X1143000D01*
X2927401Y3911600D02*
X3209300D01*
X2095500Y5594797D02*
Y5791200D01*
X2096201Y6286500D02*
X2680038D01*
X2694917Y6108476D02*
X2709796Y6093597D01*
X2970398D01*
X2694917Y6108476D02*
Y6271621D01*
X2680038Y6286500D02*
X2694917Y6271621D01*
X3915400Y822600D02*
X4157299Y1064499D01*
X3915400Y800100D02*
Y822600D01*
X4157299Y1064499D02*
Y1297798D01*
D28*
X2832100Y3313806D02*
Y3468444D01*
X2870200Y3506544D02*
Y3530600D01*
X2832100Y3468444D02*
X2870200Y3506544D01*
X5392744Y5548438D02*
X5524500D01*
X5320325Y5500075D02*
X5344381D01*
X5392744Y5548438D01*
X7251700Y4965700D02*
X7429500D01*
X7077920D02*
X7251700D01*
X3275251Y4773851D02*
X3276600Y4775200D01*
X3273903Y4772503D02*
X3275251Y4773851D01*
X3110738Y6338062D02*
X3111500Y6337300D01*
X2593716Y6338062D02*
X3110738D01*
X2543678Y6388100D02*
X2593716Y6338062D01*
X2032842Y6388100D02*
X2543678D01*
X4035903Y4444599D02*
X4037251Y4445947D01*
Y4646851D01*
X4038600Y4648200D01*
X4309100Y2209800D02*
X4470400D01*
X3273903Y4444599D02*
Y4772503D01*
X7118987Y3784600D02*
X7264400D01*
X7055602Y3847985D02*
X7118987Y3784600D01*
X7264400D02*
X7391400D01*
X6746900Y3500200D02*
X6807200Y3439900D01*
X6845300Y3086100D02*
X7010400D01*
X6807200Y3124200D02*
X6845300Y3086100D01*
X6807200Y3124200D02*
Y3439900D01*
X7010400Y3086100D02*
X7242200Y3317900D01*
Y3505200D01*
X6032500Y2311400D02*
X6117501D01*
X6417500Y2611399D02*
X6502502D01*
X3543300Y3911600D02*
X3641100D01*
X3378200Y3746500D02*
X3543300Y3911600D01*
X3369300D02*
X3373750Y3907150D01*
Y3750950D02*
Y3907150D01*
Y3750950D02*
X3378200Y3746500D01*
X6852559Y4061501D02*
X6998101D01*
X6786197Y3995138D02*
X6852559Y4061501D01*
X6649248Y4024995D02*
X6679105Y3995138D01*
X6786197D01*
X6649248Y4024995D02*
Y4062450D01*
X6647698Y4064000D02*
X6649248Y4062450D01*
X6511900Y3505200D02*
Y3510200D01*
X6684700Y3683000D01*
X6896100D01*
X3670300Y2032000D02*
Y2184400D01*
X5399898Y4506102D02*
X5600700Y4305300D01*
Y4292600D02*
Y4305300D01*
X5240701Y4506102D02*
X5399898D01*
X2730500Y2151400D02*
Y2301782D01*
X2752818Y2324100D02*
X3190782D01*
X2730500Y2301782D02*
X2752818Y2324100D01*
X2725400Y2146300D02*
X2730500Y2151400D01*
X3190782Y2324100D02*
X3213100Y2301782D01*
X4051300Y2750698D02*
Y3370702D01*
Y3543300D01*
X3213100Y2176800D02*
Y2301782D01*
X3208000Y2171700D02*
X3213100Y2176800D01*
X3429000Y1599496D02*
Y1928200D01*
X3208000Y2149200D02*
X3429000Y1928200D01*
X3427301Y1597797D02*
X3429000Y1599496D01*
X3208000Y2149200D02*
Y2171700D01*
X4309100Y1795503D02*
Y2209800D01*
Y1795503D02*
X4519501Y1585102D01*
X4529501D01*
X4720402Y6220597D02*
X4735505Y6235700D01*
X4940300D01*
X3908903Y4444599D02*
X3910251Y4445947D01*
Y4723051D01*
X3911600Y4724400D01*
X3835400Y5588599D02*
X3987201D01*
X3987800Y5588000D01*
X1839102Y6629400D02*
X2184400D01*
X1496202Y6286500D02*
X1839102Y6629400D01*
X3529251Y4672251D02*
X3530600Y4673600D01*
X3527903Y4444599D02*
X3529251Y4445947D01*
Y4672251D01*
X1946204Y6286500D02*
Y6301462D01*
X2032842Y6388100D01*
X2479700Y4181500D02*
Y4368800D01*
X2476500Y4178300D02*
X2479700Y4181500D01*
X1397000Y5232400D02*
X1550300D01*
X1718300Y5400400D01*
Y5422900D01*
X2970398Y6220597D02*
X3203402D01*
X3835400Y5588599D01*
X3695400Y5308600D02*
X3835400D01*
X3555401D02*
X3695400D01*
X3555401Y5448600D02*
Y5588599D01*
Y5308600D02*
Y5448600D01*
X3835400D02*
Y5588599D01*
X3695400Y5448600D02*
X3835400D01*
X3555401D02*
X3695400D01*
X3555401Y5588599D02*
X3695400D01*
X6515100Y4241800D02*
X6606300D01*
X6532110Y4179588D02*
Y4224790D01*
X6636748Y4074950D02*
X6646148D01*
X6647698Y4073400D01*
X6532110Y4179588D02*
X6636748Y4074950D01*
X6647698Y4064000D02*
Y4073400D01*
X5765800Y6362700D02*
X5778500Y6350000D01*
X6880901Y4701499D02*
X6998101D01*
X6819900Y4762500D02*
X6880901Y4701499D01*
X7429500Y4965700D02*
X7455601Y4939599D01*
Y4813498D02*
Y4939599D01*
X7055602Y4813498D02*
Y4943382D01*
X7077920Y4965700D01*
X7455601Y3848801D02*
Y3949502D01*
X7391400Y3784600D02*
X7455601Y3848801D01*
X7055602Y3847985D02*
Y3949502D01*
X6515100Y4241800D02*
X6532110Y4224790D01*
X6647700Y4292600D02*
Y4302000D01*
X6634998Y4314702D02*
Y4508500D01*
Y4314702D02*
X6647700Y4302000D01*
X6606300Y4241800D02*
X6646150Y4281650D01*
X2397902Y4688698D02*
X2400300Y4686300D01*
X2397902Y4688698D02*
Y4872401D01*
X2830698Y3312404D02*
X2832100Y3313806D01*
X4620900Y3773800D02*
Y3947800D01*
X4619000Y3949700D02*
X4620900Y3947800D01*
Y3773800D02*
X4622800Y3771900D01*
X4283700Y3945900D02*
X4287500Y3949700D01*
X4279900Y3759200D02*
X4283700Y3763000D01*
Y3945900D01*
X3750950Y795650D02*
X3755400Y800100D01*
X3750950Y614050D02*
Y795650D01*
X3746500Y609600D02*
X3750950Y614050D01*
X3390900Y2717800D02*
Y2888000D01*
X4318000Y647700D02*
X4326900Y656600D01*
Y787400D01*
X3145800Y800100D02*
X3158500Y787400D01*
X3009900Y800100D02*
X3145800D01*
D29*
X6083067Y5602298D02*
X6103549Y5581817D01*
X6601200Y5092700D02*
X6667500D01*
X6436100Y5257800D02*
X6601200Y5092700D01*
X6261100Y5257800D02*
X6436100D01*
X6103549Y5342560D02*
Y5581817D01*
Y5342560D02*
X6188309Y5257800D01*
X6261100D01*
D30*
X2831399Y2464501D02*
Y2691699D01*
Y2464501D02*
X2832100Y2463800D01*
X2830698Y2692400D02*
X2831399Y2691699D01*
X2311400Y1821927D02*
Y1828800D01*
Y1821927D02*
X2349500Y1783827D01*
Y1600200D02*
Y1783827D01*
X3427301Y1597797D02*
X3437301D01*
X2725600Y1986100D02*
Y2146100D01*
X2725400Y2146300D02*
X2725600Y2146100D01*
Y1986100D02*
X2730500Y1981200D01*
D31*
X1955800Y2209800D02*
Y4359300D01*
X1946300Y4368800D02*
X1955800Y4359300D01*
X3821298Y2559745D02*
X4747346D01*
X4956200Y2768600D01*
X3821298Y2559745D02*
Y2750698D01*
Y2193402D02*
Y2559745D01*
X5156200Y2768600D02*
X5298999Y2911399D01*
X6032500D01*
X6117501Y2311400D02*
X6417500Y2611399D01*
X6502502Y3255801D02*
X6746900Y3500200D01*
X3843000Y2197100D02*
X4000500D01*
D32*
X2602421Y2805621D02*
X2844800Y3048000D01*
X3390900D01*
X2602421Y2694125D02*
Y2805621D01*
X3390900Y3048000D02*
X3568700D01*
D33*
X6502502Y2611399D02*
Y3255801D01*
D34*
X901700Y6121400D02*
D03*
X3848100Y330200D02*
D03*
X6794500Y6096000D02*
D03*
D35*
X7455601Y3949502D02*
D03*
Y4813498D02*
D03*
D36*
X7055602Y3949502D02*
D03*
Y4813498D02*
D03*
D37*
X2096201Y6286500D02*
D03*
X6215802Y6362700D02*
D03*
D38*
X1946204Y6286500D02*
D03*
X1796202D02*
D03*
X1646199D02*
D03*
X1496202D02*
D03*
X1346200D02*
D03*
X6065804Y6362700D02*
D03*
X5915802D02*
D03*
X5765800D02*
D03*
X5615803D02*
D03*
X5465801D02*
D03*
D39*
X749300Y5483804D02*
D03*
D40*
Y5233802D02*
D03*
Y4983800D02*
D03*
Y4733803D02*
D03*
Y4483801D02*
D03*
Y4233804D02*
D03*
Y3983802D02*
D03*
Y3733800D02*
D03*
D41*
X5156200Y2768600D02*
D03*
X4956200D02*
D03*
D42*
X6032500Y2911399D02*
D03*
D43*
Y2311400D02*
D03*
X6502502Y2611399D02*
D03*
D44*
X7175500Y4406900D02*
D03*
X5346700Y5727700D02*
D03*
X5270500Y6032500D02*
D03*
X2705100Y4241800D02*
D03*
X6111458Y5811151D02*
D03*
X3111500Y6337300D02*
D03*
X3657600Y4622800D02*
D03*
X3314700Y5588000D02*
D03*
X2781300Y5969000D02*
D03*
X5161376Y5476908D02*
D03*
X2933700Y3733800D02*
D03*
X2463800Y3721100D02*
D03*
X6667500Y5092700D02*
D03*
X6223000Y5435600D02*
D03*
X6743700Y5283200D02*
D03*
X6375400Y5435600D02*
D03*
X6578600Y5562600D02*
D03*
X6616700Y5829300D02*
D03*
X6311900Y5689600D02*
D03*
X6032500Y5448300D02*
D03*
X5956300Y5067300D02*
D03*
X6565900Y4635500D02*
D03*
X4953000Y4775200D02*
D03*
X4229100Y5308600D02*
D03*
X4457700Y5384800D02*
D03*
X4902200Y5715000D02*
D03*
X5764201Y5233999D02*
D03*
X4089400Y4978400D02*
D03*
X6705600Y4191000D02*
D03*
X2857500Y4394200D02*
D03*
X6172200Y4483100D02*
D03*
X6718300Y4368800D02*
D03*
X5461000Y5308600D02*
D03*
X6781800Y3797300D02*
D03*
X7200900Y4076700D02*
D03*
X3225800Y3162300D02*
D03*
X6604000Y4851400D02*
D03*
X5689600Y4800600D02*
D03*
X4546600Y4940300D02*
D03*
X5880100Y5245100D02*
D03*
X4038600Y4648200D02*
D03*
X3987800Y2044700D02*
D03*
X7429500Y4559300D02*
D03*
X6883400Y4610100D02*
D03*
X7289800Y4229100D02*
D03*
X7124700Y3670300D02*
D03*
X3086100Y2933700D02*
D03*
X2921000Y2159000D02*
D03*
X3060700Y2527300D02*
D03*
X2616200Y5702300D02*
D03*
X2120900Y4622800D02*
D03*
X2819400Y5422900D02*
D03*
Y4584700D02*
D03*
X6895380Y4293509D02*
D03*
X6883400Y4140200D02*
D03*
X6896100Y3683000D02*
D03*
X4000500Y2197100D02*
D03*
X1955800Y2209800D02*
D03*
X3390900Y4635500D02*
D03*
X1231900Y4508500D02*
D03*
X4279900Y3035300D02*
D03*
X3568700Y3048000D02*
D03*
X4495800Y2717800D02*
D03*
X4203700Y2413000D02*
D03*
X6146800Y3797300D02*
D03*
X4533900Y2933700D02*
D03*
X1333500Y5842000D02*
D03*
X3911600Y4724400D02*
D03*
X2184400Y6629400D02*
D03*
X3530600Y4673600D02*
D03*
X2730500Y5829300D02*
D03*
X2146300Y5118100D02*
D03*
X2438400Y3911600D02*
D03*
X1612900Y3898900D02*
D03*
X1397000Y5232400D02*
D03*
X1130300Y4229100D02*
D03*
X4165600D02*
D03*
X1231900Y4737100D02*
D03*
X1333500Y4965700D02*
D03*
X2247900Y5283200D02*
D03*
X1892300Y5613400D02*
D03*
X1562100D02*
D03*
X6388100Y5981700D02*
D03*
X1143000Y3733800D02*
D03*
X2095500Y5791200D02*
D03*
D45*
X2870200Y3530600D02*
D03*
X5320325Y5500075D02*
D03*
X2832100Y2463800D02*
D03*
X4470400Y2209800D02*
D03*
X3275251Y4773851D02*
D03*
X7010400Y3086100D02*
D03*
X3378200Y3746500D02*
D03*
X3670300Y2032000D02*
D03*
X5600700Y4292600D02*
D03*
X4940300Y6235700D02*
D03*
X3987201Y5588599D02*
D03*
X2479700Y4181500D02*
D03*
X6819900Y4762500D02*
D03*
X7251700Y4965700D02*
D03*
X7264400Y3784600D02*
D03*
X6515100Y4241800D02*
D03*
X2400300Y4686300D02*
D03*
X4051300Y3543300D02*
D03*
X4622800Y3771900D02*
D03*
X4279900Y3759200D02*
D03*
X3746500Y609600D02*
D03*
X3390900Y2717800D02*
D03*
X4318000Y647700D02*
D03*
X3009900Y800100D02*
D03*
X2311400Y1828800D02*
D03*
X2730500Y1981200D02*
D03*
%TF.MD5,fbef8b3dba6af3ae6c52fd345f6ee987*%
M02*
