%TF.GenerationSoftware,Altium Limited,Altium Designer,24.10.1 (45)*%
G04 Layer_Color=0*
%FSLAX45Y45*%
%MOMM*%
%TF.SameCoordinates,A2E8F698-1A25-487F-A8AF-53517084677A*%
%TF.FilePolarity,Positive*%
%TF.FileFunction,Profile,NP*%
%TF.Part,Single*%
G01*
G75*
%TA.AperFunction,Profile*%
%ADD76C,0.02540*%
D76*
X455260Y3147755D02*
X306334Y3454144D01*
X306314Y3454188D01*
X252263Y3581594D01*
X252246Y3581637D01*
X147552Y3880731D01*
X147534Y3880792D01*
X89622Y4112440D01*
X89611Y4112491D01*
X42296Y4391943D01*
X42292Y4391971D01*
X28289Y4497740D01*
X28283Y4497832D01*
Y4864608D01*
X28294Y4864728D01*
X89915Y5230745D01*
X89936Y5230837D01*
X102121Y5271039D01*
X171163Y5493153D01*
X171192Y5493230D01*
X261921Y5693992D01*
X261953Y5694054D01*
X368511Y5876670D01*
X368548Y5876726D01*
X416711Y5944531D01*
X416737Y5944566D01*
X588231Y6168028D01*
X588324Y6168130D01*
X779465Y6344205D01*
X779519Y6344252D01*
X821873Y6378135D01*
X821920Y6378171D01*
X1021238Y6517877D01*
X1043528Y6532736D01*
X1043574Y6532765D01*
X1224512Y6633443D01*
X1224546Y6633461D01*
X1236112Y6639243D01*
X1236159Y6639265D01*
X1438851Y6725168D01*
X1438903Y6725188D01*
X1525658Y6753633D01*
X1525712Y6753648D01*
X1766812Y6811054D01*
X1766865Y6811064D01*
X1978557Y6843933D01*
X1978660Y6843941D01*
X2306828D01*
X2306937Y6843932D01*
X2528261Y6811066D01*
X2528328Y6811054D01*
X2780784Y6750809D01*
X2780834Y6750795D01*
X2865861Y6725196D01*
X2865945Y6725167D01*
X3087941Y6629612D01*
X3087984Y6629591D01*
X3126575Y6610296D01*
X3126644Y6610258D01*
X3309260Y6494047D01*
X3309302Y6494018D01*
X3418949Y6411783D01*
X3419020Y6411722D01*
X3610311Y6226028D01*
X3610409Y6225912D01*
X3860799Y5859958D01*
X3872212Y5876710D01*
X4065248Y6166264D01*
X4065272Y6166297D01*
X4094284Y6204664D01*
X4140174Y6264557D01*
X4140232Y6264624D01*
X4256056Y6380448D01*
X4256122Y6380506D01*
X4321948Y6431082D01*
X4354386Y6455410D01*
X4354417Y6455432D01*
X4564058Y6594807D01*
X4564093Y6594829D01*
X4623935Y6629576D01*
X4624023Y6629618D01*
X4844072Y6721305D01*
X4844129Y6721327D01*
X4942466Y6753633D01*
X4942524Y6753649D01*
X5182320Y6809229D01*
X5182372Y6809239D01*
X5414673Y6843934D01*
X5414772Y6843941D01*
X5733288D01*
X5733397Y6843932D01*
X5954721Y6811066D01*
X5954795Y6811052D01*
X6197713Y6750297D01*
X6197762Y6750282D01*
X6273048Y6725187D01*
X6273091Y6725171D01*
X6448758Y6652781D01*
X6448821Y6652750D01*
X6639917Y6552377D01*
X6639993Y6552332D01*
X6841899Y6416827D01*
X6841938Y6416800D01*
X6978803Y6312944D01*
X6978872Y6312884D01*
X7162260Y6129496D01*
X7162319Y6129428D01*
X7251406Y6015100D01*
X7251431Y6015067D01*
X7318995Y5918547D01*
X7319021Y5918506D01*
X7463504Y5676686D01*
X7463548Y5676600D01*
X7556200Y5462342D01*
X7556228Y5462266D01*
X7612659Y5288661D01*
X7612676Y5288600D01*
X7639094Y5184041D01*
X7639110Y5183965D01*
X7679303Y4941550D01*
X7679311Y4941483D01*
X7688013Y4845767D01*
X7688016Y4845711D01*
X7693317Y4526799D01*
X7693312Y4526707D01*
X7679267Y4411249D01*
X7679262Y4411213D01*
X7631991Y4122155D01*
X7631977Y4122086D01*
X7571226Y3888735D01*
X7571212Y3888688D01*
X7482868Y3627971D01*
X7482852Y3627929D01*
X7421084Y3475438D01*
X7421060Y3475385D01*
X7266336Y3157400D01*
X7266317Y3157362D01*
X7218057Y3070494D01*
X7218037Y3070461D01*
X6986300Y2703938D01*
X6986270Y2703894D01*
X6855782Y2526692D01*
X6855759Y2526662D01*
X6600094Y2212014D01*
X6600068Y2211984D01*
X6428747Y2016834D01*
X6428708Y2016792D01*
X6004020Y1592104D01*
X6003985Y1592071D01*
X5880676Y1483506D01*
X5644824Y1275947D01*
X5644798Y1275924D01*
X5194935Y914099D01*
X5194914Y914082D01*
X4940487Y725675D01*
X4940461Y725657D01*
X4470749Y402607D01*
X4448460Y387747D01*
X3899770Y38040D01*
X3899408Y37935D01*
X3822192D01*
X3821796Y38064D01*
X3811224Y45753D01*
X3803485Y49627D01*
X3253857Y397385D01*
X3253836Y397399D01*
X3224880Y416703D01*
X2761834Y735309D01*
X2761805Y735330D01*
X2459119Y962345D01*
X2459093Y962365D01*
X2038196Y1304879D01*
X2038170Y1304901D01*
X1787421Y1526919D01*
X1640389Y1659644D01*
X1640364Y1659668D01*
X1360456Y1939576D01*
X1360430Y1939603D01*
X1155346Y2169159D01*
X1155330Y2169178D01*
X875497Y2507354D01*
X875471Y2507387D01*
X725672Y2713554D01*
X725651Y2713585D01*
X528364Y3019746D01*
X528341Y3019785D01*
X455260Y3147755D01*
%TF.MD5,759859517ebcee53fdf11c8a4c388dd1*%
M02*
