%TF.GenerationSoftware,Altium Limited,Altium Designer,24.10.1 (45)*%
G04 Layer_Color=8388736*
%FSLAX45Y45*%
%MOMM*%
%TF.SameCoordinates,5161A517-D4F4-47BB-AA9F-3B40E8EE5112*%
%TF.FilePolarity,Negative*%
%TF.FileFunction,Soldermask,Top*%
%TF.Part,Single*%
G01*
G75*
%TA.AperFunction,SMDPad,CuDef*%
%ADD14R,1.15000X0.60000*%
%ADD15R,1.15000X0.30000*%
%TA.AperFunction,ComponentPad*%
G04:AMPARAMS|DCode=35|XSize=1mm|YSize=2.2mm|CornerRadius=0.5mm|HoleSize=0mm|Usage=FLASHONLY|Rotation=90.000|XOffset=0mm|YOffset=0mm|HoleType=Round|Shape=RoundedRectangle|*
%AMROUNDEDRECTD35*
21,1,1.00000,1.20000,0,0,90.0*
21,1,0.00000,2.20000,0,0,90.0*
1,1,1.00000,0.60000,0.00000*
1,1,1.00000,0.60000,0.00000*
1,1,1.00000,-0.60000,0.00000*
1,1,1.00000,-0.60000,0.00000*
%
%ADD35ROUNDEDRECTD35*%
G04:AMPARAMS|DCode=36|XSize=1mm|YSize=1.8mm|CornerRadius=0.5mm|HoleSize=0mm|Usage=FLASHONLY|Rotation=90.000|XOffset=0mm|YOffset=0mm|HoleType=Round|Shape=RoundedRectangle|*
%AMROUNDEDRECTD36*
21,1,1.00000,0.80000,0,0,90.0*
21,1,0.00000,1.80000,0,0,90.0*
1,1,1.00000,0.40000,0.00000*
1,1,1.00000,0.40000,0.00000*
1,1,1.00000,-0.40000,0.00000*
1,1,1.00000,-0.40000,0.00000*
%
%ADD36ROUNDEDRECTD36*%
%TA.AperFunction,SMDPad,CuDef*%
%ADD61R,0.40160X0.90160*%
%ADD62R,0.90160X0.40160*%
%ADD63R,3.85160X3.85160*%
%ADD64R,5.60160X2.10160*%
%ADD65R,0.45160X0.70160*%
%ADD66R,1.57160X1.12160*%
%ADD67R,1.12160X1.57160*%
%ADD68R,3.30160X1.90160*%
%ADD69R,1.05160X1.90160*%
%ADD70R,1.25160X1.35160*%
%ADD71R,1.70160X1.50160*%
%TA.AperFunction,ConnectorPad*%
%ADD72R,1.60160X1.00160*%
%ADD73R,1.00160X1.60160*%
%TA.AperFunction,BGAPad,CuDef*%
%ADD74R,1.00160X1.00160*%
%TA.AperFunction,SMDPad,CuDef*%
%ADD75R,1.50160X1.70160*%
%TA.AperFunction,ViaPad*%
%ADD76C,2.64160*%
%TA.AperFunction,ComponentPad*%
%ADD77R,1.20160X1.20160*%
%ADD78C,1.20160*%
%ADD79R,1.30160X1.30160*%
%ADD80C,1.30160*%
%ADD81C,1.40160*%
%ADD82C,5.56160*%
%ADD83C,4.84160*%
%TA.AperFunction,ViaPad*%
%ADD84C,0.71120*%
%ADD85C,1.37160*%
D14*
X6998101Y4701499D02*
D03*
Y4061501D02*
D03*
Y4141500D02*
D03*
Y4621500D02*
D03*
D15*
Y4556501D02*
D03*
Y4506498D02*
D03*
Y4456501D02*
D03*
Y4406499D02*
D03*
Y4356501D02*
D03*
Y4306499D02*
D03*
Y4256502D02*
D03*
Y4206499D02*
D03*
D35*
X7455601Y3949502D02*
D03*
Y4813498D02*
D03*
D36*
X7055602Y3949502D02*
D03*
Y4813498D02*
D03*
D61*
X5928497Y5952297D02*
D03*
X5878500D02*
D03*
X5828497D02*
D03*
X5778500D02*
D03*
X5728498D02*
D03*
X5678495D02*
D03*
X5628498D02*
D03*
Y5452298D02*
D03*
X5678495D02*
D03*
X5728498D02*
D03*
X5778500D02*
D03*
X5828497D02*
D03*
X5878500D02*
D03*
X5928497D02*
D03*
D62*
X5528498Y5852297D02*
D03*
Y5802300D02*
D03*
Y5752297D02*
D03*
Y5702300D02*
D03*
Y5652298D02*
D03*
Y5602300D02*
D03*
Y5552298D02*
D03*
X6028497D02*
D03*
Y5602300D02*
D03*
Y5652298D02*
D03*
Y5702300D02*
D03*
Y5752297D02*
D03*
Y5802300D02*
D03*
Y5852297D02*
D03*
D63*
X5778500Y5702300D02*
D03*
D64*
X6261100Y5257800D02*
D03*
X7211101D02*
D03*
D65*
X6647700Y4292600D02*
D03*
X6712699D02*
D03*
X6700002Y4508500D02*
D03*
X6634998D02*
D03*
X6712702Y4064000D02*
D03*
X6647698D02*
D03*
X6719799Y3797300D02*
D03*
X6654800D02*
D03*
D66*
X3390900Y2888000D02*
D03*
Y3048000D02*
D03*
D67*
X1558300Y5422900D02*
D03*
X1718300D02*
D03*
X4149100Y2209800D02*
D03*
X4309100D02*
D03*
X3670300Y2184400D02*
D03*
X3830300D02*
D03*
X3208000Y2171700D02*
D03*
X3048000D02*
D03*
X2725400Y2146300D02*
D03*
X2565400D02*
D03*
X4127500Y3949700D02*
D03*
X4287500D02*
D03*
X3158500Y787400D02*
D03*
X3318500D02*
D03*
X3209300Y3911600D02*
D03*
X3369300D02*
D03*
X3915400Y800100D02*
D03*
X3755400D02*
D03*
X4779000Y3949700D02*
D03*
X4619000D02*
D03*
X4486900Y787400D02*
D03*
X4326900D02*
D03*
X3641100Y3911600D02*
D03*
X3801100D02*
D03*
D68*
X2830698Y3312404D02*
D03*
X4051300Y3370702D02*
D03*
D69*
X3060700Y2692400D02*
D03*
X2830698D02*
D03*
X2600696D02*
D03*
X3821298Y2750698D02*
D03*
X4051300D02*
D03*
X4281302D02*
D03*
D70*
X6746900Y3505200D02*
D03*
X6511900D02*
D03*
X7242200D02*
D03*
X7007200D02*
D03*
X2692400Y3911600D02*
D03*
X2927401D02*
D03*
X1946300Y4368800D02*
D03*
X1711300D02*
D03*
X2244700D02*
D03*
X2479700D02*
D03*
D71*
X5240701Y4206098D02*
D03*
X5960699D02*
D03*
X5240701Y4506102D02*
D03*
X5960699D02*
D03*
X3069499Y1600200D02*
D03*
X2349500D02*
D03*
X3069499Y1300201D02*
D03*
X2349500D02*
D03*
X5249499Y1585102D02*
D03*
X4529501D02*
D03*
X5249499Y1285098D02*
D03*
X4529501D02*
D03*
X4157299Y1597797D02*
D03*
X3437301D02*
D03*
X4157299Y1297798D02*
D03*
X3437301D02*
D03*
D72*
X2970398Y6220597D02*
D03*
Y6093597D02*
D03*
Y5966597D02*
D03*
Y5839597D02*
D03*
Y5712597D02*
D03*
Y5585597D02*
D03*
Y5458597D02*
D03*
Y5331597D02*
D03*
Y5204597D02*
D03*
Y5077597D02*
D03*
Y4950597D02*
D03*
Y4823597D02*
D03*
Y4696597D02*
D03*
Y4569597D02*
D03*
X4720402D02*
D03*
Y4696597D02*
D03*
Y4823597D02*
D03*
Y4950597D02*
D03*
Y5077597D02*
D03*
Y5204597D02*
D03*
Y5331597D02*
D03*
Y5458597D02*
D03*
Y5585597D02*
D03*
Y5712597D02*
D03*
Y5839597D02*
D03*
Y5966597D02*
D03*
Y6093597D02*
D03*
Y6220597D02*
D03*
D73*
X3146903Y4444599D02*
D03*
X3273903D02*
D03*
X3400903D02*
D03*
X3527903D02*
D03*
X3654903D02*
D03*
X3781903D02*
D03*
X3908903D02*
D03*
X4035903D02*
D03*
X4162903D02*
D03*
X4289903D02*
D03*
X4416903D02*
D03*
X4543903D02*
D03*
D74*
X3695400Y5448600D02*
D03*
Y5588599D02*
D03*
X3555401D02*
D03*
Y5448600D02*
D03*
Y5308600D02*
D03*
X3695400D02*
D03*
X3835400D02*
D03*
Y5448600D02*
D03*
Y5588599D02*
D03*
D75*
X2397902Y4872401D02*
D03*
Y5592399D02*
D03*
X2097898Y4872401D02*
D03*
Y5592399D02*
D03*
D76*
X901700Y6121400D02*
D03*
X3848100Y330200D02*
D03*
X6794500Y6096000D02*
D03*
D77*
X2096201Y6286500D02*
D03*
X6215802Y6362700D02*
D03*
D78*
X1946204Y6286500D02*
D03*
X1796202D02*
D03*
X1646199D02*
D03*
X1496202D02*
D03*
X1346200D02*
D03*
X6065804Y6362700D02*
D03*
X5915802D02*
D03*
X5765800D02*
D03*
X5615803D02*
D03*
X5465801D02*
D03*
D79*
X749300Y5483804D02*
D03*
D80*
Y5233802D02*
D03*
Y4983800D02*
D03*
Y4733803D02*
D03*
Y4483801D02*
D03*
Y4233804D02*
D03*
Y3983802D02*
D03*
Y3733800D02*
D03*
D81*
X5156200Y2768600D02*
D03*
X4956200D02*
D03*
D82*
X6032500Y2911399D02*
D03*
D83*
Y2311400D02*
D03*
X6502502Y2611399D02*
D03*
D84*
X7175500Y4406900D02*
D03*
X5346700Y5727700D02*
D03*
X5270500Y6032500D02*
D03*
X2705100Y4241800D02*
D03*
X6111458Y5811151D02*
D03*
X3111500Y6337300D02*
D03*
X3657600Y4622800D02*
D03*
X3314700Y5588000D02*
D03*
X2781300Y5969000D02*
D03*
X5161376Y5476908D02*
D03*
X2933700Y3733800D02*
D03*
X2463800Y3721100D02*
D03*
X6667500Y5092700D02*
D03*
X6223000Y5435600D02*
D03*
X6743700Y5283200D02*
D03*
X6375400Y5435600D02*
D03*
X6578600Y5562600D02*
D03*
X6616700Y5829300D02*
D03*
X6311900Y5689600D02*
D03*
X6032500Y5448300D02*
D03*
X5956300Y5067300D02*
D03*
X6565900Y4635500D02*
D03*
X4953000Y4775200D02*
D03*
X4229100Y5308600D02*
D03*
X4457700Y5384800D02*
D03*
X4902200Y5715000D02*
D03*
X5764201Y5233999D02*
D03*
X4089400Y4978400D02*
D03*
X6705600Y4191000D02*
D03*
X2857500Y4394200D02*
D03*
X6172200Y4483100D02*
D03*
X6718300Y4368800D02*
D03*
X5461000Y5308600D02*
D03*
X6781800Y3797300D02*
D03*
X7200900Y4076700D02*
D03*
X3225800Y3162300D02*
D03*
X6604000Y4851400D02*
D03*
X5689600Y4800600D02*
D03*
X4546600Y4940300D02*
D03*
X5880100Y5245100D02*
D03*
X4038600Y4648200D02*
D03*
X3987800Y2044700D02*
D03*
X7429500Y4559300D02*
D03*
X6883400Y4610100D02*
D03*
X7289800Y4229100D02*
D03*
X7124700Y3670300D02*
D03*
X3086100Y2933700D02*
D03*
X2921000Y2159000D02*
D03*
X3060700Y2527300D02*
D03*
X2616200Y5702300D02*
D03*
X2120900Y4622800D02*
D03*
X2819400Y5422900D02*
D03*
Y4584700D02*
D03*
X6895380Y4293509D02*
D03*
X6883400Y4140200D02*
D03*
X6896100Y3683000D02*
D03*
X4000500Y2197100D02*
D03*
X1955800Y2209800D02*
D03*
X3390900Y4635500D02*
D03*
X1231900Y4508500D02*
D03*
X4279900Y3035300D02*
D03*
X3568700Y3048000D02*
D03*
X4495800Y2717800D02*
D03*
X4203700Y2413000D02*
D03*
X6146800Y3797300D02*
D03*
X4533900Y2933700D02*
D03*
X1333500Y5842000D02*
D03*
X3911600Y4724400D02*
D03*
X2184400Y6629400D02*
D03*
X3530600Y4673600D02*
D03*
X2730500Y5829300D02*
D03*
X2146300Y5118100D02*
D03*
X2438400Y3911600D02*
D03*
X1612900Y3898900D02*
D03*
X1397000Y5232400D02*
D03*
X1130300Y4229100D02*
D03*
X4165600D02*
D03*
X1231900Y4737100D02*
D03*
X1333500Y4965700D02*
D03*
X2247900Y5283200D02*
D03*
X1892300Y5613400D02*
D03*
X1562100D02*
D03*
X6388100Y5981700D02*
D03*
X1143000Y3733800D02*
D03*
X2095500Y5791200D02*
D03*
D85*
X2870200Y3530600D02*
D03*
X5320325Y5500075D02*
D03*
X2832100Y2463800D02*
D03*
X4470400Y2209800D02*
D03*
X3275251Y4773851D02*
D03*
X7010400Y3086100D02*
D03*
X3378200Y3746500D02*
D03*
X3670300Y2032000D02*
D03*
X5600700Y4292600D02*
D03*
X4940300Y6235700D02*
D03*
X3987201Y5588599D02*
D03*
X2479700Y4181500D02*
D03*
X6819900Y4762500D02*
D03*
X7251700Y4965700D02*
D03*
X7264400Y3784600D02*
D03*
X6515100Y4241800D02*
D03*
X2400300Y4686300D02*
D03*
X4051300Y3543300D02*
D03*
X4622800Y3771900D02*
D03*
X4279900Y3759200D02*
D03*
X3746500Y609600D02*
D03*
X3390900Y2717800D02*
D03*
X4318000Y647700D02*
D03*
X3009900Y800100D02*
D03*
X2311400Y1828800D02*
D03*
X2730500Y1981200D02*
D03*
%TF.MD5,8b16e53e05eb353f7e1da2b67502726f*%
M02*
