%TF.GenerationSoftware,Altium Limited,Altium Designer,24.10.1 (45)*%
G04 Layer_Color=16711935*
%FSLAX45Y45*%
%MOMM*%
%TF.SameCoordinates,A2E8F698-1A25-487F-A8AF-53517084677A*%
%TF.FilePolarity,Negative*%
%TF.FileFunction,Soldermask,Bot*%
%TF.Part,Single*%
G01*
G75*
%TA.AperFunction,ComponentPad*%
G04:AMPARAMS|DCode=35|XSize=1mm|YSize=2.2mm|CornerRadius=0.5mm|HoleSize=0mm|Usage=FLASHONLY|Rotation=90.000|XOffset=0mm|YOffset=0mm|HoleType=Round|Shape=RoundedRectangle|*
%AMROUNDEDRECTD35*
21,1,1.00000,1.20000,0,0,90.0*
21,1,0.00000,2.20000,0,0,90.0*
1,1,1.00000,0.60000,0.00000*
1,1,1.00000,0.60000,0.00000*
1,1,1.00000,-0.60000,0.00000*
1,1,1.00000,-0.60000,0.00000*
%
%ADD35ROUNDEDRECTD35*%
G04:AMPARAMS|DCode=36|XSize=1mm|YSize=1.8mm|CornerRadius=0.5mm|HoleSize=0mm|Usage=FLASHONLY|Rotation=90.000|XOffset=0mm|YOffset=0mm|HoleType=Round|Shape=RoundedRectangle|*
%AMROUNDEDRECTD36*
21,1,1.00000,0.80000,0,0,90.0*
21,1,0.00000,1.80000,0,0,90.0*
1,1,1.00000,0.40000,0.00000*
1,1,1.00000,0.40000,0.00000*
1,1,1.00000,-0.40000,0.00000*
1,1,1.00000,-0.40000,0.00000*
%
%ADD36ROUNDEDRECTD36*%
%TA.AperFunction,SMDPad,CuDef*%
%ADD56R,1.12160X1.57160*%
%ADD59R,1.25160X1.35160*%
%TA.AperFunction,ViaPad*%
%ADD65C,2.64160*%
%TA.AperFunction,ComponentPad*%
%ADD66R,1.20160X1.20160*%
%ADD67C,1.20160*%
%ADD68R,1.30160X1.30160*%
%ADD69C,1.30160*%
%ADD70C,1.40160*%
%ADD71C,5.56160*%
%ADD72C,4.84160*%
%TA.AperFunction,ViaPad*%
%ADD73C,0.71120*%
%ADD74C,1.37160*%
D35*
X7455601Y3949502D02*
D03*
Y4813498D02*
D03*
D36*
X7055602Y3949502D02*
D03*
Y4813498D02*
D03*
D56*
X4983500Y5600700D02*
D03*
X5143500D02*
D03*
X4987300Y5829300D02*
D03*
X5147300D02*
D03*
X6223000D02*
D03*
X6383000D02*
D03*
X6197600Y4864100D02*
D03*
X6357600D02*
D03*
X6366500Y5308600D02*
D03*
X6206500D02*
D03*
X6379200Y5562600D02*
D03*
X6219200D02*
D03*
X6206500Y5080000D02*
D03*
X6366500D02*
D03*
D59*
X6143600Y4635500D02*
D03*
X6378600D02*
D03*
X4949800Y4914900D02*
D03*
X5184800D02*
D03*
X4949799Y5130800D02*
D03*
X5184800D02*
D03*
X5184800Y5359400D02*
D03*
X4949800D02*
D03*
D65*
X901700Y6121400D02*
D03*
X3848100Y330200D02*
D03*
X6794500Y6096000D02*
D03*
D66*
X2096201Y6286500D02*
D03*
X6215802Y6362700D02*
D03*
D67*
X1946204Y6286500D02*
D03*
X1796202D02*
D03*
X1646199D02*
D03*
X1496202D02*
D03*
X1346200D02*
D03*
X6065804Y6362700D02*
D03*
X5915802D02*
D03*
X5765800D02*
D03*
X5615803D02*
D03*
X5465801D02*
D03*
D68*
X749300Y5483804D02*
D03*
D69*
Y5233802D02*
D03*
Y4983800D02*
D03*
Y4733803D02*
D03*
Y4483801D02*
D03*
Y4233804D02*
D03*
Y3983802D02*
D03*
Y3733800D02*
D03*
D70*
X5156200Y2768600D02*
D03*
X4956200D02*
D03*
D71*
X6032500Y2911399D02*
D03*
D72*
Y2311400D02*
D03*
X6502502Y2611399D02*
D03*
D73*
X2705100Y4241800D02*
D03*
X6111458Y5811151D02*
D03*
X3111500Y6337300D02*
D03*
X3657600Y4622800D02*
D03*
X3314700Y5588000D02*
D03*
X2781300Y5969000D02*
D03*
X5301796Y6038396D02*
D03*
X5161376Y5476908D02*
D03*
X2933700Y3733800D02*
D03*
X2463800Y3721100D02*
D03*
X6667500Y5092700D02*
D03*
X6223000Y5435600D02*
D03*
X6743700Y5283200D02*
D03*
X6375400Y5435600D02*
D03*
X6578600Y5562600D02*
D03*
X6616700Y5829300D02*
D03*
X6311900Y5689600D02*
D03*
X6032500Y5448300D02*
D03*
X5956300Y5067300D02*
D03*
X6565900Y4635500D02*
D03*
X4953000Y4775200D02*
D03*
X4229100Y5308600D02*
D03*
X4457700Y5384800D02*
D03*
X4902200Y5715000D02*
D03*
X5372100Y5753100D02*
D03*
X5764201Y5233999D02*
D03*
X4089400Y4978400D02*
D03*
X6705600Y4191000D02*
D03*
X2857500Y4394200D02*
D03*
X6172200Y4483100D02*
D03*
X6718300Y4368800D02*
D03*
X5461000Y5308600D02*
D03*
X6781800Y3797300D02*
D03*
X7200900Y4076700D02*
D03*
X3225800Y3162300D02*
D03*
X6604000Y4851400D02*
D03*
X5689600Y4800600D02*
D03*
X4546600Y4940300D02*
D03*
X5880100Y5245100D02*
D03*
X4038600Y4648200D02*
D03*
X3987800Y2044700D02*
D03*
X7429500Y4559300D02*
D03*
X6883400Y4610100D02*
D03*
X7289800Y4229100D02*
D03*
X7124700Y3670300D02*
D03*
X3086100Y2933700D02*
D03*
X2921000Y2159000D02*
D03*
X3060700Y2527300D02*
D03*
X2616200Y5702300D02*
D03*
X2120900Y4622800D02*
D03*
X2819400Y5422900D02*
D03*
Y4584700D02*
D03*
X6895380Y4293509D02*
D03*
X7137400Y4406900D02*
D03*
X6883400Y4140200D02*
D03*
X6896100Y3683000D02*
D03*
X4000500Y2197100D02*
D03*
X1955800Y2209800D02*
D03*
X3390900Y4635500D02*
D03*
X1231900Y4508500D02*
D03*
X4279900Y3035300D02*
D03*
X3568700Y3048000D02*
D03*
X4495800Y2717800D02*
D03*
X4203700Y2413000D02*
D03*
X6146800Y3797300D02*
D03*
X4533900Y2933700D02*
D03*
X1333500Y5842000D02*
D03*
X3911600Y4724400D02*
D03*
X2184400Y6629400D02*
D03*
X3530600Y4673600D02*
D03*
X2730500Y5829300D02*
D03*
X2146300Y5118100D02*
D03*
X2438400Y3911600D02*
D03*
X1612900Y3898900D02*
D03*
X1397000Y5232400D02*
D03*
X1130300Y4229100D02*
D03*
X4165600D02*
D03*
X1231900Y4737100D02*
D03*
X1333500Y4965700D02*
D03*
X2247900Y5283200D02*
D03*
X1892300Y5613400D02*
D03*
X1562100D02*
D03*
X6388100Y5981700D02*
D03*
X1143000Y3733800D02*
D03*
X2095500Y5791200D02*
D03*
D74*
X5320325Y5500075D02*
D03*
X2832100Y2463800D02*
D03*
X4470400Y2209800D02*
D03*
X3275251Y4773851D02*
D03*
X7010400Y3086100D02*
D03*
X3378200Y3746500D02*
D03*
X3670300Y2032000D02*
D03*
X5600700Y4292600D02*
D03*
X4940300Y6235700D02*
D03*
X3987201Y5588599D02*
D03*
X2479700Y4181500D02*
D03*
X6819900Y4762500D02*
D03*
X7251700Y4965700D02*
D03*
X7264400Y3784600D02*
D03*
X6515100Y4241800D02*
D03*
X2400300Y4686300D02*
D03*
X4051300Y3543300D02*
D03*
X4622800Y3771900D02*
D03*
X4279900Y3759200D02*
D03*
X3746500Y609600D02*
D03*
X3390900Y2717800D02*
D03*
X4318000Y647700D02*
D03*
X3009900Y800100D02*
D03*
X2311400Y1828800D02*
D03*
X2730500Y1981200D02*
D03*
X2832100Y3530600D02*
D03*
%TF.MD5,aeebd98d36b31f1de0c72a8a2482e23c*%
M02*
