%TF.GenerationSoftware,Altium Limited,Altium Designer,24.10.1 (45)*%
G04 Layer_Color=128*
%FSLAX45Y45*%
%MOMM*%
%TF.SameCoordinates,5161A517-D4F4-47BB-AA9F-3B40E8EE5112*%
%TF.FilePolarity,Positive*%
%TF.FileFunction,Drillmap*%
%TF.Part,Single*%
G01*
G75*
%TA.AperFunction,NonConductor*%
%ADD101C,0.12700*%
D101*
X793750Y6121400D02*
X1009650D01*
X901700Y6013450D02*
Y6229350D01*
X3740150Y330200D02*
X3956050D01*
X3848100Y222250D02*
Y438150D01*
X6686550Y6096000D02*
X6902450D01*
X6794500Y5988050D02*
Y6203950D01*
X7365601Y3949502D02*
X7545601D01*
X7455601Y3859502D02*
Y4039502D01*
X7365601Y4813498D02*
X7545601D01*
X7455601Y4723498D02*
Y4903498D01*
X6985602Y3949502D02*
X7125602D01*
X7055602Y3879502D02*
Y4019502D01*
X6985602Y4813498D02*
X7125602D01*
X7055602Y4743498D02*
Y4883498D01*
X2061201Y6286500D02*
X2131201D01*
X2096201Y6251500D02*
Y6321500D01*
X1911204Y6286500D02*
X1981204D01*
X1946204Y6251500D02*
Y6321500D01*
X1761202Y6286500D02*
X1831202D01*
X1796202Y6251500D02*
Y6321500D01*
X1611199Y6286500D02*
X1681199D01*
X1646199Y6251500D02*
Y6321500D01*
X1461202Y6286500D02*
X1531202D01*
X1496202Y6251500D02*
Y6321500D01*
X1311200Y6286500D02*
X1381200D01*
X1346200Y6251500D02*
Y6321500D01*
X709300Y5483804D02*
X789300D01*
X749300Y5443804D02*
Y5523804D01*
X709300Y5233802D02*
X789300D01*
X749300Y5193802D02*
Y5273802D01*
X709300Y4983800D02*
X789300D01*
X749300Y4943800D02*
Y5023800D01*
X709300Y4733803D02*
X789300D01*
X749300Y4693803D02*
Y4773803D01*
X709300Y4483801D02*
X789300D01*
X749300Y4443801D02*
Y4523801D01*
X709300Y4233804D02*
X789300D01*
X749300Y4193804D02*
Y4273804D01*
X709300Y3983802D02*
X789300D01*
X749300Y3943802D02*
Y4023802D01*
X709300Y3733800D02*
X789300D01*
X749300Y3693800D02*
Y3773800D01*
X5116200Y2768600D02*
X5196200D01*
X5156200Y2728600D02*
Y2808600D01*
X4916200Y2768600D02*
X4996200D01*
X4956200Y2728600D02*
Y2808600D01*
X5850500Y2911399D02*
X6214500D01*
X6032500Y2729399D02*
Y3093399D01*
X5874500Y2311400D02*
X6190500D01*
X6032500Y2153400D02*
Y2469400D01*
X6344502Y2611399D02*
X6660502D01*
X6502502Y2453399D02*
Y2769399D01*
X6180802Y6362700D02*
X6250802D01*
X6215802Y6327700D02*
Y6397700D01*
X6030805Y6362700D02*
X6100804D01*
X6065804Y6327700D02*
Y6397700D01*
X5880802Y6362700D02*
X5950802D01*
X5915802Y6327700D02*
Y6397700D01*
X5730800Y6362700D02*
X5800800D01*
X5765800Y6327700D02*
Y6397700D01*
X5580803Y6362700D02*
X5650803D01*
X5615803Y6327700D02*
Y6397700D01*
X5430801Y6362700D02*
X5500801D01*
X5465801Y6327700D02*
Y6397700D01*
X7160260Y4406900D02*
X7190740D01*
X7175500Y4391660D02*
Y4422140D01*
X5331460Y5727700D02*
X5361940D01*
X5346700Y5712460D02*
Y5742940D01*
X5255260Y6032500D02*
X5285740D01*
X5270500Y6017260D02*
Y6047740D01*
X2834640Y3530600D02*
X2905760D01*
X2870200Y3495040D02*
Y3566160D01*
X2689860Y4241800D02*
X2720340D01*
X2705100Y4226560D02*
Y4257040D01*
X6096218Y5811151D02*
X6126698D01*
X6111458Y5795911D02*
Y5826391D01*
X5284765Y5500075D02*
X5355885D01*
X5320325Y5464515D02*
Y5535635D01*
X2796540Y2463800D02*
X2867660D01*
X2832100Y2428240D02*
Y2499360D01*
X3096260Y6337300D02*
X3126740D01*
X3111500Y6322060D02*
Y6352540D01*
X3642360Y4622800D02*
X3672840D01*
X3657600Y4607560D02*
Y4638040D01*
X3299460Y5588000D02*
X3329940D01*
X3314700Y5572760D02*
Y5603240D01*
X2766060Y5969000D02*
X2796540D01*
X2781300Y5953760D02*
Y5984240D01*
X5146136Y5476908D02*
X5176616D01*
X5161376Y5461668D02*
Y5492148D01*
X2918460Y3733800D02*
X2948940D01*
X2933700Y3718560D02*
Y3749040D01*
X2448560Y3721100D02*
X2479040D01*
X2463800Y3705860D02*
Y3736340D01*
X6652260Y5092700D02*
X6682740D01*
X6667500Y5077460D02*
Y5107940D01*
X6207760Y5435600D02*
X6238240D01*
X6223000Y5420360D02*
Y5450840D01*
X6728460Y5283200D02*
X6758940D01*
X6743700Y5267960D02*
Y5298440D01*
X6360160Y5435600D02*
X6390640D01*
X6375400Y5420360D02*
Y5450840D01*
X6563360Y5562600D02*
X6593840D01*
X6578600Y5547360D02*
Y5577840D01*
X6601460Y5829300D02*
X6631940D01*
X6616700Y5814060D02*
Y5844540D01*
X6296660Y5689600D02*
X6327140D01*
X6311900Y5674360D02*
Y5704840D01*
X6017260Y5448300D02*
X6047740D01*
X6032500Y5433060D02*
Y5463540D01*
X5941060Y5067300D02*
X5971540D01*
X5956300Y5052060D02*
Y5082540D01*
X6550660Y4635500D02*
X6581140D01*
X6565900Y4620260D02*
Y4650740D01*
X4937760Y4775200D02*
X4968240D01*
X4953000Y4759960D02*
Y4790440D01*
X4213860Y5308600D02*
X4244340D01*
X4229100Y5293360D02*
Y5323840D01*
X4442460Y5384800D02*
X4472940D01*
X4457700Y5369560D02*
Y5400040D01*
X4886960Y5715000D02*
X4917440D01*
X4902200Y5699760D02*
Y5730240D01*
X5748961Y5233999D02*
X5779441D01*
X5764201Y5218759D02*
Y5249239D01*
X4074160Y4978400D02*
X4104640D01*
X4089400Y4963160D02*
Y4993640D01*
X6690360Y4191000D02*
X6720840D01*
X6705600Y4175760D02*
Y4206240D01*
X2842260Y4394200D02*
X2872740D01*
X2857500Y4378960D02*
Y4409440D01*
X6156960Y4483100D02*
X6187440D01*
X6172200Y4467860D02*
Y4498340D01*
X6703060Y4368800D02*
X6733540D01*
X6718300Y4353560D02*
Y4384040D01*
X5445760Y5308600D02*
X5476240D01*
X5461000Y5293360D02*
Y5323840D01*
X6766560Y3797300D02*
X6797040D01*
X6781800Y3782060D02*
Y3812540D01*
X7185660Y4076700D02*
X7216140D01*
X7200900Y4061460D02*
Y4091940D01*
X3210560Y3162300D02*
X3241040D01*
X3225800Y3147060D02*
Y3177540D01*
X6588760Y4851400D02*
X6619240D01*
X6604000Y4836160D02*
Y4866640D01*
X5674360Y4800600D02*
X5704840D01*
X5689600Y4785360D02*
Y4815840D01*
X4531360Y4940300D02*
X4561840D01*
X4546600Y4925060D02*
Y4955540D01*
X5864860Y5245100D02*
X5895340D01*
X5880100Y5229860D02*
Y5260340D01*
X4023360Y4648200D02*
X4053840D01*
X4038600Y4632960D02*
Y4663440D01*
X4434840Y2209800D02*
X4505960D01*
X4470400Y2174240D02*
Y2245360D01*
X3239691Y4773851D02*
X3310811D01*
X3275251Y4738291D02*
Y4809411D01*
X3972560Y2044700D02*
X4003040D01*
X3987800Y2029460D02*
Y2059940D01*
X7414260Y4559300D02*
X7444740D01*
X7429500Y4544060D02*
Y4574540D01*
X6868160Y4610100D02*
X6898640D01*
X6883400Y4594860D02*
Y4625340D01*
X7274560Y4229100D02*
X7305040D01*
X7289800Y4213860D02*
Y4244340D01*
X7109460Y3670300D02*
X7139940D01*
X7124700Y3655060D02*
Y3685540D01*
X3070860Y2933700D02*
X3101340D01*
X3086100Y2918460D02*
Y2948940D01*
X2905760Y2159000D02*
X2936240D01*
X2921000Y2143760D02*
Y2174240D01*
X3045460Y2527300D02*
X3075940D01*
X3060700Y2512060D02*
Y2542540D01*
X2600960Y5702300D02*
X2631440D01*
X2616200Y5687060D02*
Y5717540D01*
X2105660Y4622800D02*
X2136140D01*
X2120900Y4607560D02*
Y4638040D01*
X2804160Y5422900D02*
X2834640D01*
X2819400Y5407660D02*
Y5438140D01*
X2804160Y4584700D02*
X2834640D01*
X2819400Y4569460D02*
Y4599940D01*
X6974840Y3086100D02*
X7045960D01*
X7010400Y3050540D02*
Y3121660D01*
X3342640Y3746500D02*
X3413760D01*
X3378200Y3710940D02*
Y3782060D01*
X6880140Y4293509D02*
X6910620D01*
X6895380Y4278269D02*
Y4308749D01*
X6868160Y4140200D02*
X6898640D01*
X6883400Y4124960D02*
Y4155440D01*
X6880860Y3683000D02*
X6911340D01*
X6896100Y3667760D02*
Y3698240D01*
X3634740Y2032000D02*
X3705860D01*
X3670300Y1996440D02*
Y2067560D01*
X5565140Y4292600D02*
X5636260D01*
X5600700Y4257040D02*
Y4328160D01*
X3985260Y2197100D02*
X4015740D01*
X4000500Y2181860D02*
Y2212340D01*
X1940560Y2209800D02*
X1971040D01*
X1955800Y2194560D02*
Y2225040D01*
X3375660Y4635500D02*
X3406140D01*
X3390900Y4620260D02*
Y4650740D01*
X1216660Y4508500D02*
X1247140D01*
X1231900Y4493260D02*
Y4523740D01*
X4264660Y3035300D02*
X4295140D01*
X4279900Y3020060D02*
Y3050540D01*
X3553460Y3048000D02*
X3583940D01*
X3568700Y3032760D02*
Y3063240D01*
X4480560Y2717800D02*
X4511040D01*
X4495800Y2702560D02*
Y2733040D01*
X4188460Y2413000D02*
X4218940D01*
X4203700Y2397760D02*
Y2428240D01*
X6131560Y3797300D02*
X6162040D01*
X6146800Y3782060D02*
Y3812540D01*
X4518660Y2933700D02*
X4549140D01*
X4533900Y2918460D02*
Y2948940D01*
X4904740Y6235700D02*
X4975860D01*
X4940300Y6200140D02*
Y6271260D01*
X1318260Y5842000D02*
X1348740D01*
X1333500Y5826760D02*
Y5857240D01*
X3896360Y4724400D02*
X3926840D01*
X3911600Y4709160D02*
Y4739640D01*
X3951641Y5588599D02*
X4022761D01*
X3987201Y5553039D02*
Y5624159D01*
X2169160Y6629400D02*
X2199640D01*
X2184400Y6614160D02*
Y6644640D01*
X3515360Y4673600D02*
X3545840D01*
X3530600Y4658360D02*
Y4688840D01*
X2444140Y4181500D02*
X2515260D01*
X2479700Y4145940D02*
Y4217060D01*
X2715260Y5829300D02*
X2745740D01*
X2730500Y5814060D02*
Y5844540D01*
X2131060Y5118100D02*
X2161540D01*
X2146300Y5102860D02*
Y5133340D01*
X2423160Y3911600D02*
X2453640D01*
X2438400Y3896360D02*
Y3926840D01*
X1597660Y3898900D02*
X1628140D01*
X1612900Y3883660D02*
Y3914140D01*
X1381760Y5232400D02*
X1412240D01*
X1397000Y5217160D02*
Y5247640D01*
X1115060Y4229100D02*
X1145540D01*
X1130300Y4213860D02*
Y4244340D01*
X4150360Y4229100D02*
X4180840D01*
X4165600Y4213860D02*
Y4244340D01*
X1216660Y4737100D02*
X1247140D01*
X1231900Y4721860D02*
Y4752340D01*
X1318260Y4965700D02*
X1348740D01*
X1333500Y4950460D02*
Y4980940D01*
X2232660Y5283200D02*
X2263140D01*
X2247900Y5267960D02*
Y5298440D01*
X1877060Y5613400D02*
X1907540D01*
X1892300Y5598160D02*
Y5628640D01*
X1546860Y5613400D02*
X1577340D01*
X1562100Y5598160D02*
Y5628640D01*
X6372860Y5981700D02*
X6403340D01*
X6388100Y5966460D02*
Y5996940D01*
X6784340Y4762500D02*
X6855460D01*
X6819900Y4726940D02*
Y4798060D01*
X7216140Y4965700D02*
X7287260D01*
X7251700Y4930140D02*
Y5001260D01*
X7228840Y3784600D02*
X7299960D01*
X7264400Y3749040D02*
Y3820160D01*
X6479540Y4241800D02*
X6550660D01*
X6515100Y4206240D02*
Y4277360D01*
X1127760Y3733800D02*
X1158240D01*
X1143000Y3718560D02*
Y3749040D01*
X2364740Y4686300D02*
X2435860D01*
X2400300Y4650740D02*
Y4721860D01*
X4015740Y3543300D02*
X4086860D01*
X4051300Y3507740D02*
Y3578860D01*
X4587240Y3771900D02*
X4658360D01*
X4622800Y3736340D02*
Y3807460D01*
X4244340Y3759200D02*
X4315460D01*
X4279900Y3723640D02*
Y3794760D01*
X3710940Y609600D02*
X3782060D01*
X3746500Y574040D02*
Y645160D01*
X3355340Y2717800D02*
X3426460D01*
X3390900Y2682240D02*
Y2753360D01*
X2080260Y5791200D02*
X2110740D01*
X2095500Y5775960D02*
Y5806440D01*
X4282440Y647700D02*
X4353560D01*
X4318000Y612140D02*
Y683260D01*
X2974340Y800100D02*
X3045460D01*
X3009900Y764540D02*
Y835660D01*
X2275840Y1828800D02*
X2346960D01*
X2311400Y1793240D02*
Y1864360D01*
X2694940Y1981200D02*
X2766060D01*
X2730500Y1945640D02*
Y2016760D01*
%TF.MD5,1a1b2853dde511405610f3efac3ffb26*%
M02*
