%TF.GenerationSoftware,Altium Limited,Altium Designer,24.10.1 (45)*%
G04 Layer_Color=2752767*
%FSLAX45Y45*%
%MOMM*%
%TF.SameCoordinates,5161A517-D4F4-47BB-AA9F-3B40E8EE5112*%
%TF.FilePolarity,Positive*%
%TF.FileFunction,Drawing*%
%TF.Part,Single*%
G01*
G75*
%TA.AperFunction,NonConductor*%
%ADD101C,0.12700*%
%ADD102C,0.16933*%
D101*
X850900Y6070600D02*
Y6172200D01*
X952500D01*
Y6070600D01*
X850900D01*
X871220Y6090920D02*
Y6151880D01*
X932180D01*
Y6090920D01*
X871220D01*
X3797300Y279400D02*
Y381000D01*
X3898900D01*
Y279400D01*
X3797300D01*
X3817620Y299720D02*
Y360680D01*
X3878580D01*
Y299720D01*
X3817620D01*
X6743700Y6045200D02*
Y6146800D01*
X6845300D01*
Y6045200D01*
X6743700D01*
X6764020Y6065520D02*
Y6126480D01*
X6824980D01*
Y6065520D01*
X6764020D01*
X7004802Y3898702D02*
Y4000302D01*
X7106402D01*
Y3898702D01*
X7004802D01*
Y4762698D02*
Y4864298D01*
X7106402D01*
Y4762698D01*
X7004802D01*
X2070801Y6261100D02*
Y6235700D01*
X2121601D01*
Y6261100D01*
X2147001D01*
Y6311900D01*
X2121601D01*
Y6337300D01*
X2070801D01*
Y6311900D01*
X2045401D01*
Y6261100D01*
X2070801D01*
X1920804D02*
Y6235700D01*
X1971604D01*
Y6261100D01*
X1997004D01*
Y6311900D01*
X1971604D01*
Y6337300D01*
X1920804D01*
Y6311900D01*
X1895404D01*
Y6261100D01*
X1920804D01*
X1770802D02*
Y6235700D01*
X1821602D01*
Y6261100D01*
X1847002D01*
Y6311900D01*
X1821602D01*
Y6337300D01*
X1770802D01*
Y6311900D01*
X1745402D01*
Y6261100D01*
X1770802D01*
X1620799D02*
Y6235700D01*
X1671599D01*
Y6261100D01*
X1696999D01*
Y6311900D01*
X1671599D01*
Y6337300D01*
X1620799D01*
Y6311900D01*
X1595399D01*
Y6261100D01*
X1620799D01*
X1470802D02*
Y6235700D01*
X1521602D01*
Y6261100D01*
X1547002D01*
Y6311900D01*
X1521602D01*
Y6337300D01*
X1470802D01*
Y6311900D01*
X1445402D01*
Y6261100D01*
X1470802D01*
X1320800D02*
Y6235700D01*
X1371600D01*
Y6261100D01*
X1397000D01*
Y6311900D01*
X1371600D01*
Y6337300D01*
X1320800D01*
Y6311900D01*
X1295400D01*
Y6261100D01*
X1320800D01*
X749300Y5433004D02*
X698500Y5534604D01*
X800100D01*
X749300Y5433004D01*
Y5183002D02*
X698500Y5284602D01*
X800100D01*
X749300Y5183002D01*
Y4933000D02*
X698500Y5034600D01*
X800100D01*
X749300Y4933000D01*
Y4683003D02*
X698500Y4784603D01*
X800100D01*
X749300Y4683003D01*
Y4433001D02*
X698500Y4534601D01*
X800100D01*
X749300Y4433001D01*
Y4183004D02*
X698500Y4284604D01*
X800100D01*
X749300Y4183004D01*
Y3933002D02*
X698500Y4034602D01*
X800100D01*
X749300Y3933002D01*
Y3683000D02*
X698500Y3784600D01*
X800100D01*
X749300Y3683000D01*
X5156200Y2717800D02*
X5105400Y2819400D01*
X5207000D01*
X5156200Y2717800D01*
X4956200D02*
X4905400Y2819400D01*
X5007000D01*
X4956200Y2717800D01*
X6032500Y2860599D02*
X6057900Y2885999D01*
X6083300D01*
X6057900Y2911399D01*
X6083300Y2936799D01*
X6057900D01*
X6032500Y2962199D01*
X6007100Y2936799D01*
X5981700D01*
X6007100Y2911399D01*
X5981700Y2885999D01*
X6007100D01*
X6032500Y2860599D01*
X5981700Y2260600D02*
X6007100Y2311400D01*
X5981700Y2362200D01*
X6032500Y2336800D01*
X6083300Y2362200D01*
X6057900Y2311400D01*
X6083300Y2260600D01*
X6032500Y2286000D01*
X5981700Y2260600D01*
X6451702Y2560599D02*
X6477102Y2611399D01*
X6451702Y2662199D01*
X6502502Y2636799D01*
X6553302Y2662199D01*
X6527902Y2611399D01*
X6553302Y2560599D01*
X6502502Y2585999D01*
X6451702Y2560599D01*
X6190402Y6337300D02*
Y6311900D01*
X6241202D01*
Y6337300D01*
X6266602D01*
Y6388100D01*
X6241202D01*
Y6413500D01*
X6190402D01*
Y6388100D01*
X6165002D01*
Y6337300D01*
X6190402D01*
X6040404D02*
Y6311900D01*
X6091204D01*
Y6337300D01*
X6116604D01*
Y6388100D01*
X6091204D01*
Y6413500D01*
X6040404D01*
Y6388100D01*
X6015004D01*
Y6337300D01*
X6040404D01*
X5890402D02*
Y6311900D01*
X5941202D01*
Y6337300D01*
X5966602D01*
Y6388100D01*
X5941202D01*
Y6413500D01*
X5890402D01*
Y6388100D01*
X5865002D01*
Y6337300D01*
X5890402D01*
X5740400D02*
Y6311900D01*
X5791200D01*
Y6337300D01*
X5816600D01*
Y6388100D01*
X5791200D01*
Y6413500D01*
X5740400D01*
Y6388100D01*
X5715000D01*
Y6337300D01*
X5740400D01*
X5590403D02*
Y6311900D01*
X5641203D01*
Y6337300D01*
X5666603D01*
Y6388100D01*
X5641203D01*
Y6413500D01*
X5590403D01*
Y6388100D01*
X5565003D01*
Y6337300D01*
X5590403D01*
X5440401D02*
Y6311900D01*
X5491201D01*
Y6337300D01*
X5516601D01*
Y6388100D01*
X5491201D01*
Y6413500D01*
X5440401D01*
Y6388100D01*
X5415001D01*
Y6337300D01*
X5440401D01*
X7124700Y4406900D02*
X7175500Y4457700D01*
X7226300Y4406900D01*
X7175500Y4356100D01*
X7124700Y4406900D01*
X5295900Y5727700D02*
X5346700Y5778500D01*
X5397500Y5727700D01*
X5346700Y5676900D01*
X5295900Y5727700D01*
X5219700Y6032500D02*
X5270500Y6083300D01*
X5321300Y6032500D01*
X5270500Y5981700D01*
X5219700Y6032500D01*
X2819400Y3479800D02*
X2844800D01*
X2870200Y3505200D01*
X2895600Y3479800D01*
X2921000D01*
Y3505200D01*
X2895600Y3530600D01*
X2921000Y3556000D01*
Y3581400D01*
X2895600D01*
X2870200Y3556000D01*
X2844800Y3581400D01*
X2819400D01*
Y3556000D01*
X2844800Y3530600D01*
X2819400Y3505200D01*
Y3479800D01*
X2654300Y4241800D02*
X2705100Y4292600D01*
X2755900Y4241800D01*
X2705100Y4191000D01*
X2654300Y4241800D01*
X6060658Y5811151D02*
X6111458Y5861951D01*
X6162258Y5811151D01*
X6111458Y5760351D01*
X6060658Y5811151D01*
X5269525Y5449275D02*
X5294925D01*
X5320325Y5474675D01*
X5345725Y5449275D01*
X5371125D01*
Y5474675D01*
X5345725Y5500075D01*
X5371125Y5525475D01*
Y5550875D01*
X5345725D01*
X5320325Y5525475D01*
X5294925Y5550875D01*
X5269525D01*
Y5525475D01*
X5294925Y5500075D01*
X5269525Y5474675D01*
Y5449275D01*
X2781300Y2413000D02*
X2806700D01*
X2832100Y2438400D01*
X2857500Y2413000D01*
X2882900D01*
Y2438400D01*
X2857500Y2463800D01*
X2882900Y2489200D01*
Y2514600D01*
X2857500D01*
X2832100Y2489200D01*
X2806700Y2514600D01*
X2781300D01*
Y2489200D01*
X2806700Y2463800D01*
X2781300Y2438400D01*
Y2413000D01*
X3060700Y6337300D02*
X3111500Y6388100D01*
X3162300Y6337300D01*
X3111500Y6286500D01*
X3060700Y6337300D01*
X3606800Y4622800D02*
X3657600Y4673600D01*
X3708400Y4622800D01*
X3657600Y4572000D01*
X3606800Y4622800D01*
X3263900Y5588000D02*
X3314700Y5638800D01*
X3365500Y5588000D01*
X3314700Y5537200D01*
X3263900Y5588000D01*
X2730500Y5969000D02*
X2781300Y6019800D01*
X2832100Y5969000D01*
X2781300Y5918200D01*
X2730500Y5969000D01*
X5110576Y5476908D02*
X5161376Y5527708D01*
X5212176Y5476908D01*
X5161376Y5426108D01*
X5110576Y5476908D01*
X2882900Y3733800D02*
X2933700Y3784600D01*
X2984500Y3733800D01*
X2933700Y3683000D01*
X2882900Y3733800D01*
X2413000Y3721100D02*
X2463800Y3771900D01*
X2514600Y3721100D01*
X2463800Y3670300D01*
X2413000Y3721100D01*
X6616700Y5092700D02*
X6667500Y5143500D01*
X6718300Y5092700D01*
X6667500Y5041900D01*
X6616700Y5092700D01*
X6172200Y5435600D02*
X6223000Y5486400D01*
X6273800Y5435600D01*
X6223000Y5384800D01*
X6172200Y5435600D01*
X6692900Y5283200D02*
X6743700Y5334000D01*
X6794500Y5283200D01*
X6743700Y5232400D01*
X6692900Y5283200D01*
X6324600Y5435600D02*
X6375400Y5486400D01*
X6426200Y5435600D01*
X6375400Y5384800D01*
X6324600Y5435600D01*
X6527800Y5562600D02*
X6578600Y5613400D01*
X6629400Y5562600D01*
X6578600Y5511800D01*
X6527800Y5562600D01*
X6565900Y5829300D02*
X6616700Y5880100D01*
X6667500Y5829300D01*
X6616700Y5778500D01*
X6565900Y5829300D01*
X6261100Y5689600D02*
X6311900Y5740400D01*
X6362700Y5689600D01*
X6311900Y5638800D01*
X6261100Y5689600D01*
X5981700Y5448300D02*
X6032500Y5499100D01*
X6083300Y5448300D01*
X6032500Y5397500D01*
X5981700Y5448300D01*
X5905500Y5067300D02*
X5956300Y5118100D01*
X6007100Y5067300D01*
X5956300Y5016500D01*
X5905500Y5067300D01*
X6515100Y4635500D02*
X6565900Y4686300D01*
X6616700Y4635500D01*
X6565900Y4584700D01*
X6515100Y4635500D01*
X4902200Y4775200D02*
X4953000Y4826000D01*
X5003800Y4775200D01*
X4953000Y4724400D01*
X4902200Y4775200D01*
X4178300Y5308600D02*
X4229100Y5359400D01*
X4279900Y5308600D01*
X4229100Y5257800D01*
X4178300Y5308600D01*
X4406900Y5384800D02*
X4457700Y5435600D01*
X4508500Y5384800D01*
X4457700Y5334000D01*
X4406900Y5384800D01*
X4851400Y5715000D02*
X4902200Y5765800D01*
X4953000Y5715000D01*
X4902200Y5664200D01*
X4851400Y5715000D01*
X5713401Y5233999D02*
X5764201Y5284799D01*
X5815001Y5233999D01*
X5764201Y5183199D01*
X5713401Y5233999D01*
X4038600Y4978400D02*
X4089400Y5029200D01*
X4140200Y4978400D01*
X4089400Y4927600D01*
X4038600Y4978400D01*
X6654800Y4191000D02*
X6705600Y4241800D01*
X6756400Y4191000D01*
X6705600Y4140200D01*
X6654800Y4191000D01*
X2806700Y4394200D02*
X2857500Y4445000D01*
X2908300Y4394200D01*
X2857500Y4343400D01*
X2806700Y4394200D01*
X6121400Y4483100D02*
X6172200Y4533900D01*
X6223000Y4483100D01*
X6172200Y4432300D01*
X6121400Y4483100D01*
X6667500Y4368800D02*
X6718300Y4419600D01*
X6769100Y4368800D01*
X6718300Y4318000D01*
X6667500Y4368800D01*
X5410200Y5308600D02*
X5461000Y5359400D01*
X5511800Y5308600D01*
X5461000Y5257800D01*
X5410200Y5308600D01*
X6731000Y3797300D02*
X6781800Y3848100D01*
X6832600Y3797300D01*
X6781800Y3746500D01*
X6731000Y3797300D01*
X7150100Y4076700D02*
X7200900Y4127500D01*
X7251700Y4076700D01*
X7200900Y4025900D01*
X7150100Y4076700D01*
X3175000Y3162300D02*
X3225800Y3213100D01*
X3276600Y3162300D01*
X3225800Y3111500D01*
X3175000Y3162300D01*
X6553200Y4851400D02*
X6604000Y4902200D01*
X6654800Y4851400D01*
X6604000Y4800600D01*
X6553200Y4851400D01*
X5638800Y4800600D02*
X5689600Y4851400D01*
X5740400Y4800600D01*
X5689600Y4749800D01*
X5638800Y4800600D01*
X4495800Y4940300D02*
X4546600Y4991100D01*
X4597400Y4940300D01*
X4546600Y4889500D01*
X4495800Y4940300D01*
X5829300Y5245100D02*
X5880100Y5295900D01*
X5930900Y5245100D01*
X5880100Y5194300D01*
X5829300Y5245100D01*
X3987800Y4648200D02*
X4038600Y4699000D01*
X4089400Y4648200D01*
X4038600Y4597400D01*
X3987800Y4648200D01*
X4419600Y2159000D02*
X4445000D01*
X4470400Y2184400D01*
X4495800Y2159000D01*
X4521200D01*
Y2184400D01*
X4495800Y2209800D01*
X4521200Y2235200D01*
Y2260600D01*
X4495800D01*
X4470400Y2235200D01*
X4445000Y2260600D01*
X4419600D01*
Y2235200D01*
X4445000Y2209800D01*
X4419600Y2184400D01*
Y2159000D01*
X3224451Y4723051D02*
X3249851D01*
X3275251Y4748451D01*
X3300651Y4723051D01*
X3326051D01*
Y4748451D01*
X3300651Y4773851D01*
X3326051Y4799251D01*
Y4824651D01*
X3300651D01*
X3275251Y4799251D01*
X3249851Y4824651D01*
X3224451D01*
Y4799251D01*
X3249851Y4773851D01*
X3224451Y4748451D01*
Y4723051D01*
X3937000Y2044700D02*
X3987800Y2095500D01*
X4038600Y2044700D01*
X3987800Y1993900D01*
X3937000Y2044700D01*
X7378700Y4559300D02*
X7429500Y4610100D01*
X7480300Y4559300D01*
X7429500Y4508500D01*
X7378700Y4559300D01*
X6832600Y4610100D02*
X6883400Y4660900D01*
X6934200Y4610100D01*
X6883400Y4559300D01*
X6832600Y4610100D01*
X7239000Y4229100D02*
X7289800Y4279900D01*
X7340600Y4229100D01*
X7289800Y4178300D01*
X7239000Y4229100D01*
X7073900Y3670300D02*
X7124700Y3721100D01*
X7175500Y3670300D01*
X7124700Y3619500D01*
X7073900Y3670300D01*
X3035300Y2933700D02*
X3086100Y2984500D01*
X3136900Y2933700D01*
X3086100Y2882900D01*
X3035300Y2933700D01*
X2870200Y2159000D02*
X2921000Y2209800D01*
X2971800Y2159000D01*
X2921000Y2108200D01*
X2870200Y2159000D01*
X3009900Y2527300D02*
X3060700Y2578100D01*
X3111500Y2527300D01*
X3060700Y2476500D01*
X3009900Y2527300D01*
X2565400Y5702300D02*
X2616200Y5753100D01*
X2667000Y5702300D01*
X2616200Y5651500D01*
X2565400Y5702300D01*
X2070100Y4622800D02*
X2120900Y4673600D01*
X2171700Y4622800D01*
X2120900Y4572000D01*
X2070100Y4622800D01*
X2768600Y5422900D02*
X2819400Y5473700D01*
X2870200Y5422900D01*
X2819400Y5372100D01*
X2768600Y5422900D01*
Y4584700D02*
X2819400Y4635500D01*
X2870200Y4584700D01*
X2819400Y4533900D01*
X2768600Y4584700D01*
X6959600Y3035300D02*
X6985000D01*
X7010400Y3060700D01*
X7035800Y3035300D01*
X7061200D01*
Y3060700D01*
X7035800Y3086100D01*
X7061200Y3111500D01*
Y3136900D01*
X7035800D01*
X7010400Y3111500D01*
X6985000Y3136900D01*
X6959600D01*
Y3111500D01*
X6985000Y3086100D01*
X6959600Y3060700D01*
Y3035300D01*
X3327400Y3695700D02*
X3352800D01*
X3378200Y3721100D01*
X3403600Y3695700D01*
X3429000D01*
Y3721100D01*
X3403600Y3746500D01*
X3429000Y3771900D01*
Y3797300D01*
X3403600D01*
X3378200Y3771900D01*
X3352800Y3797300D01*
X3327400D01*
Y3771900D01*
X3352800Y3746500D01*
X3327400Y3721100D01*
Y3695700D01*
X6844580Y4293509D02*
X6895380Y4344309D01*
X6946180Y4293509D01*
X6895380Y4242709D01*
X6844580Y4293509D01*
X6832600Y4140200D02*
X6883400Y4191000D01*
X6934200Y4140200D01*
X6883400Y4089400D01*
X6832600Y4140200D01*
X6845300Y3683000D02*
X6896100Y3733800D01*
X6946900Y3683000D01*
X6896100Y3632200D01*
X6845300Y3683000D01*
X3619500Y1981200D02*
X3644900D01*
X3670300Y2006600D01*
X3695700Y1981200D01*
X3721100D01*
Y2006600D01*
X3695700Y2032000D01*
X3721100Y2057400D01*
Y2082800D01*
X3695700D01*
X3670300Y2057400D01*
X3644900Y2082800D01*
X3619500D01*
Y2057400D01*
X3644900Y2032000D01*
X3619500Y2006600D01*
Y1981200D01*
X5549900Y4241800D02*
X5575300D01*
X5600700Y4267200D01*
X5626100Y4241800D01*
X5651500D01*
Y4267200D01*
X5626100Y4292600D01*
X5651500Y4318000D01*
Y4343400D01*
X5626100D01*
X5600700Y4318000D01*
X5575300Y4343400D01*
X5549900D01*
Y4318000D01*
X5575300Y4292600D01*
X5549900Y4267200D01*
Y4241800D01*
X3949700Y2197100D02*
X4000500Y2247900D01*
X4051300Y2197100D01*
X4000500Y2146300D01*
X3949700Y2197100D01*
X1905000Y2209800D02*
X1955800Y2260600D01*
X2006600Y2209800D01*
X1955800Y2159000D01*
X1905000Y2209800D01*
X3340100Y4635500D02*
X3390900Y4686300D01*
X3441700Y4635500D01*
X3390900Y4584700D01*
X3340100Y4635500D01*
X1181100Y4508500D02*
X1231900Y4559300D01*
X1282700Y4508500D01*
X1231900Y4457700D01*
X1181100Y4508500D01*
X4229100Y3035300D02*
X4279900Y3086100D01*
X4330700Y3035300D01*
X4279900Y2984500D01*
X4229100Y3035300D01*
X3517900Y3048000D02*
X3568700Y3098800D01*
X3619500Y3048000D01*
X3568700Y2997200D01*
X3517900Y3048000D01*
X4445000Y2717800D02*
X4495800Y2768600D01*
X4546600Y2717800D01*
X4495800Y2667000D01*
X4445000Y2717800D01*
X4152900Y2413000D02*
X4203700Y2463800D01*
X4254500Y2413000D01*
X4203700Y2362200D01*
X4152900Y2413000D01*
X6096000Y3797300D02*
X6146800Y3848100D01*
X6197600Y3797300D01*
X6146800Y3746500D01*
X6096000Y3797300D01*
X4483100Y2933700D02*
X4533900Y2984500D01*
X4584700Y2933700D01*
X4533900Y2882900D01*
X4483100Y2933700D01*
X4889500Y6184900D02*
X4914900D01*
X4940300Y6210300D01*
X4965700Y6184900D01*
X4991100D01*
Y6210300D01*
X4965700Y6235700D01*
X4991100Y6261100D01*
Y6286500D01*
X4965700D01*
X4940300Y6261100D01*
X4914900Y6286500D01*
X4889500D01*
Y6261100D01*
X4914900Y6235700D01*
X4889500Y6210300D01*
Y6184900D01*
X1282700Y5842000D02*
X1333500Y5892800D01*
X1384300Y5842000D01*
X1333500Y5791200D01*
X1282700Y5842000D01*
X3860800Y4724400D02*
X3911600Y4775200D01*
X3962400Y4724400D01*
X3911600Y4673600D01*
X3860800Y4724400D01*
X3936401Y5537799D02*
X3961801D01*
X3987201Y5563199D01*
X4012601Y5537799D01*
X4038001D01*
Y5563199D01*
X4012601Y5588599D01*
X4038001Y5613999D01*
Y5639399D01*
X4012601D01*
X3987201Y5613999D01*
X3961801Y5639399D01*
X3936401D01*
Y5613999D01*
X3961801Y5588599D01*
X3936401Y5563199D01*
Y5537799D01*
X2133600Y6629400D02*
X2184400Y6680200D01*
X2235200Y6629400D01*
X2184400Y6578600D01*
X2133600Y6629400D01*
X3479800Y4673600D02*
X3530600Y4724400D01*
X3581400Y4673600D01*
X3530600Y4622800D01*
X3479800Y4673600D01*
X2428900Y4130700D02*
X2454300D01*
X2479700Y4156100D01*
X2505100Y4130700D01*
X2530500D01*
Y4156100D01*
X2505100Y4181500D01*
X2530500Y4206900D01*
Y4232300D01*
X2505100D01*
X2479700Y4206900D01*
X2454300Y4232300D01*
X2428900D01*
Y4206900D01*
X2454300Y4181500D01*
X2428900Y4156100D01*
Y4130700D01*
X2679700Y5829300D02*
X2730500Y5880100D01*
X2781300Y5829300D01*
X2730500Y5778500D01*
X2679700Y5829300D01*
X2095500Y5118100D02*
X2146300Y5168900D01*
X2197100Y5118100D01*
X2146300Y5067300D01*
X2095500Y5118100D01*
X2387600Y3911600D02*
X2438400Y3962400D01*
X2489200Y3911600D01*
X2438400Y3860800D01*
X2387600Y3911600D01*
X1562100Y3898900D02*
X1612900Y3949700D01*
X1663700Y3898900D01*
X1612900Y3848100D01*
X1562100Y3898900D01*
X1346200Y5232400D02*
X1397000Y5283200D01*
X1447800Y5232400D01*
X1397000Y5181600D01*
X1346200Y5232400D01*
X1079500Y4229100D02*
X1130300Y4279900D01*
X1181100Y4229100D01*
X1130300Y4178300D01*
X1079500Y4229100D01*
X4114800D02*
X4165600Y4279900D01*
X4216400Y4229100D01*
X4165600Y4178300D01*
X4114800Y4229100D01*
X1181100Y4737100D02*
X1231900Y4787900D01*
X1282700Y4737100D01*
X1231900Y4686300D01*
X1181100Y4737100D01*
X1282700Y4965700D02*
X1333500Y5016500D01*
X1384300Y4965700D01*
X1333500Y4914900D01*
X1282700Y4965700D01*
X2197100Y5283200D02*
X2247900Y5334000D01*
X2298700Y5283200D01*
X2247900Y5232400D01*
X2197100Y5283200D01*
X1841500Y5613400D02*
X1892300Y5664200D01*
X1943100Y5613400D01*
X1892300Y5562600D01*
X1841500Y5613400D01*
X1511300D02*
X1562100Y5664200D01*
X1612900Y5613400D01*
X1562100Y5562600D01*
X1511300Y5613400D01*
X6337300Y5981700D02*
X6388100Y6032500D01*
X6438900Y5981700D01*
X6388100Y5930900D01*
X6337300Y5981700D01*
X6769100Y4711700D02*
X6794500D01*
X6819900Y4737100D01*
X6845300Y4711700D01*
X6870700D01*
Y4737100D01*
X6845300Y4762500D01*
X6870700Y4787900D01*
Y4813300D01*
X6845300D01*
X6819900Y4787900D01*
X6794500Y4813300D01*
X6769100D01*
Y4787900D01*
X6794500Y4762500D01*
X6769100Y4737100D01*
Y4711700D01*
X7200900Y4914900D02*
X7226300D01*
X7251700Y4940300D01*
X7277100Y4914900D01*
X7302500D01*
Y4940300D01*
X7277100Y4965700D01*
X7302500Y4991100D01*
Y5016500D01*
X7277100D01*
X7251700Y4991100D01*
X7226300Y5016500D01*
X7200900D01*
Y4991100D01*
X7226300Y4965700D01*
X7200900Y4940300D01*
Y4914900D01*
X7213600Y3733800D02*
X7239000D01*
X7264400Y3759200D01*
X7289800Y3733800D01*
X7315200D01*
Y3759200D01*
X7289800Y3784600D01*
X7315200Y3810000D01*
Y3835400D01*
X7289800D01*
X7264400Y3810000D01*
X7239000Y3835400D01*
X7213600D01*
Y3810000D01*
X7239000Y3784600D01*
X7213600Y3759200D01*
Y3733800D01*
X6464300Y4191000D02*
X6489700D01*
X6515100Y4216400D01*
X6540500Y4191000D01*
X6565900D01*
Y4216400D01*
X6540500Y4241800D01*
X6565900Y4267200D01*
Y4292600D01*
X6540500D01*
X6515100Y4267200D01*
X6489700Y4292600D01*
X6464300D01*
Y4267200D01*
X6489700Y4241800D01*
X6464300Y4216400D01*
Y4191000D01*
X1092200Y3733800D02*
X1143000Y3784600D01*
X1193800Y3733800D01*
X1143000Y3683000D01*
X1092200Y3733800D01*
X2349500Y4635500D02*
X2374900D01*
X2400300Y4660900D01*
X2425700Y4635500D01*
X2451100D01*
Y4660900D01*
X2425700Y4686300D01*
X2451100Y4711700D01*
Y4737100D01*
X2425700D01*
X2400300Y4711700D01*
X2374900Y4737100D01*
X2349500D01*
Y4711700D01*
X2374900Y4686300D01*
X2349500Y4660900D01*
Y4635500D01*
X4000500Y3492500D02*
X4025900D01*
X4051300Y3517900D01*
X4076700Y3492500D01*
X4102100D01*
Y3517900D01*
X4076700Y3543300D01*
X4102100Y3568700D01*
Y3594100D01*
X4076700D01*
X4051300Y3568700D01*
X4025900Y3594100D01*
X4000500D01*
Y3568700D01*
X4025900Y3543300D01*
X4000500Y3517900D01*
Y3492500D01*
X4572000Y3721100D02*
X4597400D01*
X4622800Y3746500D01*
X4648200Y3721100D01*
X4673600D01*
Y3746500D01*
X4648200Y3771900D01*
X4673600Y3797300D01*
Y3822700D01*
X4648200D01*
X4622800Y3797300D01*
X4597400Y3822700D01*
X4572000D01*
Y3797300D01*
X4597400Y3771900D01*
X4572000Y3746500D01*
Y3721100D01*
X4229100Y3708400D02*
X4254500D01*
X4279900Y3733800D01*
X4305300Y3708400D01*
X4330700D01*
Y3733800D01*
X4305300Y3759200D01*
X4330700Y3784600D01*
Y3810000D01*
X4305300D01*
X4279900Y3784600D01*
X4254500Y3810000D01*
X4229100D01*
Y3784600D01*
X4254500Y3759200D01*
X4229100Y3733800D01*
Y3708400D01*
X3695700Y558800D02*
X3721100D01*
X3746500Y584200D01*
X3771900Y558800D01*
X3797300D01*
Y584200D01*
X3771900Y609600D01*
X3797300Y635000D01*
Y660400D01*
X3771900D01*
X3746500Y635000D01*
X3721100Y660400D01*
X3695700D01*
Y635000D01*
X3721100Y609600D01*
X3695700Y584200D01*
Y558800D01*
X3340100Y2667000D02*
X3365500D01*
X3390900Y2692400D01*
X3416300Y2667000D01*
X3441700D01*
Y2692400D01*
X3416300Y2717800D01*
X3441700Y2743200D01*
Y2768600D01*
X3416300D01*
X3390900Y2743200D01*
X3365500Y2768600D01*
X3340100D01*
Y2743200D01*
X3365500Y2717800D01*
X3340100Y2692400D01*
Y2667000D01*
X2044700Y5791200D02*
X2095500Y5842000D01*
X2146300Y5791200D01*
X2095500Y5740400D01*
X2044700Y5791200D01*
X4267200Y596900D02*
X4292600D01*
X4318000Y622300D01*
X4343400Y596900D01*
X4368800D01*
Y622300D01*
X4343400Y647700D01*
X4368800Y673100D01*
Y698500D01*
X4343400D01*
X4318000Y673100D01*
X4292600Y698500D01*
X4267200D01*
Y673100D01*
X4292600Y647700D01*
X4267200Y622300D01*
Y596900D01*
X2959100Y749300D02*
X2984500D01*
X3009900Y774700D01*
X3035300Y749300D01*
X3060700D01*
Y774700D01*
X3035300Y800100D01*
X3060700Y825500D01*
Y850900D01*
X3035300D01*
X3009900Y825500D01*
X2984500Y850900D01*
X2959100D01*
Y825500D01*
X2984500Y800100D01*
X2959100Y774700D01*
Y749300D01*
X2260600Y1778000D02*
X2286000D01*
X2311400Y1803400D01*
X2336800Y1778000D01*
X2362200D01*
Y1803400D01*
X2336800Y1828800D01*
X2362200Y1854200D01*
Y1879600D01*
X2336800D01*
X2311400Y1854200D01*
X2286000Y1879600D01*
X2260600D01*
Y1854200D01*
X2286000Y1828800D01*
X2260600Y1803400D01*
Y1778000D01*
X2679700Y1930400D02*
X2705100D01*
X2730500Y1955800D01*
X2755900Y1930400D01*
X2781300D01*
Y1955800D01*
X2755900Y1981200D01*
X2781300Y2006600D01*
Y2032000D01*
X2755900D01*
X2730500Y2006600D01*
X2705100Y2032000D01*
X2679700D01*
Y2006600D01*
X2705100Y1981200D01*
X2679700Y1955800D01*
Y1930400D01*
D102*
X7506401Y3949502D02*
G03*
X7506401Y3949502I-50800J0D01*
G01*
Y4813498D02*
G03*
X7506401Y4813498I-50800J0D01*
G01*
%TF.MD5,381d1e9ae88ff236e81ed0aa567a60af*%
M02*
